<?xml version="1.0" standalone="no"?>
<!DOCTYPE svg PUBLIC "-//W3C//DTD SVG 1.1//EN" "http://www.w3.org/Graphics/SVG/1.1/DTD/svg11.dtd" >
<svg xmlns="http://www.w3.org/2000/svg">
<metadata></metadata>
<defs>
<font id="true_lightregular" horiz-adv-x="0" >
<font-face units-per-em="2048" ascent="1638" descent="-410" />
<missing-glyph horiz-adv-x="835" />
<glyph unicode="&#xe37;&#xe48;" d="M-1104 1392v124h625v154h139v-154h92v154h139v-278h-995zM-365 1762v280h139v-280h-139z" />
<glyph unicode="&#xd;" horiz-adv-x="835" />
<glyph unicode=" "  horiz-adv-x="835" />
<glyph unicode="&#x09;" horiz-adv-x="835" />
<glyph unicode="&#xa0;" horiz-adv-x="835" />
<glyph unicode="!" horiz-adv-x="813" d="M322 0v177h170v-177h-170zM322 1457h170l-25 -1105h-121z" />
<glyph unicode="&#x22;" horiz-adv-x="1159" d="M374 1003v454h130v-454h-130zM655 1003v454h130v-454h-130z" />
<glyph unicode="#" horiz-adv-x="1159" d="M71 458v111h233l45 319h-225v112h238l65 457h130l-65 -457h269l65 457h127l-62 -457h198v-112h-213l-44 -319h198v-111h-216l-65 -458h-127l65 458h-273l-65 -458h-127l65 458h-216zM433 569h269l47 319h-273z" />
<glyph unicode="$" horiz-adv-x="1159" d="M177 1101q0 77 27 139.5t75.5 111t113.5 79.5t142 44v133h108v-127q27 0 60.5 -2t70.5 -7.5t75.5 -14.5t74.5 -23l-21 -132q-48 28 -116 40t-144 15v-554q64 -34 126.5 -72.5t111 -88t78.5 -112t30 -143.5q0 -90 -28.5 -157t-76 -116t-110.5 -80t-131 -46v-174h-108v165 q-5 -3 -11 -3h-14q-107 0 -188.5 18t-138.5 44l12 148q65 -40 143.5 -63t177.5 -23q12 0 19 3v599q-65 35 -129.5 73.5t-115 86t-82 106.5t-31.5 133zM322 1107q0 -80 61 -138t152 -107v483q-43 -7 -81.5 -25t-68 -47.5t-46.5 -70.5t-17 -95zM643 118q89 25 145 94t56 187 q0 37 -15 70.5t-42 63t-64 56t-80 51.5v-522z" />
<glyph unicode="%" horiz-adv-x="2086" d="M219 1083q0 83 19 154.5t59.5 123.5t103.5 81.5t150 29.5q86 0 148 -29.5t102 -81.5t59 -123.5t19 -154.5q0 -85 -19 -157.5t-59 -124.5t-102 -81.5t-148 -29.5q-87 0 -150 29.5t-103.5 81.5t-59.5 124.5t-19 157.5zM349 1083q0 -49 9 -98.5t32.5 -89.5t62.5 -66t98 -26 q58 0 96.5 26t61 66t31.5 89.5t9 98.5q0 46 -9 95.5t-31.5 89.5t-61 64.5t-96.5 24.5q-59 0 -98 -24.5t-62.5 -64.5t-32.5 -89.5t-9 -95.5zM551 -47l862 1549h121l-864 -1549h-119zM1210 374q0 85 18.5 156.5t58.5 124.5t102 82.5t148 29.5t149 -29.5t103.5 -82.5 t59.5 -124.5t19 -156.5q0 -84 -19 -155t-59.5 -123t-103.5 -81.5t-149 -29.5t-148 29.5t-102 81.5t-58.5 123t-18.5 155zM1339 374q0 -48 9 -96t32 -88.5t60.5 -65t96.5 -24.5t97.5 24.5t62 65t32.5 88.5t9 96q0 49 -9 98.5t-32.5 89.5t-62 65t-97.5 25t-96.5 -25t-60.5 -65 t-32 -89.5t-9 -98.5z" />
<glyph unicode="&#x26;" horiz-adv-x="1392" d="M106 384q0 83 26.5 148.5t72.5 117t108.5 90t134.5 68.5q-33 38 -67 78t-61 83.5t-43.5 92t-16.5 104.5q0 77 34 136.5t89 99t126 59.5t143 20q65 0 126.5 -18t109 -55t76 -93.5t28.5 -133.5q0 -86 -29.5 -146t-78.5 -104.5t-111.5 -78.5t-129.5 -67l384 -429 q69 100 98 213.5t29 230.5h123q0 -142 -40 -278.5t-124 -249.5l251 -269h-186l-154 165q-89 -100 -200 -146t-243 -46q-92 0 -177 23.5t-151.5 73t-106.5 126.5t-40 185zM248 390q0 -76 28 -132.5t75.5 -95t108.5 -57.5t127 -19q49 0 99.5 12t98 35t89 53.5t73.5 70.5 l-425 466q-52 -19 -101.5 -51t-88 -75t-61.5 -95t-23 -112zM402 1157q0 -44 15 -83.5t38.5 -76.5t53.5 -71t60 -67q47 23 97 48.5t90.5 59.5t67 81t26.5 112q0 102 -56.5 156t-150.5 54q-47 0 -90 -14t-77 -40t-54 -66t-20 -93z" />
<glyph unicode="'" horiz-adv-x="581" d="M226 1003v454h130v-454h-130z" />
<glyph unicode="(" horiz-adv-x="581" d="M86 643q0 132 30 254t81 237.5t116 225t132 216.5h87q-58 -108 -114 -220t-99.5 -228t-71.5 -237t-28 -248t28 -247.5t71.5 -237t99.5 -229t114 -220.5h-87q-67 107 -132 216.5t-116 225t-81 238.5t-30 254z" />
<glyph unicode=")" horiz-adv-x="581" d="M50 -291q56 108 112.5 220.5t100.5 229t71.5 237t27.5 247.5t-27.5 248t-71.5 237t-100.5 228t-112.5 220h86q68 -107 132 -216.5t114 -225t80 -237.5t30 -254q0 -131 -30 -254t-80 -238.5t-114 -225t-132 -216.5h-86z" />
<glyph unicode="*" horiz-adv-x="1159" d="M192 1136l38 119l305 -116l-16 318h121l-15 -318l302 116l41 -119l-307 -91l201 -248l-101 -80l-180 275l-176 -275l-101 80l194 248z" />
<glyph unicode="+" horiz-adv-x="1251" d="M95 458v141h459v458h142v-458h458v-141h-458v-458h-142v458h-459z" />
<glyph unicode="," horiz-adv-x="581" d="M112 -278l124 455h172l-163 -455h-133z" />
<glyph unicode="-" horiz-adv-x="696" d="M86 492v142h523v-142h-523z" />
<glyph unicode="." horiz-adv-x="581" d="M204 0v177h170v-177h-170z" />
<glyph unicode="/" horiz-adv-x="581" d="M-65 -24l566 1505h145l-566 -1505h-145z" />
<glyph unicode="0" horiz-adv-x="1159" d="M103 729q0 85 8 173.5t29.5 171.5t56 155.5t87.5 126t126 85t171 31.5q97 0 169.5 -31.5t125.5 -85t88.5 -126t55.5 -155.5t28.5 -171.5t8.5 -173.5q0 -75 -7 -160.5t-25 -167.5t-51 -157.5t-86 -133t-128.5 -91.5t-178.5 -34q-104 0 -180 34t-129 91.5t-86 133 t-51.5 157.5t-25 166.5t-6.5 161.5zM248 729q0 -60 3.5 -129.5t15 -138t34 -132t59.5 -112t91.5 -77t129.5 -28.5q76 0 130.5 28.5t91.5 77t59.5 112t34 132t15 138t3.5 129.5q0 61 -3.5 130.5t-15 137.5t-34 131t-59.5 111.5t-91.5 77t-130.5 28.5q-75 0 -129.5 -28.5 t-91.5 -77t-59.5 -111.5t-34 -131t-15 -137.5t-3.5 -130.5z" />
<glyph unicode="1" horiz-adv-x="1159" d="M257 1181l330 276h130v-1457h-145v1293l-235 -204z" />
<glyph unicode="2" horiz-adv-x="1159" d="M106 0v124l333 371q65 73 128 149t112 151.5t79 148t30 139.5q0 57 -19.5 105.5t-53.5 83t-81.5 54t-101.5 19.5q-99 0 -181 -27t-168 -75l-26 130q39 19 84.5 37t93 32t96 22t91.5 8q90 0 167.5 -22.5t135 -70t90 -120t32.5 -170.5q0 -82 -37 -168t-95 -173t-130 -171.5 t-141 -162.5l-263 -290h699v-124h-874z" />
<glyph unicode="3" horiz-adv-x="1159" d="M106 44l15 139q90 -44 181.5 -57.5t170.5 -13.5q65 0 131 16.5t119 52.5t87 94.5t34 141.5q0 93 -40 148.5t-100.5 83t-130 36t-128.5 8.5h-132v127h36q75 0 162 7t161 36t123 86.5t49 160.5q0 62 -30 106.5t-77.5 73t-107.5 42t-119 13.5q-86 0 -166.5 -20t-157.5 -57 l-12 136q78 30 169.5 49t181.5 19q91 0 175 -20.5t148 -63.5t102.5 -112.5t38.5 -165.5q0 -67 -22.5 -122.5t-62.5 -100t-96 -76.5t-121 -50v-3q73 -3 129.5 -31.5t95 -75.5t58 -110.5t19.5 -135.5q0 -100 -40.5 -178t-112.5 -132t-168 -82t-204 -28q-96 0 -183.5 13 t-174.5 46z" />
<glyph unicode="4" horiz-adv-x="1159" d="M50 337v142l652 978h186v-996h213v-124h-213v-337h-145v337h-693zM180 461h563v853h-5z" />
<glyph unicode="5" horiz-adv-x="1159" d="M180 38v148q69 -38 152 -56t160 -18q71 0 140 19.5t123 59.5t87.5 102t33.5 146q0 170 -89 250.5t-277 80.5q-90 0 -162 -11.5t-153 -35.5l15 734h746v-124h-604l-9 -471q35 15 85.5 25t134.5 10q106 0 190.5 -29.5t144 -84.5t91.5 -134.5t32 -178.5q0 -121 -39.5 -211.5 t-109.5 -152t-167.5 -91.5t-212.5 -30q-80 0 -159 12t-153 41z" />
<glyph unicode="6" horiz-adv-x="1159" d="M115 678q0 165 33 309t110 252t203 170.5t312 62.5q57 0 115.5 -9.5t117.5 -24.5l-14 -136q-44 19 -109 31t-128 12q-143 2 -238.5 -50t-152 -138t-80.5 -195t-24 -219h3q56 91 148 134.5t195 43.5q72 0 151.5 -20.5t145.5 -71.5t110 -139.5t44 -222.5q0 -108 -31.5 -196 t-93 -151.5t-149.5 -99t-202 -35.5q-145 0 -236 59.5t-141.5 157.5t-69.5 222t-19 254zM272 473q0 -68 19 -133t58 -115.5t98 -81.5t140 -31q80 0 141.5 26.5t103 72.5t62.5 108.5t21 135.5q0 160 -78.5 249.5t-230.5 89.5q-79 0 -141 -23.5t-105 -65.5t-65.5 -101 t-22.5 -131z" />
<glyph unicode="7" horiz-adv-x="1159" d="M121 1333v124h891v-124l-567 -1333h-158l581 1333h-747z" />
<glyph unicode="8" horiz-adv-x="1159" d="M95 374q0 84 25.5 145t71 105.5t107.5 76t134 57.5q-57 27 -110 62t-93 80t-64 102.5t-24 129.5q0 91 43 156t108.5 105.5t142.5 59.5t145 19q85 0 164 -19.5t139.5 -61t97 -105.5t36.5 -154q0 -67 -27.5 -124t-71 -103t-97 -83t-105.5 -64q74 -27 137.5 -58t110.5 -75 t73.5 -104t26.5 -147q0 -108 -43.5 -182t-112 -120t-154.5 -66.5t-174 -20.5q-87 0 -174 23.5t-156.5 71t-112.5 120.5t-43 174zM242 374q0 -61 29 -109.5t77.5 -82.5t109 -52t123.5 -18q64 0 125 14t108.5 47.5t77 85.5t29.5 128q0 68 -34.5 116t-85.5 84.5t-110.5 62.5 t-109.5 52q-63 -26 -124 -52t-109 -62.5t-77 -87t-29 -126.5zM284 1119q0 -62 29.5 -110.5t74 -84.5t96.5 -64t97 -49q49 24 101 54t94 67t69.5 83.5t27.5 103.5q0 59 -26.5 101t-69 70t-93.5 41.5t-103 13.5q-57 0 -110.5 -13.5t-95 -42t-66.5 -71t-25 -99.5z" />
<glyph unicode="9" horiz-adv-x="1159" d="M103 992q0 106 31.5 194t92.5 151.5t149.5 99t201.5 35.5q145 0 236.5 -60.5t142 -157.5t69.5 -221.5t19 -253.5q0 -164 -33.5 -309t-110.5 -252.5t-202 -170t-309 -62.5q-61 0 -119 10t-117 23l14 139q46 -21 111 -33t129 -12q93 -2 167 21.5t129.5 66.5t93 101t61 126 t34 142t10.5 148h-6q-56 -93 -148 -137.5t-192 -44.5q-72 0 -153 20t-147.5 72.5t-110 140.5t-43.5 224zM248 1003q0 -162 77 -252t232 -90q77 0 139 23.5t104.5 66t65 103t22.5 132.5q0 68 -19 132t-57.5 115t-97.5 81.5t-139 30.5t-141 -26t-102.5 -72.5t-62.5 -109 t-21 -134.5z" />
<glyph unicode=":" horiz-adv-x="581" d="M204 0v177h170v-177h-170zM204 891v174h170v-174h-170z" />
<glyph unicode=";" horiz-adv-x="581" d="M112 -278l124 455h172l-163 -455h-133zM204 891v174h170v-174h-170z" />
<glyph unicode="&#x3c;" horiz-adv-x="1251" d="M95 464v129l1059 481v-141l-897 -405l897 -407v-136z" />
<glyph unicode="=" horiz-adv-x="1251" d="M95 248v142h1059v-142h-1059zM95 664v147h1059v-147h-1059z" />
<glyph unicode="&#x3e;" horiz-adv-x="1251" d="M100 -15v136l900 407l-900 405v141l1057 -481v-129z" />
<glyph unicode="?" horiz-adv-x="1041" d="M180 1428q74 25 151.5 39t154.5 14q80 0 152.5 -21.5t127 -68t87 -117.5t32.5 -167q0 -86 -26.5 -149.5t-66 -116.5t-86 -99.5t-86 -98t-66 -114t-26.5 -145.5v-32h-132v29q0 95 25.5 163t64 120.5t84 98t84 93.5t64 108t25.5 143q0 59 -20.5 105t-56 78.5t-83.5 49.5 t-104 17q-86 0 -155.5 -18.5t-137.5 -39.5zM381 0v177h170v-177h-170z" />
<glyph unicode="@" horiz-adv-x="1670" d="M83 729q0 142 47.5 277.5t142 241t235.5 169.5t330 64q137 0 269.5 -40.5t236.5 -120t168 -198t64 -272.5q0 -133 -49 -239.5t-120.5 -180.5t-153 -113t-146.5 -39q-139 0 -166 130h-3q-20 -23 -42.5 -46.5t-53 -42.5t-69.5 -30t-92 -11q-62 0 -114 25t-89 68t-58 100 t-21 122q0 102 34.5 203t98 182t152.5 131.5t198 50.5q72 0 132.5 -38.5t95.5 -121.5l44 122h133l-180 -565q-18 -57 -18 -106q0 -18 10.5 -32t36.5 -14q57 0 112 35.5t98 96.5t69 142t26 171q0 122 -50 216.5t-133 159t-192.5 98t-227.5 33.5q-131 0 -244.5 -47.5 t-195.5 -131t-129 -198.5t-47 -251t47 -251.5t129 -199t195.5 -131t244.5 -47.5q178 0 320 63t231 168h127q-48 -83 -118.5 -149t-158 -112t-188.5 -70t-213 -24q-189 0 -330 65t-235.5 170.5t-142 240.5t-47.5 277zM557 606q0 -96 41.5 -148.5t106.5 -52.5q77 0 140 44.5 t108 110t70 142.5t25 142q0 56 -16 92t-40 57.5t-53.5 30.5t-56.5 9q-50 0 -107.5 -32t-106.5 -88.5t-80.5 -135t-30.5 -171.5z" />
<glyph unicode="A" horiz-adv-x="1392" d="M27 0l598 1457h160l579 -1457h-148l-159 390h-732l-157 -390h-141zM378 516h634l-316 804z" />
<glyph unicode="B" horiz-adv-x="1159" d="M168 0v1457h345q89 0 172.5 -17.5t147.5 -58t102.5 -110t38.5 -173.5q0 -141 -64 -223t-202 -108v-6q70 -12 127 -40.5t98 -73.5t63 -103t22 -130q0 -118 -44.5 -197.5t-121.5 -127.5t-179 -68.5t-215 -20.5h-290zM313 124h148q72 0 146 12t133.5 43.5t97.5 87t38 141.5 q0 96 -38.5 153.5t-100.5 88t-140 38.5t-158 8h-126v-572zM316 820h160q57 0 119.5 10t115.5 39t87 82t34 141q0 78 -32.5 125.5t-81 73.5t-103.5 34t-102 8h-197v-513z" />
<glyph unicode="C" horiz-adv-x="1392" d="M118 729q0 166 51 304.5t147 238t232 154.5t305 55q33 0 78.5 -2t93 -8t91.5 -16.5t71 -26.5l-9 -135q-33 18 -74 30.5t-84 20t-86 10.5t-81 3q-142 0 -251.5 -47.5t-185 -131t-114.5 -199t-39 -250.5q0 -137 38.5 -252.5t113 -199.5t185 -130.5t253.5 -46.5q36 0 80 3 t88 9.5t84.5 19.5t72.5 33l9 -127q-30 -18 -72.5 -29.5t-89.5 -19t-92 -10.5t-80 -3q-172 0 -308 54.5t-231 153t-145.5 237.5t-50.5 308z" />
<glyph unicode="D" horiz-adv-x="1392" d="M168 0v1457h360q197 0 334.5 -53.5t225 -150t127.5 -230.5t40 -294q0 -197 -63 -336t-173.5 -226.5t-263.5 -127t-334 -39.5h-253zM313 124h117q156 0 282 33t215 106.5t137.5 190.5t48.5 284q0 168 -47 281t-127 183.5t-187 100.5t-230 30h-209v-1209z" />
<glyph unicode="E" horiz-adv-x="1041" d="M180 0v1457h714v-124h-569v-519h537v-127h-537v-563h593v-124h-738z" />
<glyph unicode="F" horiz-adv-x="927" d="M160 0v1457h693v-124h-546v-519h522v-127h-522v-687h-147z" />
<glyph unicode="G" horiz-adv-x="1505" d="M133 729q0 166 51.5 304.5t147 238t231.5 154.5t305 55q43 0 95 -3.5t105.5 -11t103.5 -21.5t87 -32l-16 -133q-86 47 -183 62t-192 15q-140 0 -250.5 -47.5t-186 -131t-114.5 -199t-39 -250.5q0 -137 38.5 -252.5t113 -199.5t185 -130.5t253.5 -46.5q33 0 76.5 2t86.5 8 t81.5 16t65.5 25v513h-340v124h482v-723q-112 -48 -220.5 -68.5t-231.5 -20.5q-172 0 -308.5 54.5t-231.5 153t-145 237.5t-50 308z" />
<glyph unicode="H" horiz-adv-x="1392" d="M183 0v1457h145v-643h737v643h145v-1457h-145v687h-737v-687h-145z" />
<glyph unicode="I" horiz-adv-x="463" d="M160 0v1457h147v-1457h-147z" />
<glyph unicode="J" horiz-adv-x="696" d="M27 0v127q30 -14 68.5 -20.5t69.5 -6.5q60 0 101 22.5t65.5 60t35.5 87t11 101.5v1086h144v-1083q0 -84 -19.5 -156.5t-61 -126t-106.5 -84.5t-155 -31q-35 0 -76.5 6t-76.5 18z" />
<glyph unicode="K" horiz-adv-x="1274" d="M198 0v1457h145v-654l657 654h184l-705 -687l767 -770h-198l-705 729v-729h-145z" />
<glyph unicode="L" horiz-adv-x="927" d="M168 0v1457h145v-1333h584v-124h-729z" />
<glyph unicode="M" horiz-adv-x="1855" d="M180 0v1457h222l531 -1280l536 1280h207v-1457h-145v1314h-3l-528 -1314h-124l-548 1314h-3v-1314h-145z" />
<glyph unicode="N" horiz-adv-x="1392" d="M160 0v1457h183l740 -1280h6v1280h142v-1457h-195l-726 1255h-3v-1255h-147z" />
<glyph unicode="O" horiz-adv-x="1505" d="M112 729v14q0 139 36 269q38 136 118.5 240t202 166.5t286.5 62.5q163 0 284 -62.5t200 -166.5t119 -240q38 -129 37 -269v-14q-1 -167 -42.5 -306t-122.5 -238.5t-200 -154t-275 -54.5q-159 0 -278 54.5t-199 154t-122.5 238.5t-43.5 306zM257 729q0 -116 29.5 -228.5 t90.5 -201.5t154.5 -144t223.5 -55q127 0 220.5 55t154 144t90 201.5t29.5 228.5q0 115 -29.5 227.5t-90 201.5t-154 144t-220.5 55q-130 0 -223.5 -55t-154.5 -144t-90.5 -201.5t-29.5 -227.5z" />
<glyph unicode="P" horiz-adv-x="1041" d="M180 0v1457h358q104 0 187 -25.5t142 -77.5t90.5 -130t31.5 -182q0 -101 -36 -177.5t-99 -128.5t-148 -78.5t-184 -26.5h-197v-631h-145zM325 755h99q82 0 157.5 7.5t133.5 37t93.5 87t35.5 155.5q0 140 -73 215.5t-214 75.5h-232v-578z" />
<glyph unicode="Q" horiz-adv-x="1505" d="M112 729v14q0 140 36 269q39 136 119 240t201.5 166.5t286.5 62.5q163 0 284 -62.5t200 -166.5t119 -240q37 -129 37 -269v-14q-1 -128 -26 -240.5t-72.5 -203t-117 -157t-161.5 -104.5l306 -296h-192l-259 257q-15 -3 -29 -4.5t-30 -1.5q-15 -3 -30 -3h-29 q-159 0 -278 54.5t-199 154t-122.5 238.5t-43.5 306zM257 729q0 -116 29.5 -228.5t90.5 -201.5t154.5 -144t223.5 -55q127 0 220.5 55t154 144t90 201.5t29.5 228.5q0 115 -29.5 227.5t-90 201.5t-154 144t-220.5 55q-130 0 -223.5 -55t-154.5 -144t-90.5 -201.5 t-29.5 -227.5z" />
<glyph unicode="R" horiz-adv-x="1159" d="M183 0v1457h377q97 0 176 -22t134.5 -67t85.5 -117t30 -171q0 -71 -25 -129.5t-68.5 -101.5t-102 -70t-126.5 -36v-5q43 -6 71.5 -20t49 -36t35 -52.5t30.5 -66.5l251 -563h-160l-212 492q-30 73 -58.5 112t-61 57.5t-72.5 22t-92 3.5h-117v-687h-145zM328 814h151 q63 0 128.5 13t118 43.5t85.5 81.5t33 128q0 89 -29.5 139.5t-80 76t-117.5 31.5t-141 6h-148v-519z" />
<glyph unicode="S" horiz-adv-x="1041" d="M121 1101q0 87 35.5 158t98 120t146.5 75.5t180 26.5q28 0 61.5 -2t70.5 -7.5t77 -14.5t78 -23l-24 -132q-48 28 -119 41.5t-144 13.5q-57 0 -113 -12.5t-101 -42t-73 -78t-28 -117.5q0 -55 28.5 -98t75.5 -78.5t107.5 -68t122 -65.5t122 -71.5t107.5 -87t75.5 -110 t28.5 -141.5q0 -111 -43 -188.5t-111.5 -127.5t-154 -72.5t-169.5 -22.5q-108 0 -191 18t-140 44l15 148q66 -40 142.5 -63t179.5 -23q67 0 127 17t104.5 54t70 94t25.5 134q0 71 -49 124.5t-123.5 99.5t-161 91.5t-161 99t-123.5 123t-49 164.5z" />
<glyph unicode="T" horiz-adv-x="1041" d="M21 1333v124h1003v-124h-431v-1333h-142v1333h-430z" />
<glyph unicode="U" horiz-adv-x="1392" d="M171 510v947h142v-947q0 -89 24.5 -164.5t73 -129.5t120 -85t165.5 -31q95 0 167.5 31t121 85t73.5 129.5t25 164.5v947h142v-947q0 -107 -24.5 -188.5t-66 -141t-95 -99t-111.5 -63t-118.5 -33t-113.5 -9.5t-112 9.5t-117.5 33t-112.5 63t-94.5 99t-64.5 141t-24 188.5z " />
<glyph unicode="V" horiz-adv-x="1274" d="M12 1457h153l469 -1312l485 1312h143l-554 -1457h-151z" />
<glyph unicode="W" horiz-adv-x="1970" d="M18 1457h150l357 -1292h3l375 1292h174l367 -1292h3l368 1292h136l-420 -1457h-174l-368 1293h-3l-377 -1293h-173z" />
<glyph unicode="X" horiz-adv-x="1274" d="M15 0l542 767l-489 690h171l407 -589l414 589h162l-493 -690l533 -767h-176l-446 664l-460 -664h-165z" />
<glyph unicode="Y" horiz-adv-x="1274" d="M24 1457h168l445 -711l458 711h154l-541 -838v-619h-142v619z" />
<glyph unicode="Z" horiz-adv-x="1041" d="M44 0v124l759 1209h-741v124h894v-124l-755 -1209h779v-124h-936z" />
<glyph unicode="[" horiz-adv-x="581" d="M145 -291v1867h337v-98h-207v-1670h207v-99h-337z" />
<glyph unicode="\" horiz-adv-x="581" d="M-65 1481h145l566 -1505h-145z" />
<glyph unicode="]" horiz-adv-x="581" d="M100 -192h207v1670h-207v98h336v-1867h-336v99z" />
<glyph unicode="^" horiz-adv-x="1251" d="M106 554l454 903h133l455 -903h-148l-375 760l-371 -760h-148z" />
<glyph unicode="_" horiz-adv-x="1041" d="M0 -157h1042v-103h-1042v103z" />
<glyph unicode="`" horiz-adv-x="463" d="M-9 1493h166l192 -299h-95z" />
<glyph unicode="a" horiz-adv-x="1041" d="M83 275q0 89 29.5 152.5t79.5 105t115.5 65t138.5 34.5t148 14t144 3h26v53q0 138 -54.5 206.5t-187.5 68.5q-84 0 -162 -19.5t-153 -66.5v127q32 15 72 28t82 22.5t83.5 15t77.5 5.5q197 0 286 -94t89 -302v-471q0 -63 0.5 -114.5t8.5 -107.5h-130v171h-3 q-23 -49 -60 -85t-82 -60t-96.5 -37t-101.5 -13q-113 0 -181.5 33t-105.5 80.5t-50 98.5t-13 87zM230 278q0 -53 17 -89t46.5 -59t69.5 -33.5t85 -10.5q117 0 180.5 44t93.5 105.5t36 127.5t6 110v62h-38q-86 0 -174 -7t-160 -33.5t-117 -78t-45 -138.5z" />
<glyph unicode="b" horiz-adv-x="1159" d="M151 0v1564h133v-679h3q7 19 30.5 54t64.5 68t100 57.5t137 24.5q118 0 201 -41.5t136 -115.5t77 -176t24 -224q0 -118 -27 -220t-81.5 -177t-137 -117t-192.5 -42q-115 0 -196.5 46t-135.5 149h-3v-171h-133zM284 532q0 -73 16.5 -152.5t53.5 -144t97.5 -107 t147.5 -42.5q94 0 155 41t96.5 105t50 143.5t14.5 156.5t-14.5 156t-50 143t-96.5 105t-155 41q-90 0 -150.5 -42.5t-96.5 -107t-52 -144t-16 -151.5z" />
<glyph unicode="c" horiz-adv-x="927" d="M86 532q0 122 38 224.5t107 176.5t166.5 115t215.5 41q95 0 161.5 -16t93.5 -25l-12 -127q-53 24 -112.5 40t-112.5 16q-96 0 -171 -33t-126.5 -92t-77.5 -141.5t-26 -178.5q0 -91 26 -172t76 -142t121.5 -96.5t162.5 -35.5q64 0 122 13.5t118 36.5l12 -124 q-68 -23 -133 -29.5t-142 -6.5q-126 0 -221.5 45t-159 121.5t-95 177t-31.5 212.5z" />
<glyph unicode="d" horiz-adv-x="1159" d="M103 532q0 122 25 224t77.5 176t135.5 115.5t200 41.5q78 0 137 -24.5t99.5 -57.5t64 -68t31.5 -54h3v679h133v-1564h-133v171h-3q-55 -103 -136.5 -149t-195.5 -46q-111 0 -193 42t-136.5 117t-81.5 177t-27 220zM248 532q0 -77 14 -156.5t49.5 -143.5t97 -105 t154.5 -41q86 0 146 42.5t97 107t53.5 144t16.5 152.5q0 72 -16.5 151.5t-53.5 144t-97 107t-146 42.5q-93 0 -154.5 -41t-97 -105t-49.5 -143t-14 -156z" />
<glyph unicode="e" horiz-adv-x="1041" d="M86 532q0 122 32.5 224t91.5 176t141 115.5t184 41.5q113 0 193 -42.5t131.5 -114t75.5 -167.5t24 -202v-68h-729q0 -84 21.5 -159t66 -131t110.5 -87.5t153 -31.5q37 0 79 7t83 18t77 26.5t59 30.5v-133q-71 -29 -153.5 -44t-156.5 -15q-133 0 -225 42t-149.5 116 t-83 176t-25.5 222zM230 606h584q0 69 -15 136t-47.5 119.5t-84.5 84t-126 31.5q-73 0 -130.5 -33t-97.5 -86t-61.5 -119.5t-21.5 -132.5z" />
<glyph unicode="f" horiz-adv-x="696" d="M41 953v112h213v77q0 83 5 163.5t32.5 144t84 102t159.5 38.5q33 0 69 -4.5t54 -15.5l-6 -116q-21 12 -49 18t-56 6q-67 0 -100 -32.5t-46.5 -80.5t-13.5 -105v-103v-92h238v-112h-238v-953h-133v953h-213z" />
<glyph unicode="g" horiz-adv-x="1159" d="M103 532q0 122 25 224t77.5 176t135.5 115.5t200 41.5q54 0 98.5 -4.5t84 -20.5t75.5 -44.5t74 -75.5h3v121h133v-979q0 -110 -26.5 -207.5t-85.5 -170.5t-154 -116t-233 -43q-52 0 -102 6.5t-91.5 15.5t-75 18t-52.5 15l9 133q60 -33 143 -53.5t169 -20.5q127 0 201 43 t111 117t47 173t10 211h-3q-55 -113 -138.5 -160t-186.5 -47q-128 0 -214 50t-138.5 127.5t-74 172t-21.5 182.5zM248 532q0 -77 16.5 -152.5t52.5 -135.5t94.5 -96t142.5 -36q89 0 150.5 38.5t100 99t55 135t16.5 147.5q0 96 -16 177.5t-52 141.5t-96 93t-149 33 q-93 0 -154.5 -41t-97 -105t-49.5 -143t-14 -156z" />
<glyph unicode="h" horiz-adv-x="1159" d="M165 0v1564h132v-679h3q43 89 129 146.5t205 57.5q106 0 176 -34t111 -94t57.5 -143t16.5 -181v-637h-133v634q0 70 -8 132.5t-34.5 109.5t-75.5 74t-131 27q-89 0 -148.5 -38t-97.5 -96.5t-54 -131t-16 -142.5v-569h-132z" />
<glyph unicode="i" horiz-adv-x="463" d="M165 0v1065h132v-1065h-132zM165 1348v177h132v-177h-132z" />
<glyph unicode="j" horiz-adv-x="463" d="M-59 -325q14 -4 38 -8t42 -4q50 0 78.5 16t43 44t18.5 65t4 79v1198h132v-1216q0 -63 -10.5 -118.5t-37.5 -96t-74 -63t-119 -22.5q-42 0 -70 3.5t-45 8.5v114zM165 1348v177h132v-177h-132z" />
<glyph unicode="k" horiz-adv-x="1041" d="M165 0v1564h132v-936l476 437h168l-520 -472l585 -593h-183l-526 547v-547h-132z" />
<glyph unicode="l" horiz-adv-x="463" d="M165 0v1564h132v-1564h-132z" />
<glyph unicode="m" horiz-adv-x="1738" d="M157 1065h127v-180h3q17 27 38.5 62t58.5 66.5t94 53.5t141 22q36 0 80 -9t84.5 -34t73 -69t46.5 -115h3q18 47 50 88.5t75.5 72.5t98 48.5t116.5 17.5q80 0 143.5 -26.5t106.5 -74t65.5 -112.5t22.5 -144v-732h-133v708q0 56 -11.5 105t-37.5 85.5t-70 57.5t-107 21 q-53 0 -104.5 -23.5t-91.5 -71.5t-64 -121.5t-24 -173.5v-587h-133v708q0 56 -11.5 105t-38 85.5t-70 57.5t-107.5 21q-53 0 -104 -23.5t-91 -71.5t-64.5 -121.5t-24.5 -173.5v-587h-132v814q0 63 -1 125t-7 126z" />
<glyph unicode="n" horiz-adv-x="1159" d="M157 1065h127v-189h3q17 36 41.5 74t64.5 68.5t98.5 50.5t142.5 20q98 0 167 -31t112 -85.5t62.5 -129t19.5 -162.5v-681h-133v646q0 151 -58 241t-191 90q-91 0 -151 -35.5t-97 -92t-52.5 -125.5t-15.5 -137v-587h-132v814q0 63 -1 125t-7 126z" />
<glyph unicode="o" horiz-adv-x="1159" d="M83 532q0 108 29.5 209.5t90.5 178.5t154.5 123t223.5 46q129 0 222.5 -46t154 -123t90 -178.5t29.5 -209.5q0 -109 -29.5 -209.5t-90 -177.5t-154 -123t-222.5 -46q-130 0 -223.5 46t-154.5 123t-90.5 177.5t-29.5 209.5zM230 532q0 -94 21.5 -175t66 -141t110.5 -95 t153 -35q86 0 152 35t110.5 95t67 141t22.5 175q0 92 -22.5 173.5t-67 142t-110.5 95t-152 34.5q-87 0 -153 -34.5t-110.5 -95t-66 -142t-21.5 -173.5z" />
<glyph unicode="p" horiz-adv-x="1159" d="M151 -439v1504h133l-9 -197h3q13 23 36.5 60t63 72.5t98.5 62t143 26.5q118 0 201 -41.5t136 -115.5t77 -176t24 -224q0 -118 -27 -220t-81.5 -177t-137 -117t-192.5 -42q-127 0 -205.5 51.5t-126.5 155.5h-3v-622h-133zM284 532q0 -73 16.5 -152.5t53.5 -144t97.5 -107 t147.5 -42.5q94 0 155 41t96.5 105t50 143.5t14.5 156.5t-14.5 156t-50 143t-96.5 105t-155 41q-87 0 -147.5 -42.5t-97.5 -107t-53.5 -144t-16.5 -151.5z" />
<glyph unicode="q" horiz-adv-x="1159" d="M103 532q0 122 25 224t77.5 176t135.5 115.5t200 41.5q84 0 143 -26t97.5 -60t60.5 -66.5t31 -45.5h3v174h133v-1504h-133v622h-3q-49 -104 -127.5 -155.5t-204.5 -51.5q-111 0 -193 42t-136.5 117t-81.5 177t-27 220zM248 532q0 -77 14 -156.5t49.5 -143.5t97 -105 t154.5 -41q86 0 146 42.5t97 107t53.5 144t16.5 152.5q0 72 -16.5 151.5t-53.5 144t-97 107t-146 42.5q-93 0 -154.5 -41t-97 -105t-49.5 -143t-14 -156z" />
<glyph unicode="r" horiz-adv-x="696" d="M157 1065h130v-206h4q19 45 45 87t60 73.5t76.5 50.5t93.5 19q23 0 48.5 -4t43.5 -8v-136q-21 4 -46.5 8t-48.5 4q-80 0 -131 -40t-80.5 -102t-42 -137.5t-12.5 -148.5v-525h-132v826v75.5t-1 58t-2.5 50.5t-4.5 55z" />
<glyph unicode="s" horiz-adv-x="813" d="M71 24l12 130q62 -30 132 -49t147 -19q47 0 89.5 13t75 38t51 60.5t18.5 80.5q0 62 -37.5 104t-94 74.5t-123 61.5t-123 66t-94.5 88t-38 128q0 79 29.5 134t78 90t111 50t128.5 15q22 0 52 -2.5t64.5 -8.5t72.5 -14.5t74 -21.5l-12 -115q-53 24 -118 37t-121 13 q-49 0 -91.5 -9t-72.5 -29.5t-47.5 -54.5t-17.5 -84t39 -83.5t97.5 -63t127 -59t126.5 -71t97.5 -100.5t39.5 -145q0 -85 -36.5 -142t-91.5 -92.5t-120.5 -51.5t-126.5 -16q-77 0 -151.5 10.5t-145.5 37.5z" />
<glyph unicode="t" horiz-adv-x="696" d="M41 953v112h210v255l133 47v-302h241v-112h-241v-690q0 -37 6.5 -68.5t22.5 -55.5t43 -38.5t66 -14.5q40 0 67 8.5t57 17.5l6 -109q-22 -9 -66.5 -18t-93.5 -9q-87 0 -135.5 28t-72 76t-28.5 113t-5 138v622h-210z" />
<glyph unicode="u" horiz-adv-x="1159" d="M165 384v681h132v-648q0 -76 14 -137t45 -104t79 -66.5t116 -23.5q89 0 149 36.5t96 93t51 125t15 135.5v589h133v-814q0 -61 1.5 -123.5t9.5 -127.5h-130v189h-3q-17 -36 -42 -74t-64 -69t-97 -50.5t-142 -19.5q-98 0 -167.5 31t-113 85t-63 129t-19.5 163z" />
<glyph unicode="v" horiz-adv-x="927" d="M18 1065h147l293 -920h3l309 920h139l-374 -1065h-154z" />
<glyph unicode="w" horiz-adv-x="1623" d="M15 1065h142l282 -920h3l296 920h159l281 -920h6l294 920h130l-349 -1065h-158l-290 921h-3l-292 -921h-160z" />
<glyph unicode="x" horiz-adv-x="927" d="M15 0l375 563l-337 502h163l251 -398l256 398h153l-332 -502l365 -563h-160l-282 458l-296 -458h-156z" />
<glyph unicode="y" horiz-adv-x="927" d="M18 1065h147l296 -888h3l306 888h139l-427 -1222q-20 -56 -44 -109t-56.5 -94.5t-75.5 -66t-99 -24.5q-74 0 -139 18l12 111q20 -7 41 -11t56 -4q42 0 72 16.5t51.5 47t37 72.5t30.5 95l28 94z" />
<glyph unicode="z" horiz-adv-x="927" d="M68 0v112l640 841h-616v112h767v-112l-640 -841h640v-112h-791z" />
<glyph unicode="{" horiz-adv-x="581" d="M80 593v100q42 0 72.5 22t50 60.5t29.5 90t10 108.5v353q0 61 16.5 107t45 77.5t68 48t83.5 16.5h114v-98h-102q-26 0 -43.5 -15.5t-28.5 -43t-16 -63t-5 -72.5v-343q0 -77 -20 -130.5t-49 -89t-59 -53t-48 -22.5v-6q18 -4 48 -22.5t59 -53t49 -89t20 -132.5v-340 q0 -39 5 -74t16 -62t28.5 -43t43.5 -16h102v-99h-118q-43 0 -81 17t-66.5 49.5t-45 79.5t-16.5 107v357q0 55 -10 105t-29.5 88t-50 59.5t-72.5 21.5z" />
<glyph unicode="|" horiz-adv-x="463" d="M160 -522v2086h147v-2086h-147z" />
<glyph unicode="}" horiz-adv-x="581" d="M9 -192h106q25 0 42.5 16t29 43t16 62t4.5 74v343q0 77 20.5 130.5t49 89t58.5 53t49 21.5v6q-19 5 -49 22.5t-58.5 53t-49 89.5t-20.5 133v336q0 40 -4.5 76t-16 63.5t-29 43t-42.5 15.5h-106v98h118q44 0 82.5 -16.5t66.5 -49t44.5 -79t16.5 -107.5v-356 q0 -56 9.5 -106t30 -87.5t51.5 -59.5t73 -22v-100q-42 0 -73 -21.5t-51.5 -60t-30 -90t-9.5 -108.5v-354q0 -60 -16.5 -107t-44.5 -78.5t-67.5 -48t-84.5 -16.5h-115v99z" />
<glyph unicode="~" horiz-adv-x="1251" d="M145 486q17 33 39.5 67t54 62t72.5 45.5t94 17.5q57 0 119 -25t119 -54q61 -30 113 -53.5t94 -23.5q32 0 57.5 14t47.5 35t41 49t37 58l74 -109q-17 -33 -39.5 -66t-54 -60.5t-73.5 -44.5t-93 -17q-57 0 -117 24.5t-121 52.5t-113 51t-94 23q-32 0 -57.5 -13t-47.5 -35 t-41 -49t-37 -54z" />
<glyph unicode="&#xa4;" horiz-adv-x="1268" d="M12 248l224 219q-94 125 -94 291q0 172 94 284l-224 226l115 108l219 -219q119 89 291 89q83 0 159.5 -24.5t124.5 -64.5l227 219l107 -108l-219 -226q89 -119 89 -284q0 -172 -89 -291l219 -219l-107 -115l-227 223q-23 -19 -54.5 -35t-70.5 -31q-80 -27 -159 -27 q-166 0 -291 93l-219 -223zM297 758q0 -142 96 -248q98 -102 244 -102q139 0 239 102q95 96 95 248q0 69 -25 131t-68.5 109t-105.5 75t-135 28q-145 0 -241 -101q-99 -111 -99 -242z" />
<glyph unicode="&#xa9;" horiz-adv-x="1670" d="M80 729q0 156 59.5 293.5t162.5 239.5t240.5 160.5t292.5 58.5q156 0 293 -58.5t240 -160.5t162.5 -239.5t59.5 -293.5q0 -157 -59.5 -293.5t-162.5 -239t-240 -161.5t-293 -59q-155 0 -292.5 59t-240.5 161.5t-162.5 239t-59.5 293.5zM226 729q0 -136 46.5 -253 t128 -203.5t194 -136.5t243.5 -50q130 0 241 50t191.5 136.5t127 203.5t46.5 253q0 135 -46.5 252t-127 203t-191.5 136t-241 50q-131 0 -243.5 -50t-194 -136t-128 -203t-46.5 -252zM411 729q0 101 30 187.5t88 149.5t140.5 98.5t186.5 35.5q71 0 134.5 -20t113.5 -59.5 t83 -99t44 -136.5h-124q-18 90 -84.5 147t-166.5 57q-72 0 -128 -27.5t-94 -75t-57.5 -113t-19.5 -144.5q0 -72 20.5 -138t59.5 -114t96 -77t129 -29q98 0 163 59t82 154h127q-17 -75 -51 -135.5t-83 -102t-109.5 -64t-128.5 -22.5q-102 0 -186 36t-143 99t-90.5 149 t-31.5 185z" />
<glyph unicode="&#xab;" horiz-adv-x="1159" d="M189 563l293 426h124l-278 -426l278 -430h-124zM557 563l290 426h124l-278 -426l278 -430h-124z" />
<glyph unicode="&#xac;" horiz-adv-x="1159" d="M69 448v136h1006v-404h-124v268h-882z" />
<glyph unicode="&#xad;" horiz-adv-x="1251" d="M95 458v141h1059v-141h-1059z" />
<glyph unicode="&#xae;" horiz-adv-x="1670" d="M80 729q0 156 59.5 293.5t162.5 239.5t240.5 160.5t292.5 58.5q156 0 293 -58.5t240 -160.5t162.5 -239.5t59.5 -293.5q0 -157 -59.5 -293.5t-162.5 -239t-240 -161.5t-293 -59q-155 0 -292.5 59t-240.5 161.5t-162.5 239t-59.5 293.5zM226 729q0 -136 46.5 -253 t128 -203.5t194 -136.5t243.5 -50q130 0 241 50t191.5 136.5t127 203.5t46.5 253q0 135 -46.5 252t-127 203t-191.5 136t-241 50q-131 0 -243.5 -50t-194 -136t-128 -203t-46.5 -252zM547 287v885h338q302 0 302 -251q0 -53 -16 -97.5t-46 -77t-72.5 -50.5t-93.5 -18 l251 -391h-153l-243 391h-124v-391h-143zM690 791h172q42 0 75.5 5.5t57 20.5t35.5 41.5t12 68.5q0 38 -15 63.5t-41 40t-58.5 20.5t-65.5 6h-172v-266z" />
<glyph unicode="&#xb0;" horiz-adv-x="816" d="M100 1077q0 60 23 116t64 97.5t96 66.5t119 25q65 0 121.5 -24.5t98 -65t65.5 -96.5t24 -119q0 -64 -24 -120t-65.5 -97.5t-98 -65.5t-121.5 -24q-62 0 -116.5 23.5t-96 65t-65.5 97.5t-24 121zM183 1077q0 -46 17 -86.5t46.5 -71t69.5 -48.5t86 -18q92 0 158 65 q68 70 68 159q0 45 -18 85t-49 69.5t-72 47t-87 17.5q-47 0 -87 -17t-69.5 -46.5t-46 -69.5t-16.5 -86z" />
<glyph unicode="&#xb6;" horiz-adv-x="1097" d="M0 1296q0 231 142 345q136 100 374 100h588v-62h-154v-2047h-94v2047h-219v-2047h-83v1215q-254 0 -397 94q-157 111 -157 355z" />
<glyph unicode="&#xb7;" horiz-adv-x="510" d="M145 678q0 45 31 76t81 31q47 0 77.5 -32.5t30.5 -74.5q0 -47 -32.5 -79.5t-75.5 -32.5q-50 0 -81 31t-31 81z" />
<glyph unicode="&#xbb;" horiz-adv-x="1159" d="M189 133l278 430l-278 426h124l293 -426l-293 -430h-124zM557 133l275 430l-275 426h121l293 -426l-293 -430h-121z" />
<glyph unicode="&#xd7;" horiz-adv-x="1251" d="M148 154l377 378l-377 377l103 103l377 -378l375 378l104 -103l-378 -377l378 -378l-104 -101l-375 377l-377 -377z" />
<glyph unicode="&#xf7;" horiz-adv-x="1251" d="M95 458v141h1059v-141h-1059zM492 118q0 27 11.5 52t29.5 44t42 29.5t50 10.5q27 0 51.5 -11.5t43 -30.5t30 -43t11.5 -51q0 -24 -11.5 -48.5t-30 -43t-43 -30t-51.5 -11.5q-26 0 -50 11.5t-42 29.5t-29.5 42t-11.5 50zM492 941q0 27 11.5 51t29.5 42t42 29t50 11 q27 0 51.5 -11t43 -29t30 -42t11.5 -51q0 -26 -11.5 -50t-30 -42.5t-43 -29.5t-51.5 -11q-26 0 -50 10.5t-42 28.5t-29.5 42.5t-11.5 51.5z" />
<glyph unicode="&#xe00;" horiz-adv-x="309" />
<glyph unicode="&#xe01;" horiz-adv-x="1233" d="M109 0v826q0 82 30 159.5t92.5 139.5t157 99.5t224.5 37.5t226 -37.5t159.5 -99.5t95 -139.5t31.5 -159.5v-826h-139v808q0 86 -30 148.5t-81.5 103.5t-119.5 61.5t-142 20.5t-140.5 -20.5t-116 -61.5t-79 -103.5t-29.5 -148.5v-808h-139z" />
<glyph unicode="&#xe02;" horiz-adv-x="1082" d="M109 362v346q0 55 14 90.5t37 61t48 43t47.5 34t37 37t14.5 50.5q0 31 -12.5 51t-34 30.5t-53.5 13.5t-71 3h-27v115h113q47 0 87 -8.5t70 -29t48 -54.5t21 -85q2 -60 -11.5 -99.5t-36 -66.5t-49 -47t-49.5 -41t-38.5 -49t-15.5 -70v-306q0 -88 26 -143t68 -87t94 -44 t105 -12q54 0 107 12t94.5 44t67 87t25.5 143v856h139v-875q0 -187 -111 -286.5t-322 -99.5q-207 0 -319.5 99.5t-112.5 286.5z" />
<glyph unicode="&#xe03;" horiz-adv-x="1082" d="M77 1098v139h88l80 -62l83 62h108v-121q0 -65 -14 -106t-34.5 -68t-45.5 -46t-45.5 -40.5t-34.5 -52t-14 -80.5v-342q0 -88 26 -143t68 -87t94 -44t105 -12q54 0 107 12t94.5 44t67 87t25.5 143v856h139v-875q0 -187 -111 -286.5t-322 -99.5q-207 0 -319.5 99.5 t-112.5 286.5v405q0 48 14 81.5t34.5 57t45.5 41.5t45.5 35.5t34.5 38.5t14 53v24h-220z" />
<glyph unicode="&#xe04;" horiz-adv-x="1233" d="M109 0v826q0 82 30 159.5t92.5 139.5t157 99.5t224.5 37.5t226 -37.5t159.5 -99.5t95 -139.5t31.5 -159.5v-826h-139v808q0 86 -30 148.5t-81.5 103.5t-119.5 61.5t-142 20.5t-140.5 -20.5t-116 -61.5t-79 -103.5t-29.5 -148.5v-144h321v-129h-321v-535h-139z" />
<glyph unicode="&#xe05;" horiz-adv-x="1233" d="M109 0v927q0 71 28 129t73 102t103 70.5t120 33.5l183 -158l184 158q62 -7 120 -33.5t103.5 -70.5t73.5 -102t28 -129v-927h-139v921q0 41 -13 75t-34 60.5t-48 45t-56 27.5l-219 -196l-217 196q-31 -7 -58 -25t-48 -45.5t-33 -62t-12 -75.5v-257h290v-123h-290v-541 h-139z" />
<glyph unicode="&#xe06;" horiz-adv-x="1233" d="M77 1098v139h88l80 -62l83 62h108v-121q0 -65 -14 -106t-34.5 -68t-45.5 -46t-45.5 -40.5t-34.5 -52t-14 -80.5v-253q0 -65 33 -130t90.5 -118t134.5 -86t164 -33q70 0 128 19.5t99.5 60t65 102t23.5 145.5v807h139v-832q0 -89 -25.5 -166t-78 -134.5t-134 -90 t-191.5 -32.5q-80 0 -149.5 18t-126 48.5t-100.5 67.5t-72 76v-192h-139v767q0 48 14 81.5t34.5 57t45.5 41.5t45.5 35.5t34.5 38.5t14 53v24h-220z" />
<glyph unicode="&#xe07;" horiz-adv-x="1147" d="M53 1237h148l155 -1116h263q51 0 106.5 17.5t100.5 74t74.5 165t29.5 289.5q0 133 -23.5 222t-67 141.5t-107 72t-145.5 13.5v121h94q106 0 180 -39.5t120.5 -113.5t68 -178t21.5 -233q0 -326 -97 -499.5t-304 -173.5h-448z" />
<glyph unicode="&#xe08;" horiz-adv-x="1141" d="M24 625v110h127q59 0 85.5 -24t35.5 -77l93 -513h170q63 0 132.5 25t126 86t93.5 163t37 254q0 133 -32.5 226.5t-87.5 152.5t-126.5 86.5t-149.5 27.5q-54 0 -110.5 -17t-105 -48.5t-82.5 -77t-44 -102.5h-151q12 80 55 147t109.5 115.5t151.5 75.5t184 27 q132 0 231 -45t165.5 -126t100 -193.5t33.5 -245.5q0 -152 -35 -273.5t-101.5 -205.5t-162.5 -128.5t-219 -44.5h-308l-97 525q-5 28 -10 46.5t-15.5 31t-28 17.5t-44.5 5h-20z" />
<glyph unicode="&#xe09;" horiz-adv-x="1209" d="M30 616v119h103q121 0 121 -116v-232q0 -161 79 -226.5t227 -65.5q82 0 154.5 33.5t127.5 87.5t87.5 121.5t32.5 135.5v330q0 94 -33.5 159t-87.5 105.5t-123.5 59t-142.5 18.5q-68 0 -130.5 -17.5t-113 -50t-87 -78.5t-49.5 -102h-151q16 81 63 149t117 116t161.5 74 t198.5 26q114 0 209 -30t163.5 -85t106.5 -132t38 -171v-844h-139v192q-29 -39 -70.5 -76t-95 -67.5t-120.5 -48.5t-148 -18q-110 0 -188.5 28.5t-128 79t-73 120t-23.5 152.5v173q0 48 -13.5 64.5t-48.5 16.5h-23z" />
<glyph unicode="&#xe0a;" horiz-adv-x="1132" d="M109 0v1237h139v-1122h262q77 0 148 14t125.5 52.5t87 107.5t32.5 178q0 83 -28 148.5t-76.5 111t-113 69.5t-138.5 24v110q72 -3 137.5 15t115.5 56.5t78 97.5t25 138h151q6 -62 -8.5 -121t-50 -107.5t-89.5 -82.5t-127 -47v-3q59 -23 109.5 -60t87.5 -90t57.5 -123 t20.5 -161q0 -117 -34.5 -201.5t-97.5 -140t-147.5 -82t-184.5 -24.5z" />
<glyph unicode="&#xe0b;" horiz-adv-x="1132" d="M77 1098v139h88l80 -62l83 62h108v-121q0 -65 -14 -106t-34.5 -68t-45.5 -46t-45.5 -40.5t-34.5 -52t-14 -80.5v-608h262q77 0 148 14t125.5 52.5t87 107.5t32.5 178q0 83 -28 148.5t-76.5 111t-113 69.5t-138.5 24v110q72 -3 137.5 15t115.5 56.5t78 97.5t25 138h151 q6 -62 -8.5 -121t-50 -107.5t-89.5 -82.5t-127 -47v-3q59 -23 109.5 -60t87.5 -90t57.5 -123t20.5 -161q0 -117 -34.5 -201.5t-97.5 -140t-147.5 -82t-184.5 -24.5l-481 6v767q0 48 14 81.5t34.5 57t45.5 41.5t45.5 35.5t34.5 38.5t14 53v24h-220z" />
<glyph unicode="&#xe0c;" horiz-adv-x="2038" d="M74 891q15 84 62.5 153t118.5 117.5t162.5 74.5t195.5 26q107 0 201 -28t162.5 -80.5t108.5 -129.5t40 -174v-411q0 -78 28 -140.5t77 -106t114.5 -66.5t142.5 -23q61 0 116 18t96.5 58t66.5 101t25 147v810h139v-847q0 -93 -29.5 -167.5t-84.5 -128t-132 -83t-172 -29.5 q-138 0 -234 46t-153 120v-148h-139v829q0 82 -30 140.5t-81.5 97t-119.5 57t-142 18.5q-66 0 -128 -14.5t-114 -42.5t-90.5 -69t-58.5 -95l174 -107q-23 -9 -48.5 -30t-47.5 -47t-37 -54t-15 -52v-510h185v-121h-324v619q0 27 11 55t29.5 51.5t41 42.5t45.5 29z" />
<glyph unicode="&#xe0d;" horiz-adv-x="2006" d="M74 891q15 84 62.5 153t118.5 117.5t162.5 74.5t195.5 26q107 0 201 -28t162.5 -80.5t108.5 -129.5t40 -174v-448q0 -97 25 -154.5t64 -87.5t89.5 -39t103.5 -9q61 0 123.5 23.5t114 66.5t83 104.5t31.5 138.5v792h139v-1101q0 -91 -22.5 -167t-76 -130.5t-141.5 -85.5 t-217 -31h-455v118h442q87 0 149.5 19.5t102.5 53.5t59.5 81t19.5 101v53q-23 -23 -56.5 -51t-82 -51t-113.5 -39t-150 -16q-77 0 -144 21t-117.5 65t-80 111t-29.5 161v480q0 82 -30 140.5t-81.5 97t-119.5 57t-142 18.5q-66 0 -128 -14.5t-114 -42.5t-90.5 -69t-58.5 -95 l174 -107q-23 -9 -48.5 -30t-47.5 -47t-37 -54t-15 -52v-510h185v-121h-324v619q0 27 11 55t29.5 51.5t41 42.5t45.5 29z" />
<glyph unicode="&#xe0e;" horiz-adv-x="1248" d="M0 0v121h124v498q0 27 11 55t29.5 51.5t41 42.5t45.5 29l-162 94q15 84 62.5 153t118.5 117.5t162.5 74.5t195.5 26q107 0 201 -28t163.5 -80.5t109.5 -129.5t40 -174v-1267h-375l-183 145l-179 -145h-281v126h247l213 161l213 -161h206v1120q0 82 -31 140.5t-82.5 97 t-119.5 57t-142 18.5q-66 0 -128 -14.5t-113.5 -42.5t-90 -69t-57.5 -95l172 -107q-23 -9 -48.5 -30t-47.5 -47t-37 -54t-15 -52v-631h-263z" />
<glyph unicode="&#xe0f;" horiz-adv-x="1248" d="M0 0v121h124v498q0 27 11 55t29.5 51.5t41 42.5t45.5 29l-162 94q15 84 62.5 153t118.5 117.5t162.5 74.5t195.5 26q107 0 201 -28t163.5 -80.5t109.5 -129.5t40 -174v-1267h-345l-181 133l-180 -133h-312v269h133v-143h145l214 152l213 -152h174v1120q0 82 -31 140.5 t-82.5 97t-119.5 57t-142 18.5q-66 0 -128 -14.5t-113.5 -42.5t-90 -69t-57.5 -95l172 -107q-23 -9 -48.5 -30t-47.5 -47t-37 -54t-15 -52v-631h-263z" />
<glyph unicode="&#xe10;" horiz-adv-x="1141" d="M24 625v110h127q59 0 85.5 -24t35.5 -77l93 -513h170q63 0 132.5 25t126 86t93.5 163t37 254q0 133 -32.5 226.5t-87.5 152.5t-126.5 86.5t-149.5 27.5q-54 0 -110.5 -17t-105 -48.5t-82.5 -77t-44 -102.5h-151q12 80 55 147t109.5 115.5t151.5 75.5t184 27 q75 0 137.5 -14t115.5 -42q42 23 65 61t26 63h178q-3 -27 -16 -55t-34 -53.5t-52.5 -46.5t-72.5 -33q90 -82 136.5 -206.5t46.5 -283.5q0 -152 -35 -273.5t-101.5 -205.5t-162.5 -128.5t-219 -44.5h-308l-97 525q-5 28 -10 46.5t-15.5 31t-28 17.5t-44.5 5h-20zM109 -260 h216l197 139l198 -139h148v139h141v-266h-316l-171 121l-170 -121h-243v127z" />
<glyph unicode="&#xe11;" horiz-adv-x="1230" d="M77 1098v139h88l80 -62l83 62h108v-121q0 -65 -14 -106t-34.5 -68t-45.5 -46t-45.5 -40.5t-34.5 -52t-14 -80.5v-569l608 1083h77q106 0 147.5 -47.5t41.5 -132.5v-1057h-139v1039q0 38 -12 59t-41 21l-633 -1119h-188v767q0 48 14 81.5t34.5 57t45.5 41.5t45.5 35.5 t34.5 38.5t14 53v24h-220z" />
<glyph unicode="&#xe12;" horiz-adv-x="2086" d="M77 606q0 140 40 258.5t114 204t176.5 131.5t229.5 43l189 -160l174 154h175v-798q0 -78 28 -140.5t77 -106t114.5 -66.5t142.5 -23q61 0 115 18t96.5 58t67.5 101t25 147v810h139v-847q0 -93 -29.5 -167.5t-85 -128t-132.5 -83t-172 -29.5q-137 0 -233.5 46t-152.5 120 v-148h-139v1095l-210 -195l-239 213q-62 1 -127.5 -31.5t-119 -95t-87.5 -154.5t-34 -210q0 -149 47.5 -251t123 -162t170.5 -78.5t189 -3.5v-127q-162 -20 -287 18t-210.5 121t-130 203t-44.5 264z" />
<glyph unicode="&#xe13;" horiz-adv-x="2038" d="M74 891q15 84 62.5 153t118.5 117.5t162.5 74.5t195.5 26q107 0 201 -28t162.5 -80.5t108.5 -129.5t40 -174v-423q0 -86 23.5 -147t65 -101t96.5 -58t118 -18q77 0 143.5 21.5t115.5 65t76.5 106t27.5 143.5v798h139v-1237h-139v148q-56 -74 -152.5 -120t-234.5 -46 q-96 0 -173 29.5t-131.5 83t-84 128t-29.5 167.5v439q0 82 -30 140.5t-81.5 97t-119.5 57t-142 18.5q-66 0 -128 -14.5t-114 -42.5t-90.5 -69t-58.5 -95l174 -107q-23 -9 -48.5 -30t-47.5 -47t-37 -54t-15 -52v-510h185v-121h-324v619q0 27 11 55t29.5 51.5t41 42.5t45.5 29 z" />
<glyph unicode="&#xe14;" horiz-adv-x="1251" d="M77 593q0 136 39.5 254.5t115 206.5t184 137.5t248.5 48.5l481 -3v-1237h-139v1113l-307 3q-98 1 -185 -29t-152.5 -93.5t-104 -160t-38.5 -227.5q0 -142 44 -236.5t111.5 -149.5t151.5 -76.5t164 -16.5v-127q-127 -11 -238.5 24.5t-194.5 112t-131.5 192t-48.5 264.5z " />
<glyph unicode="&#xe15;" horiz-adv-x="1283" d="M77 606q0 140 40 258.5t114 204t176.5 131.5t229.5 43l189 -160l174 154h175v-1237h-139v1095l-210 -195l-239 213q-62 1 -127.5 -31.5t-119 -95t-87.5 -154.5t-34 -210q0 -149 47.5 -251t123 -162t170.5 -78.5t189 -3.5v-127q-162 -20 -287 18t-210.5 121t-130 203 t-44.5 264z" />
<glyph unicode="&#xe16;" horiz-adv-x="1233" d="M74 891q15 84 62.5 153t118.5 117.5t162.5 74.5t195.5 26q107 0 201 -28t162.5 -80.5t108.5 -129.5t40 -174v-850h-139v829q0 82 -30 140.5t-81.5 97t-119.5 57t-142 18.5q-66 0 -128 -14.5t-114 -42.5t-90.5 -69t-58.5 -95l174 -107q-23 -9 -48.5 -30t-47.5 -47t-37 -54 t-15 -52v-510h185v-121h-324v619q0 27 11 55t29.5 51.5t41 42.5t45.5 29z" />
<glyph unicode="&#xe17;" horiz-adv-x="1233" d="M109 0v1237h139v-192q28 38 72 75.5t100.5 68t126 48.5t149.5 18q110 0 191.5 -32.5t134 -89t78 -134.5t25.5 -167v-832h-139v808q0 83 -23.5 145t-65 102.5t-99.5 60.5t-128 20q-87 0 -164 -33.5t-134.5 -86.5t-90.5 -118.5t-33 -130.5v-767h-139z" />
<glyph unicode="&#xe18;" horiz-adv-x="1147" d="M83 918q0 77 35.5 140.5t99 109t149.5 70t187 24.5q110 0 200 -24.5t156.5 -72.5t107.5 -115t50 -153h-153q-7 60 -39 105.5t-80.5 76.5t-110 47t-131.5 16q-77 0 -139 -18.5t-105 -48t-65.5 -69.5t-22.5 -82q0 -57 35.5 -89t94.5 -50t133.5 -28t152.5 -21t152.5 -30.5 t133.5 -57.5t94.5 -100t35.5 -158v-390h-962v557h141v-436h682v260q0 74 -35.5 118.5t-94.5 70t-133.5 37.5t-152.5 23.5t-152.5 26.5t-133.5 45t-94.5 81.5t-35.5 134.5z" />
<glyph unicode="&#xe19;" horiz-adv-x="1233" d="M109 405v832h42q42 0 69.5 -27.5t27.5 -73.5v-706q0 -84 23 -145.5t65 -102t100 -60t127 -19.5q88 0 165 33t134.5 86t90.5 118t33 130v767h139v-1237h-139v192q-29 -39 -72.5 -76t-100 -67.5t-126 -48.5t-149.5 -18q-112 0 -193 32.5t-133 90t-77.5 134.5t-25.5 166z " />
<glyph unicode="&#xe1a;" horiz-adv-x="1233" d="M109 411v826h42q42 0 69.5 -27.5t27.5 -73.5v-706q0 -86 29.5 -149.5t79 -104t116 -61t140.5 -20.5t142 20.5t119.5 61t81.5 104t30 149.5v807h139v-826q0 -86 -31.5 -165.5t-95 -139t-159.5 -95t-226 -35.5t-224.5 35.5t-157 95t-92.5 139t-30 165.5z" />
<glyph unicode="&#xe1b;" horiz-adv-x="1233" d="M109 411v826h42q42 0 69.5 -27.5t27.5 -73.5v-706q0 -86 29.5 -149.5t79 -104t116 -61t140.5 -20.5t142 20.5t119.5 61t81.5 104t30 149.5v1116h139v-1135q0 -86 -31.5 -165.5t-95 -139t-159.5 -95t-226 -35.5t-224.5 35.5t-157 95t-92.5 139t-30 165.5z" />
<glyph unicode="&#xe1c;" horiz-adv-x="1440" d="M50 1237h281v-112h-133l173 -906l299 1018h106l301 -1018l191 1018h130l-238 -1237h-136l-298 995h-3l-299 -995h-137z" />
<glyph unicode="&#xe1d;" horiz-adv-x="1440" d="M50 1237h281v-112h-133l173 -906l299 1018h106l301 -1018l250 1327h130l-297 -1546h-136l-298 995h-3l-299 -995h-137z" />
<glyph unicode="&#xe1e;" horiz-adv-x="1440" d="M50 1237h130l191 -1018l299 1018h106l301 -1018l191 1018h130l-238 -1237h-136l-298 995h-3l-299 -995h-137z" />
<glyph unicode="&#xe1f;" horiz-adv-x="1440" d="M50 1237h130l191 -1018l299 1018h106l301 -1018l250 1327h130l-297 -1546h-136l-298 995h-3l-299 -995h-137z" />
<glyph unicode="&#xe20;" horiz-adv-x="1248" d="M0 0v121h124v498q0 27 11 55t29.5 51.5t41 42.5t45.5 29l-162 94q15 84 62.5 153t118.5 117.5t162.5 74.5t195.5 26q107 0 201 -28t163.5 -80.5t109.5 -129.5t40 -174v-850h-139v829q0 82 -31 140.5t-82.5 97t-119.5 57t-142 18.5q-66 0 -128 -14.5t-113.5 -42.5t-90 -69 t-57.5 -95l172 -107q-23 -9 -48.5 -30t-47.5 -47t-37 -54t-15 -52v-631h-263z" />
<glyph unicode="&#xe21;" horiz-adv-x="1233" d="M109 0v1237h42q42 0 69.5 -27.5t27.5 -73.5v-666q0 -65 33 -130t90.5 -118t134.5 -86t164 -33q70 0 128 19.5t99.5 60t65 102t23.5 145.5v807h139v-832q0 -89 -25.5 -166t-78 -134.5t-134 -90t-191.5 -32.5q-80 0 -149.5 18t-126 48.5t-100.5 67.5t-72 76v-192h-139z" />
<glyph unicode="&#xe22;" horiz-adv-x="1221" d="M62 346q0 68 23.5 124.5t62.5 100.5t89.5 71t105.5 36v3q-47 3 -91.5 20.5t-79.5 50t-56 80.5t-21 115q0 68 26.5 123t72 92.5t105 58t125.5 19.5l130 -3v-124l-44 3q-48 3 -95.5 -5.5t-85.5 -31t-61 -58.5t-23 -88q0 -62 27.5 -99.5t71.5 -59t100 -29t110 -7.5v-122 q-74 2 -137.5 -15t-110 -51t-73 -84.5t-26.5 -113.5q0 -82 34 -128t87 -70t117.5 -30t126.5 -6l402 3v1116h139v-1237l-665 -3q-98 0 -170.5 25.5t-120 72.5t-71.5 110.5t-24 140.5z" />
<glyph unicode="&#xe23;" horiz-adv-x="1162" d="M65 374h148q4 -84 45 -139t98.5 -87t121 -44t115.5 -12q68 0 132.5 16t114 47.5t80 78.5t30.5 109q0 80 -37 125t-98.5 70t-139 35.5t-159 19t-159.5 23t-139 46t-98 88t-37 150.5q0 80 37 146.5t102 115t152.5 74.5t188.5 26q104 0 195.5 -24.5t160.5 -72.5t112 -115 t52 -153h-142q-9 68 -47.5 115t-93 76t-117 43t-120.5 14q-72 0 -135 -18.5t-109 -51t-71.5 -77t-25.5 -95.5q0 -66 37 -101.5t98 -54t139 -25t159.5 -15.5t159 -26.5t139 -57t98.5 -106.5t37 -174q0 -91 -35.5 -159.5t-101.5 -114.5t-157 -69.5t-205 -23.5q-105 0 -198 24 t-164 74t-114 124.5t-49 175.5z" />
<glyph unicode="&#xe24;" horiz-adv-x="1233" d="M74 891q15 84 62.5 153t118.5 117.5t162.5 74.5t195.5 26q107 0 201 -28t162.5 -80.5t108.5 -129.5t40 -174v-1221h-139v1200q0 82 -30 140.5t-81.5 97t-119.5 57t-142 18.5q-66 0 -128 -14.5t-114 -42.5t-90.5 -69t-58.5 -95l174 -107q-23 -9 -48.5 -30t-47.5 -47 t-37 -54t-15 -52v-510h185v-121h-324v619q0 27 11 55t29.5 51.5t41 42.5t45.5 29z" />
<glyph unicode="&#xe25;" horiz-adv-x="1224" d="M77 399q0 99 38 183.5t105 146t160 96t204 34.5q64 0 122 -10.5t109.5 -28t93 -40.5t68.5 -51v136q0 73 -29.5 125.5t-79.5 86.5t-116 51t-139 17q-68 0 -127 -17t-105.5 -48t-80 -74t-46.5 -94h-148q10 70 51.5 133t106.5 111.5t152 77t190 28.5q117 0 212.5 -27 t161 -77t101 -120t35.5 -156v-882h-139v544q-17 33 -48.5 67t-79 62t-113.5 45t-149 17q-69 0 -136 -21.5t-120 -64t-85.5 -105t-32.5 -145.5q0 -103 42 -164t105 -92t134.5 -34t130.5 12v-127q-134 -23 -236 0t-171.5 79.5t-105 141t-35.5 184.5z" />
<glyph unicode="&#xe26;" horiz-adv-x="1248" d="M0 0v121h124v498q0 27 11 55t29.5 51.5t41 42.5t45.5 29l-162 94q15 84 62.5 153t118.5 117.5t162.5 74.5t195.5 26q107 0 201 -28t163.5 -80.5t109.5 -129.5t40 -174v-1221h-139v1200q0 82 -31 140.5t-82.5 97t-119.5 57t-142 18.5q-66 0 -128 -14.5t-113.5 -42.5 t-90 -69t-57.5 -95l172 -107q-23 -9 -48.5 -30t-47.5 -47t-37 -54t-15 -52v-631h-263z" />
<glyph unicode="&#xe27;" horiz-adv-x="1165" d="M65 346h157q11 -56 43 -100t77.5 -75t100.5 -46.5t111 -15.5t121.5 17t123 71t96 154t38.5 268q0 112 -17.5 192.5t-46.5 137.5t-68.5 92.5t-81 55t-84.5 26t-81 6.5q-60 0 -114.5 -18.5t-98.5 -50.5t-74 -75.5t-41 -93.5h-158q15 80 56 148t104 117.5t147 77.5t185 28 q136 0 235 -44.5t164.5 -128t97.5 -203t32 -267.5q0 -149 -32 -268.5t-97 -202.5t-164.5 -127.5t-235.5 -44.5q-102 0 -187.5 28t-149.5 77t-104 117t-54 148z" />
<glyph unicode="&#xe28;" horiz-adv-x="1233" d="M109 0v826q0 82 30 159.5t92.5 139.5t157 99.5t224.5 37.5q79 0 143.5 -13.5t119.5 -38.5q35 22 53 57t18 63h178q-8 -46 -42.5 -98.5t-102.5 -86.5q75 -64 110 -147t35 -172v-826h-139v808q0 86 -30 148.5t-81.5 103.5t-119.5 61.5t-142 20.5t-140.5 -20.5t-116 -61.5 t-79 -103.5t-29.5 -148.5v-144h321v-129h-321v-535h-139z" />
<glyph unicode="&#xe29;" horiz-adv-x="1233" d="M109 411v826h139v-807q0 -86 29.5 -149.5t79 -104t116 -61t140.5 -20.5t142 20.5t119.5 61t81.5 104t30 149.5v213q-12 -44 -48.5 -73t-84.5 -29q-29 0 -54.5 10.5t-44.5 30t-29.5 44.5t-10.5 55q0 29 10.5 54.5t29.5 44.5t44.5 29.5t54.5 10.5q48 0 84.5 -29.5 t48.5 -76.5v523h139v-826q0 -86 -31.5 -165.5t-95 -139t-159.5 -95t-226 -35.5t-224.5 35.5t-157 95t-92.5 139t-30 165.5z" />
<glyph unicode="&#xe2a;" horiz-adv-x="1224" d="M77 399q0 99 38 183.5t105 146t160 96t204 34.5q64 0 122 -10.5t109.5 -28t93 -40.5t68.5 -51v136q0 73 -29.5 125.5t-79.5 86.5t-116 51t-139 17q-68 0 -127 -17t-105.5 -48t-80 -74t-46.5 -94h-148q10 70 51.5 133t106.5 111.5t152 77t190 28.5q80 0 147 -12t126 -34 q35 18 53 51t18 63h179q-4 -22 -13 -48t-25.5 -50t-42.5 -44.5t-62 -33.5q130 -105 130 -272v-882h-139v544q-17 33 -48.5 67t-79 62t-113.5 45t-149 17q-69 0 -136 -21.5t-120 -64t-85.5 -105t-32.5 -145.5q0 -103 42 -164t105 -92t134.5 -34t130.5 12v-127 q-134 -23 -236 0t-171.5 79.5t-105 141t-35.5 184.5z" />
<glyph unicode="&#xe2b;" horiz-adv-x="1233" d="M109 0v1237h139v-390q21 33 55.5 74t80.5 78t103 67t122 44h-192v127h708v-127h-322q83 -15 144.5 -52t100.5 -91.5t58 -124t19 -146.5v-696h-139v670q0 170 -76 250t-217 80q-91 0 -171.5 -46t-141.5 -114t-96.5 -146t-35.5 -143v-551h-139z" />
<glyph unicode="&#xe2c;" horiz-adv-x="1440" d="M50 1237h130l188 -1098l302 1098h106l304 -1098l136 794q18 110 -27.5 173.5t-140.5 87.5v90q63 0 114.5 21t87 57t53.5 83.5t14 100.5h134q6 -57 -10.5 -110t-50 -94.5t-81 -70t-103.5 -34.5v-3q32 -11 61.5 -33.5t50.5 -55t31 -75t2 -90.5l-167 -980h-181l-277 995h-3 l-278 -995h-182z" />
<glyph unicode="&#xe2d;" horiz-adv-x="1339" d="M77 622q0 26 1.5 46.5t1.5 33.5h581v-130h-428q3 -119 43.5 -206.5t103 -144t139 -84.5t151.5 -28q79 0 158.5 26.5t141 86.5t101 158.5t39.5 241.5q0 144 -41.5 241t-106.5 156t-142 84.5t-150 25.5q-64 0 -125.5 -18t-113.5 -52t-93.5 -84.5t-65.5 -115.5l-145 44 q27 79 77.5 145t120 114t156.5 74t189 26q133 0 242.5 -46t187.5 -129.5t120 -201.5t42 -263t-42 -264t-119 -204t-186.5 -131.5t-244.5 -46.5q-134 0 -243.5 46.5t-187 131.5t-120 204t-42.5 264z" />
<glyph unicode="&#xe2e;" horiz-adv-x="1339" d="M77 622q0 26 1.5 46.5t1.5 33.5h581v-130h-428q3 -119 43.5 -206.5t103 -144t139 -84.5t151.5 -28q79 0 158.5 26.5t141 86.5t101 158.5t39.5 241.5q0 144 -41.5 241t-106.5 156t-142 84.5t-150 25.5q-64 0 -125.5 -18t-113.5 -52t-93.5 -84.5t-65.5 -115.5l-145 44 q27 79 77.5 145t120 114t156.5 74t189 26q71 0 134.5 -13.5t119.5 -35.5q30 21 47.5 55t17.5 62h180q-8 -43 -41 -94.5t-98 -84.5q112 -85 172 -220t60 -309q0 -145 -42 -264t-119 -204t-186.5 -131.5t-244.5 -46.5q-134 0 -243.5 46.5t-187 131.5t-120 204t-42.5 264z" />
<glyph unicode="&#xe2f;" horiz-adv-x="1150" d="M77 1033q0 45 16.5 83.5t46 66.5t69 43t85.5 14l84 -3v-118l-32 3q-24 3 -47 -3t-41 -19t-28.5 -31t-10.5 -39q0 -73 62 -110.5t164 -37.5q65 0 137.5 24t136 70t111 112t64.5 149h148v-1237h-139v1018q-32 -44 -75.5 -88.5t-104 -81.5t-140.5 -60.5t-181 -23.5 q-74 0 -134.5 19.5t-103 55t-65 84.5t-22.5 110z" />
<glyph unicode="&#xe30;" horiz-adv-x="735" d="M109 154v251h139v-124h380v-127h-519zM109 832v251h139v-124h380v-127h-519z" />
<glyph unicode="&#xe31;" d="M-609 1392v237h139v-113h745v-124h-884z" />
<glyph unicode="&#xe32;" horiz-adv-x="690" d="M47 1107v130h104q118 0 200 -35t133.5 -97.5t74 -150t22.5 -193.5v-761h-139v735q0 88 -14 156.5t-49.5 116t-94.5 73.5t-148 26h-89z" />
<glyph unicode="&#xe33;" horiz-adv-x="690" d="M-316 1528q0 48 37 84.5t102 36.5q67 0 101.5 -36.5t34.5 -84.5t-34.5 -84.5t-101.5 -36.5q-65 0 -102 36.5t-37 84.5zM47 1107v130h104q118 0 200 -35t133.5 -97.5t74 -150t22.5 -193.5v-761h-139v735q0 88 -14 156.5t-49.5 116t-94.5 73.5t-148 26h-89z" />
<glyph unicode="&#xe34;" d="M-1104 1392v124h995v-35q0 -89 -133 -89h-862z" />
<glyph unicode="&#xe35;" d="M-1104 1392v124h856v154h139v-278h-995z" />
<glyph unicode="&#xe36;" d="M-1104 1392v124h764q3 73 44.5 110.5t118.5 37.5q76 0 116 -40t40 -96q0 -26 -10.5 -50t-31 -43.5t-49 -31t-65.5 -11.5h-927z" />
<glyph unicode="&#xe37;" d="M-1104 1392v124h625v154h139v-154h92v154h139v-278h-995z" />
<glyph unicode="&#xe38;" d="M-399 -92h290v-372h-139v242h-151v130z" />
<glyph unicode="&#xe39;" d="M-684 -92h205v-124q0 -33 8.5 -53.5t23 -32t35.5 -16t47 -4.5q25 0 46.5 4.5t37 16t24.5 32t9 53.5v124h139v-124q0 -124 -62.5 -170.5t-193.5 -46.5q-136 0 -195 48t-59 146v32h-65v115z" />
<glyph unicode="&#xe3a;" d="M-291 -198q0 47 33 76.5t81 29.5q49 0 82 -29.5t33 -76.5q0 -44 -33 -75t-82 -31q-48 0 -81 31t-33 75z" />
<glyph unicode="&#xe3f;" horiz-adv-x="1159" d="M168 0v1457h333v151h108v-157q74 -7 140 -29t116 -64.5t79.5 -106t29.5 -153.5q0 -141 -64 -223t-202 -108v-6q70 -12 127 -40.5t98 -73.5t63 -103t22 -130q0 -98 -31 -168.5t-86 -119.5t-130 -77t-162 -40v-195h-108v186h-43h-290zM313 124h148h40v572h-62h-126v-572z M316 820h160h25v513h-185v-513zM609 136q54 10 102.5 30t84.5 52.5t58 78.5t22 111q0 71 -20.5 120t-56.5 81.5t-85.5 50.5t-104.5 27v-551zM609 832q43 9 84 27t72 49t49 75.5t18 108.5q0 60 -19.5 101.5t-51.5 69t-72 42.5t-80 22v-495z" />
<glyph unicode="&#xe40;" horiz-adv-x="478" d="M171 0v1237h139v-1237h-139z" />
<glyph unicode="&#xe41;" horiz-adv-x="773" d="M171 0v1237h139v-1237h-139zM464 0v1237h138v-1237h-138z" />
<glyph unicode="&#xe42;" horiz-adv-x="540" d="M86 1658q0 83 62 131.5t165 48.5q45 0 80.5 -4t70 -9t71 -9t84.5 -4q70 0 119 9v-121q-36 -9 -95 -9q-80 0 -154.5 10t-133 13t-94 -10t-35.5 -58q0 -27 17.5 -47.5t39.5 -43t39.5 -53t17.5 -77.5v-1425h-139v1379q0 52 -18 82.5t-39.5 56t-39.5 56.5t-18 84z" />
<glyph unicode="&#xe43;" horiz-adv-x="540" d="M-127 1629q-12 61 7 113.5t59.5 91t100.5 61.5t131 23q152 0 227.5 -56t83.5 -139q4 -48 -5 -81.5t-25 -57t-35.5 -41.5t-37 -38.5t-28.5 -45.5t-11 -61v-1398h-139v1422q0 61 22.5 95t49.5 58t50 46.5t23 60.5q0 61 -44.5 94t-127.5 33q-35 0 -69 -12t-58 -35.5 t-36.5 -56.5t-4.5 -76h-133z" />
<glyph unicode="&#xe44;" horiz-adv-x="540" d="M-198 1700v121q50 -9 121 -9q47 0 84 4t71.5 9t70 9t81.5 4q102 0 163.5 -41.5t61.5 -126.5q0 -53 -18.5 -85.5t-39.5 -60.5t-39 -59.5t-18 -85.5v-1379h-139v1410q0 49 18 82t39 58t39.5 47t18.5 49q0 45 -35.5 58t-94 10t-134 -13t-155.5 -10q-27 0 -52 2.5t-43 6.5z " />
<glyph unicode="&#xe45;" horiz-adv-x="813" d="M47 1107v130h213q111 0 195 -38t139 -103.5t83 -154.5t28 -192v-1120h-139v1085q0 86 -19 158t-59 124t-103 81.5t-152 29.5h-186z" />
<glyph unicode="&#xe46;" horiz-adv-x="1165" d="M77 944q0 57 17.5 110t52 93.5t86.5 65t123 24.5h99l203 -183l195 183h204v-1608h-139v1500l-260 -253l-250 228q-30 3 -63.5 -1.5t-61.5 -22t-46 -50t-18 -83.5q0 -50 17.5 -80t44.5 -46t61 -20t66 -1v-130q-67 -9 -126.5 0.5t-105 41t-72.5 88t-27 144.5z" />
<glyph unicode="&#xe47;" d="M-1021 1392v142q0 55 19 101t60 79t104 52t154 19h516v-118h-519q-86 0 -140.5 -30t-54.5 -94v-31h204l159 93l157 -93h194v-120h-219l-132 89l-139 -89h-363z" />
<glyph unicode="&#xe48;" d="M-248 1762v280h139v-280h-139z" />
<glyph unicode="&#xe49;" d="M-510 1924v118h86q43 0 72 -11.5t45.5 -30.5t22.5 -43t6 -51v-32h435v-112h-574v88q0 48 -22.5 61t-52.5 13h-18z" />
<glyph unicode="&#xe4a;" d="M-569 1762v91q0 48 14 83t40 56.5t59 32t72 10.5h35l107 -72l109 72h33q77 0 131.5 -40.5t54.5 -120.5h144v-112h-271v88q0 34 -19.5 57t-45.5 20l-136 -97l-136 97q-27 3 -47 -20t-20 -57v-88h-124z" />
<glyph unicode="&#xe4b;" d="M-384 1895v82h142v135h127v-135h145v-82h-145v-133h-127v133h-142z" />
<glyph unicode="&#xe4c;" d="M-378 1638v59q0 47 17 81t46.5 56t69.5 32.5t85 10.5h151v-104h-115q-112 0 -112 -100v-35h-142z" />
<glyph unicode="&#xe4d;" d="M-316 1528q0 48 37 84.5t102 36.5q67 0 101.5 -36.5t34.5 -84.5t-34.5 -84.5t-101.5 -36.5q-65 0 -102 36.5t-37 84.5z" />
<glyph unicode="&#xe4e;" d="M-683 1711q0 63 36.5 113.5t99.5 81.5q52 31 124 36q-65 32 -65 112q0 31 14.5 63.5t40 62t61 53.5t76.5 40q82 34 178.5 41.5t200.5 7.5h38v-151q-39 3 -69.5 4.5t-51.5 1.5q-66 0 -124.5 -7.5t-101.5 -23t-68.5 -40t-25.5 -55.5q0 -44 43.5 -53t139.5 -9v-142 q-31 3 -54 4.5t-43 1.5q-60 0 -111.5 -9t-90 -25t-60.5 -39.5t-22 -50.5q0 -44 74 -44q47 0 88.5 14.5t88.5 35.5l74 -124q-53 -29 -121 -50t-136 -21q-9 3 -14 3h-10h-17q-86 9 -139 54.5t-53 113.5z" />
<glyph unicode="&#xe4f;" horiz-adv-x="1484" d="M109 619q0 131 49.5 246t136 201t202 136t246.5 50t246 -50t201 -136t136 -201t50 -246t-50 -246.5t-136 -201.5t-201 -136t-246 -50t-246.5 50t-202 136t-136 201.5t-49.5 246.5zM201 619q0 -112 43 -210.5t116 -172t172 -116.5t211 -43q110 0 209 43t172 116.5 t116.5 172t43.5 210.5q0 110 -43.5 209t-116.5 172.5t-172 116.5t-209 43q-112 0 -211 -43t-172 -116.5t-116 -172.5t-43 -209zM356 619q0 80 30.5 150.5t82.5 123t123 83t151 30.5t150 -30.5t123 -83t83 -123t30 -150.5t-30 -151t-83 -123t-123 -82t-150 -30t-151 30 t-123 82t-82.5 123t-30.5 151z" />
<glyph unicode="&#xe50;" horiz-adv-x="1141" d="M77 467q0 101 31 187.5t92 151t154 101.5t215 37q123 0 215.5 -36.5t155.5 -100.5t94 -151.5t31 -188.5q0 -103 -31 -190.5t-94 -152.5t-155.5 -102t-215.5 -37q-122 0 -215 37t-154 102t-92 152.5t-31 190.5zM222 467q0 -80 25 -146t71 -112t110 -71.5t141 -25.5 t142 25.5t112 71.5t72.5 112t25.5 146q0 81 -25.5 146t-72.5 110.5t-112 69.5t-142 24t-141 -24t-110 -69.5t-71 -110.5t-25 -146z" />
<glyph unicode="&#xe51;" horiz-adv-x="1138" d="M77 584q0 74 34 140t96 114t148 77t189 29q123 0 220 -33.5t164 -94.5t101 -149.5t31 -196.5q-3 -118 -47.5 -209.5t-124 -155.5t-188 -99t-236.5 -36q-103 -3 -181 6.5t-118 23.5l-26 115q56 -15 134.5 -24t162.5 -5q118 8 208 40.5t150.5 83t90.5 118.5t30 145 q0 87 -28.5 151.5t-78.5 107.5t-118 64t-146 21q-74 0 -134 -19t-101.5 -50.5t-64 -74t-22.5 -89.5q0 -60 25 -97t64 -56.5t86.5 -25t94.5 -0.5v-121l-22 -6q-77 -9 -148 2t-125.5 46.5t-87 99t-32.5 158.5z" />
<glyph unicode="&#xe52;" horiz-adv-x="1446" d="M6 1187l124 65q57 -23 87.5 -75t30.5 -123v-936h952v670l-241 -201l-242 189q-28 0 -57 -9.5t-51.5 -34.5t-37 -66.5t-14.5 -105.5q0 -54 11.5 -90.5t33.5 -57.5t53 -27.5t71 -3.5v-118q-81 -8 -139.5 5.5t-96 49t-55.5 91t-21 129.5q-5 173 64.5 264.5t191.5 91.5h97 l192 -145l195 145h185v-894h-1230v1006q0 57 -25 106t-78 75z" />
<glyph unicode="&#xe53;" horiz-adv-x="1156" d="M77 448q0 117 25.5 207.5t69.5 153t104.5 96t128.5 33.5h43l198 -180l198 169h204v-927h-139v820l-263 -242l-241 222q-12 0 -41.5 -12.5t-61.5 -49.5t-56 -106t-24 -181q0 -114 21 -180.5t57.5 -99t85.5 -41t103 -6.5v-127l-47 -3q-107 -8 -177 24.5t-112.5 94.5 t-59 148t-16.5 187z" />
<glyph unicode="&#xe54;" horiz-adv-x="1206" d="M77 417q0 217 129 336.5t369 119.5h405v364h149v-488h-471q-225 0 -328.5 -80t-103.5 -239q0 -339 494 -303q-47 12 -74 46t-27 81q0 56 40 96t105 40t105 -40t40 -96q0 -47 -27 -81t-71 -46h290v-127h-554q-99 0 -184 23.5t-148.5 74t-100.5 129t-37 190.5z" />
<glyph unicode="&#xe55;" horiz-adv-x="1221" d="M77 417q0 202 111.5 318.5t318.5 132.5q-33 17 -52 47t-19 68q0 62 51 100.5t126 38.5q74 0 124.5 -38.5t50.5 -100.5q0 -35 -15.5 -63.5t-49.5 -46.5h289v364h148v-488h-502q-225 0 -328.5 -80t-103.5 -239q0 -339 494 -303q-47 12 -74 46t-27 81q0 56 40 96t105 40 t105 -40t40 -96q0 -47 -27 -81t-71 -46h290v-127h-554q-99 0 -184 23.5t-148.5 74t-100.5 129t-37 190.5z" />
<glyph unicode="&#xe56;" horiz-adv-x="1135" d="M9 1178l121 74q51 -23 86 -70.5t35 -110.5v-325q12 18 37.5 43.5t68.5 50t105 41t147 16.5q123 0 209 -34t139 -93.5t76.5 -142.5t23.5 -182q0 -126 -34.5 -214.5t-99 -143t-155 -78.5t-202.5 -24q-93 0 -173 19t-140 59t-96 101.5t-42 148.5h157q4 -50 29 -88t65 -63 t93.5 -37.5t115.5 -12.5q71 0 131 17t103.5 56.5t68.5 103t25 156.5q0 168 -82.5 246.5t-245.5 78.5q-119 0 -197.5 -46t-111.5 -111h-157v396q0 63 -28 104.5t-72 64.5z" />
<glyph unicode="&#xe57;" horiz-adv-x="1546" d="M77 448q0 117 25.5 207.5t69.5 153t104.5 96t128.5 33.5h43l198 -180l198 169h204v-812q77 -3 127.5 12.5t80 47.5t41 79.5t11.5 107.5v674q0 80 38.5 133t84.5 83l103 -65q-38 -30 -67 -74t-29 -107v-693q0 -159 -88.5 -239t-242.5 -77l-198 3v820l-263 -242l-241 222 q-12 0 -41.5 -12.5t-61.5 -49.5t-56 -106t-24 -181q0 -114 21 -180.5t57.5 -99t85.5 -41t103 -6.5v-127l-47 -3q-107 -8 -177 24.5t-112.5 94.5t-59 148t-16.5 187z" />
<glyph unicode="&#xe58;" horiz-adv-x="1165" d="M77 430q0 97 22 178t72.5 139.5t132 92t200.5 33.5h396v364h148v-488h-455q-98 0 -168 -16.5t-115.5 -54.5t-66.5 -99t-21 -149q0 -108 16 -168.5t38.5 -91t49 -37t48.5 -6.5l260 235l266 -232v254h148v-384h-195l-222 201l-210 -201l-93 -3q-53 -3 -99 20.5t-80 75.5 t-53 136t-19 201z" />
<glyph unicode="&#xe59;" horiz-adv-x="1310" d="M77 433q0 219 90 331t272 112h210l118 -283l62 180q21 61 60.5 82t99.5 21h109v207q0 31 9.5 57.5t25.5 48.5t36.5 38t40.5 25l120 -77q-13 -8 -27.5 -20t-26.5 -29.5t-19.5 -38.5t-7.5 -48v-290h-198q-44 0 -69 -13t-38 -58l-53 -171q-8 -22 -11.5 -56t-5 -70.5 t1.5 -69.5t12 -54l98 -257h-136l-290 746q-71 6 -133 -1t-107 -38.5t-71.5 -95.5t-26.5 -175q0 -104 19 -169t56 -99t92.5 -41.5t129.5 0.5v-130l-77 -3q-110 -5 -181 27t-111.5 91t-56.5 141t-16 180z" />
<glyph unicode="&#xe5a;" horiz-adv-x="1405" d="M77 1033q0 45 16.5 83.5t46 66.5t69 43t85.5 14l84 -3v-118l-32 3q-24 3 -47 -3t-41 -19t-28.5 -31t-10.5 -39q0 -73 62 -110.5t164 -37.5q65 0 137.5 24t136 70t111 112t64.5 149h148v-1237h-139v1018q-32 -44 -75.5 -88.5t-104 -81.5t-140.5 -60.5t-181 -23.5 q-74 0 -134.5 19.5t-103 55t-65 84.5t-22.5 110zM1164 0v1237h138v-1237h-138z" />
<glyph unicode="&#xe5b;" horiz-adv-x="2103" d="M92 625q0 225 106 367q53 77 121.5 113.5t150.5 36.5q65 0 123.5 -28t102.5 -78.5t69.5 -120t25.5 -151.5q0 -66 -15 -119t-43 -91t-65.5 -58t-83.5 -20q-36 0 -70 15.5t-59.5 43t-40.5 64.5t-15 79q0 41 15 77t40.5 65t58 45.5t68.5 16.5l32 -3q-53 121 -140 121 q-49 0 -90.5 -29t-71.5 -80t-48 -122t-18 -156t20 -151t56.5 -112t87 -71t110.5 -25q71 0 134 37t112.5 105t86 165t54.5 218q12 76 29.5 100t56.5 24q15 0 34 -18t38.5 -48.5t39 -71t38.5 -87.5l18 110q22 88 62 88q28 0 68 -49t71 -131q24 124 67 124q35 0 70.5 -44.5 t71.5 -117.5q20 58 37.5 88t47.5 30q21 0 46 -28t46 -67q24 50 71 42l168 -21q27 0 53.5 -15t26.5 -32q0 -18 -26.5 -35.5t-56.5 -20.5l-156 -15q-9 -30 -28.5 -58t-45.5 -28q-23 0 -47 34q-7 7 -16 25t-26 45q-17 -55 -41 -96.5t-50 -41.5q-21 0 -46.5 43t-60.5 115 q-12 -44 -22.5 -76.5t-18.5 -50.5q-27 -62 -58 -62q-29 0 -71 95q-12 26 -22 53.5t-22 52.5q-9 -42 -24 -84.5t-33.5 -76.5t-36.5 -55.5t-33 -21.5q-51 0 -68 52q-8 29 -10 48t-5 36q-5 33 -27 93q-26 -104 -69 -193t-99 -148q-151 -169 -343 -169q-93 0 -168.5 37 t-130 103.5t-84 160.5t-29.5 209zM507 678q0 -39 22 -65t52 -26q74 0 74 91q0 92 -74 92q-28 0 -51 -26.5t-23 -65.5z" />
<glyph unicode="&#x2000;" horiz-adv-x="1207" />
<glyph unicode="&#x2001;" horiz-adv-x="2414" />
<glyph unicode="&#x2002;" horiz-adv-x="1207" />
<glyph unicode="&#x2003;" horiz-adv-x="2414" />
<glyph unicode="&#x2004;" horiz-adv-x="804" />
<glyph unicode="&#x2005;" horiz-adv-x="603" />
<glyph unicode="&#x2006;" horiz-adv-x="402" />
<glyph unicode="&#x2007;" horiz-adv-x="402" />
<glyph unicode="&#x2008;" horiz-adv-x="301" />
<glyph unicode="&#x2009;" horiz-adv-x="482" />
<glyph unicode="&#x200a;" horiz-adv-x="134" />
<glyph unicode="&#x200c;" />
<glyph unicode="&#x200d;" />
<glyph unicode="&#x2010;" horiz-adv-x="696" d="M86 492v142h523v-142h-523z" />
<glyph unicode="&#x2011;" horiz-adv-x="696" d="M86 492v142h523v-142h-523z" />
<glyph unicode="&#x2012;" horiz-adv-x="696" d="M86 492v142h523v-142h-523z" />
<glyph unicode="&#x2013;" horiz-adv-x="1251" d="M95 458v141h1059v-141h-1059z" />
<glyph unicode="&#x2014;" horiz-adv-x="2505" d="M95 458v141h2310v-141h-2310z" />
<glyph unicode="&#x2018;" horiz-adv-x="566" d="M186 918v239q0 49 12 98.5t37 91t62.5 72.5t89.5 44v-96q-28 -11 -48 -34.5t-34 -53.5t-20 -62.5t-4 -59.5h97v-239h-192z" />
<glyph unicode="&#x2019;" horiz-adv-x="566" d="M177 912v97q27 10 47.5 33.5t33 53.5t18.5 62.5t5 60.5h-95v238h192v-238q0 -50 -12.5 -99t-37 -90.5t-62.5 -72.5t-89 -45z" />
<glyph unicode="&#x201c;" horiz-adv-x="893" d="M186 918v239q0 49 12 98.5t37 91t62.5 72.5t89.5 44v-96q-28 -11 -48 -34.5t-34 -53.5t-20 -62.5t-4 -59.5h97v-239h-192zM516 918v239q0 49 12.5 98.5t37 91t62.5 72.5t89 44v-96q-27 -11 -47.5 -34.5t-34 -53.5t-18.5 -62.5t-4 -59.5h95v-239h-192z" />
<glyph unicode="&#x201d;" horiz-adv-x="893" d="M177 912v97q27 10 47.5 33.5t33 53.5t18.5 62.5t5 60.5h-95v238h192v-238q0 -50 -12.5 -99t-37 -90.5t-62.5 -72.5t-89 -45zM507 912v97q28 10 48 33.5t33.5 53.5t20 62.5t4.5 60.5h-97v238h192v-238q0 -50 -12 -99t-37 -90.5t-62.5 -72.5t-89.5 -45z" />
<glyph unicode="&#x2022;" horiz-adv-x="1144" d="M109 619q0 97 36 181.5t99 147t147.5 99t180.5 36.5q97 0 181.5 -36.5t147 -99t99 -147t36.5 -181.5t-36.5 -181.5t-99 -148t-147 -99.5t-181.5 -36q-96 0 -180.5 36t-147.5 99.5t-99 148t-36 181.5z" />
<glyph unicode="&#x2026;" horiz-adv-x="2086" d="M266 0v177h167v-177h-167zM959 0v177h170v-177h-170zM1655 0v177h169v-177h-169z" />
<glyph unicode="&#x202f;" horiz-adv-x="482" />
<glyph unicode="&#x205f;" horiz-adv-x="603" />
<glyph unicode="&#xe000;" horiz-adv-x="1064" d="M0 0v1065h1065v-1065h-1065z" />
<glyph unicode="&#xf700;" horiz-adv-x="1141" d="M24 625v110h127q59 0 85.5 -24t35.5 -77l93 -513h170q63 0 132.5 25t126 86t93.5 163t37 254q0 133 -32.5 226.5t-87.5 152.5t-126.5 86.5t-149.5 27.5q-54 0 -110.5 -17t-105 -48.5t-82.5 -77t-44 -102.5h-151q12 80 55 147t109.5 115.5t151.5 75.5t184 27 q75 0 137.5 -14t115.5 -42q42 23 65 61t26 63h178q-3 -27 -16 -55t-34 -53.5t-52.5 -46.5t-72.5 -33q90 -82 136.5 -206.5t46.5 -283.5q0 -152 -35 -273.5t-101.5 -205.5t-162.5 -128.5t-219 -44.5h-308l-97 525q-5 28 -10 46.5t-15.5 31t-28 17.5t-44.5 5h-20z" />
<glyph unicode="&#xf701;" d="M-1274 1392v124h872v-35q0 -89 -133 -89h-739z" />
<glyph unicode="&#xf702;" d="M-1274 1392v124h733v154h139v-278h-872z" />
<glyph unicode="&#xf703;" d="M-1274 1392v124h640q3 73 45 110.5t119 37.5q74 0 114 -40t40 -96q0 -26 -10.5 -50t-31 -43.5t-48 -31t-64.5 -11.5h-804z" />
<glyph unicode="&#xf704;" d="M-1274 1392v124h501v154h139v-154h93v154h139v-278h-872z" />
<glyph unicode="&#xf705;" d="M-613 1392v370h140v-370h-140z" />
<glyph unicode="&#xf706;" d="M-808 1570v130h100q48 0 80 -12t50 -33t24.5 -48.5t6.5 -57.5v-33h544v-124h-699v95q0 28 -7 44.5t-19 25.5t-27 11t-30 2h-23z" />
<glyph unicode="&#xf707;" d="M-1125 1392v98q0 55 16 93.5t44.5 63.5t65.5 36t81 11h36l121 -80l121 80h38q42 0 79.5 -12t65.5 -34.5t44.5 -56t16.5 -75.5h393v-124h-532v95q0 40 -21.5 64.5t-52.5 21.5l-152 -107l-151 107q-30 3 -52 -21.5t-22 -64.5v-95h-139z" />
<glyph unicode="&#xf708;" d="M-814 1537v92h162v150h139v-150h164v-92h-164v-145h-139v145h-162z" />
<glyph unicode="&#xf709;" d="M-726 1392v62q0 48 17 83.5t47.5 58.5t72.5 34t91 11h158v-107h-121q-117 0 -117 -106v-36h-148z" />
<glyph unicode="&#xf70a;" d="M-248 1392v370h139v-370h-139z" />
<glyph unicode="&#xf70b;" d="M-628 1570v130h100q48 0 79 -12t49 -33t25 -48.5t7 -57.5v-33h483v-124h-637v95q0 28 -7 44.5t-19 25.5t-27 11t-31 2h-22z" />
<glyph unicode="&#xf70c;" d="M-983 1392v98q0 55 16 93.5t44.5 63.5t65.5 36t81 11h38l119 -80l121 80h37q43 0 80.5 -12t66.5 -34.5t44.5 -56t15.5 -75.5h159v-124h-298v95q0 40 -21.5 64.5t-52.5 21.5l-152 -107l-151 107q-30 3 -52 -21.5t-22 -64.5v-95h-139z" />
<glyph unicode="&#xf70d;" d="M-572 1537v92h161v150h139v-150h163v-92h-163v-145h-139v145h-161z" />
<glyph unicode="&#xf70e;" d="M-417 1392v62q0 48 17.5 83.5t47.5 58.5t72.5 34t90.5 11h159v-107h-121q-118 0 -118 -106v-36h-148z" />
<glyph unicode="&#xf70f;" horiz-adv-x="2006" d="M74 891q15 84 62.5 153t118.5 117.5t162.5 74.5t195.5 26q107 0 201 -28t162.5 -80.5t108.5 -129.5t40 -174v-436q0 -86 22.5 -146.5t64 -99t99 -56t127.5 -17.5t129 17.5t102 56t66.5 99t23.5 146.5v823h139v-841q0 -86 -25.5 -163t-81.5 -134t-143.5 -90t-209.5 -33 q-123 0 -208 33t-139.5 90t-79.5 134t-25 163v433q0 82 -30 140.5t-81.5 97t-119.5 57t-142 18.5q-66 0 -128 -14.5t-114 -42.5t-90.5 -69t-58.5 -95l174 -107q-23 -9 -48.5 -30t-47.5 -47t-37 -54t-15 -52v-510h185v-121h-324v619q0 27 11 55t29.5 51.5t41 42.5t45.5 29z " />
<glyph unicode="&#xf710;" d="M-888 1392v237h139v-113h746v-124h-885z" />
<glyph unicode="&#xf711;" d="M-609 1528q0 48 36.5 84.5t102.5 36.5q65 0 100.5 -36.5t35.5 -84.5t-35.5 -84.5t-100.5 -36.5q-66 0 -102.5 36.5t-36.5 84.5z" />
<glyph unicode="&#xf712;" d="M-1200 1392v142q0 55 18.5 101t59.5 79t105 52t155 19h516v-118h-519q-86 0 -140.5 -30t-54.5 -94v-31h204l157 93l158 -93h195v-120h-220l-133 89l-139 -89h-362z" />
<glyph unicode="&#xf713;" d="M-541 1762v280h139v-280h-139z" />
<glyph unicode="&#xf714;" d="M-764 1924v118h86q44 0 72.5 -11.5t45 -30.5t22.5 -43t6 -51v-32h437v-112h-575v88q0 48 -23 61t-53 13h-18z" />
<glyph unicode="&#xf715;" d="M-841 1762v91q0 48 14.5 83t40 56.5t58.5 32t73 10.5h33l109 -72l108 72h34q77 0 131 -40.5t54 -120.5h142v-112h-269v88q0 34 -19.5 57t-45.5 20l-135 -97l-136 97q-29 3 -48.5 -20t-19.5 -57v-88h-124z" />
<glyph unicode="&#xf716;" d="M-678 1895v82h143v135h127v-135h145v-82h-145v-133h-127v133h-143z" />
<glyph unicode="&#xf717;" d="M-661 1638v59q0 47 16.5 81t46 56t68.5 32.5t85 10.5h151v-104h-114q-111 0 -111 -100v-35h-142z" />
<glyph unicode="&#xf718;" d="M-399 -495h290v-370h-139v240h-151v130z" />
<glyph unicode="&#xf719;" d="M-684 -495h205v-124q0 -65 31 -84.5t83 -19.5q25 0 46.5 4.5t37 15.5t24.5 31.5t9 52.5v124h139v-124q0 -122 -62.5 -169t-193.5 -47q-136 0 -195 48.5t-59 146.5v31h-65v114z" />
<glyph unicode="&#xf71a;" d="M-337 -599q0 46 33.5 75t81.5 29t80.5 -29t32.5 -75q0 -44 -32.5 -75t-80.5 -31t-81.5 31t-33.5 75z" />
<glyph unicode="&#xf71d;" />
<glyph unicode="&#xf880;" />
<glyph horiz-adv-x="690" d="M-609 1528q0 48 36.5 84.5t102.5 36.5q65 0 100.5 -36.5t35.5 -84.5t-35.5 -84.5t-100.5 -36.5q-66 0 -102.5 36.5t-36.5 84.5zM47 1107v130h104q118 0 200 -35t133.5 -97.5t74 -150t22.5 -193.5v-761h-139v735q0 88 -14 156.5t-49.5 116t-94.5 73.5t-148 26h-89z" />
<glyph d="M-817 1711q0 63 36.5 113.5t99.5 81.5q51 31 124 36q-65 32 -65 112q0 31 14.5 63.5t40 62t61 53.5t76.5 40q81 34 177.5 41.5t201.5 7.5h37v-151q-39 3 -69 4.5t-51 1.5q-67 0 -125 -7.5t-101 -23t-69 -40t-26 -55.5q0 -44 44 -53t139 -9v-142q-30 3 -53.5 4.5 t-42.5 1.5q-61 0 -112.5 -9t-90 -25t-60 -39.5t-21.5 -50.5q0 -44 74 -44q46 0 88 14.5t88 35.5l74 -124q-53 -29 -120.5 -50t-135.5 -21q-9 3 -14 3h-11h-16q-86 9 -139 54.5t-53 113.5z" />
<glyph />
<glyph />
<glyph d="M-1274 1392v124h501v154h139v-154h93v154h139v-278h-872zM-658 1762v280h139v-280h-139z" />
<glyph d="M-1268 1392v124h996v-35q0 -89 -133 -89h-863z" />
<glyph d="M-1268 1392v124h857v154h139v-278h-996z" />
</font>
</defs>
</svg>
