<?xml version="1.0" standalone="no"?>
<!DOCTYPE svg PUBLIC "-//W3C//DTD SVG 1.1//EN" "http://www.w3.org/Graphics/SVG/1.1/DTD/svg11.dtd" >
<svg xmlns="http://www.w3.org/2000/svg">
<metadata></metadata>
<defs>
<font id="oswaldbold" horiz-adv-x="919" >
<font-face units-per-em="2048" ascent="1638" descent="-410" />
<missing-glyph horiz-adv-x="225" />
<glyph unicode="&#xd;" horiz-adv-x="0" />
<glyph unicode=" "  horiz-adv-x="225" />
<glyph unicode="&#x09;" horiz-adv-x="225" />
<glyph unicode="&#xa0;" horiz-adv-x="225" />
<glyph unicode="!" horiz-adv-x="424" d="M77 0h262v257h-262v-257zM77 1457l84 -1083h94l100 1083h-278z" />
<glyph unicode="&#x22;" horiz-adv-x="613" d="M32 1459l73 -485h165l1 485h-239zM351 1459l1 -485h147l83 485h-231z" />
<glyph unicode="#" horiz-adv-x="931" d="M80 499h115l-71 -499h167l72 499h116l-72 -499h167l72 499h183v207h-153l13 92h140v206h-110l66 455h-169l-65 -455h-115l65 455h-169l-65 -455h-187v-206h157l-13 -92h-144v-207zM393 706l13 92h115l-13 -92h-115z" />
<glyph unicode="$" horiz-adv-x="927" d="M75 460q0 -81 20.5 -149t61.5 -122.5t110.5 -89t160.5 -41.5v-139h78v138q96 5 175.5 46.5t127 116.5t47.5 168q0 62 -13 114t-32.5 90.5t-57 79t-72.5 70.5t-92 73l-100 75q-61 46 -92 88t-31 100q0 43 24.5 74t73.5 31q91 0 91 -131q0 -16 -3 -60l302 41l1 37 q0 139 -100.5 234.5t-248.5 102.5v157h-78v-159q-160 -15 -256 -110t-96 -253q0 -38 7.5 -73.5t18 -63.5t29.5 -57t36 -49.5t44 -46t45.5 -41t48.5 -39.5l91 -72q9 -7 31 -24t32 -24.5t28 -23.5t26.5 -25.5t20.5 -25.5t17.5 -29t9.5 -30.5t4 -35.5q0 -99 -83 -99 q-22 0 -39 7t-28.5 18t-20 28t-13 33.5t-7.5 37t-3.5 36t-0.5 33.5v40z" />
<glyph unicode="%" horiz-adv-x="1653" d="M76 1049q0 -414 312 -414q85 0 146.5 30.5t97.5 87t52.5 130t16.5 166.5v6q0 95 -16.5 167t-52.5 126t-97.5 82t-146.5 28q-86 0 -147 -28t-96.5 -82.5t-52 -126.5t-16.5 -167v-5zM292 1049v9q0 33 0.5 56t2.5 49.5t6.5 43.5t11.5 34t17 26.5t24.5 15.5t33.5 6 q22 0 38 -7t26.5 -23t17 -34t9.5 -47.5t4 -55.5t1 -66v-7q0 -39 -1.5 -67t-4.5 -58.5t-9.5 -50t-17 -36.5t-26.5 -25t-37 -8t-37.5 8t-26.5 25t-17 37t-10 50t-4 58t-1 67zM514 0h145l468 1486h-146zM948 414q0 -414 312 -414q84 0 146 30.5t97.5 87t52.5 130t17 166.5v7 q-1 95 -17.5 166.5t-52.5 125.5t-97 82t-146 28q-86 0 -147 -28t-96.5 -82t-52 -125.5t-16.5 -166.5v-7zM1163 414v5q0 34 0.5 57t3 50t6.5 44.5t11 34.5t17 27t25 16t34 6q22 0 38 -7.5t26.5 -23.5t17 -34t9 -48.5t3.5 -56t1 -66.5v-4q0 -40 -1 -67.5t-4 -58t-9.5 -50 t-17 -36.5t-26.5 -25.5t-37.5 -8.5t-37.5 8.5t-26.5 25.5t-17 36.5t-10 50t-4.5 58.5t-1 67z" />
<glyph unicode="&#x26;" horiz-adv-x="967" d="M53 315q0 -96 36.5 -172t109 -121.5t170.5 -45.5q80 0 151 31.5t124 90.5q127 -121 222 -121q24 0 48 4v231q-36 3 -71 20.5t-58 44.5q66 98 93.5 190.5t27.5 240.5h-223q0 -164 -33 -251l-152 253q52 52 90.5 102t70.5 108t49 122.5t17 132.5q0 94 -41 165t-113 108.5 t-166 37.5q-92 0 -160.5 -44t-102 -117t-33.5 -163q0 -141 129 -428q-88 -98 -136.5 -200t-48.5 -219zM306 335q0 57 11 108t26 66q46 -92 148 -255q-58 -75 -115 -75q-19 0 -32.5 13t-21.5 35.5t-12 49.5t-4 58zM353 1161q0 121 70 121q29 0 47.5 -20t24.5 -45t6 -54 q0 -66 -25 -138t-65 -130q-25 61 -41.5 133t-16.5 133z" />
<glyph unicode="'" horiz-adv-x="288" d="M25 1457l57 -484h132l57 484h-246z" />
<glyph unicode="(" horiz-adv-x="563" d="M126 722q0 -87 1 -136.5t8.5 -142.5t21 -150.5t42 -130.5t69 -114.5t104 -70.5t144.5 -29v180q-31 -1 -56.5 16t-42 48.5t-28.5 69.5t-18.5 86.5t-10 92.5t-4 95t0 86.5t1.5 73.5t1 50t-1 50t-1.5 74t0 86.5t4 95t10 93t18.5 86.5t28.5 69.5t42 48t56.5 16.5v180 q-81 0 -144.5 -29.5t-104 -71t-69 -114.5t-42 -130.5t-21 -150.5t-8.5 -142t-1 -136v-9v-7.5v-8.5v-24z" />
<glyph unicode=")" horiz-adv-x="563" d="M89 -52q81 0 144.5 29.5t104 71t69.5 115t42.5 131.5t21 151t8.5 142.5t1 136.5v21v21q0 87 -1 136.5t-8.5 143t-21 151t-42.5 131t-69.5 115.5t-104 71.5t-144.5 29.5v-180q31 0 56.5 -16.5t42 -48t28.5 -69.5t18.5 -86.5t10 -93t4 -95.5t0 -86.5t-1.5 -73.5t-1 -50 t1 -50t1.5 -73.5t0 -86t-4 -95t-10 -93t-18.5 -86.5t-28.5 -69.5t-42 -48.5t-56.5 -16v-180z" />
<glyph unicode="*" horiz-adv-x="739" d="M62 1052l197 -76l-131 -187l159 -94l95 190l95 -190l160 94l-133 186l199 76l-60 162l-180 -98l20 215h-203l22 -214l-180 96z" />
<glyph unicode="+" horiz-adv-x="617" d="M57 472h158v-157h179v157h158v181h-158v157h-179v-157h-158v-181z" />
<glyph unicode="," horiz-adv-x="379" d="M68 -1h89q0 -25 -1.5 -36.5t-8.5 -18t-14.5 -7t-28.5 -0.5h-12l32 -135q44 -6 77.5 -0.5t55.5 21.5t36.5 41.5t22 59.5t11 75t3.5 88v99v71h-262v-258z" />
<glyph unicode="-" horiz-adv-x="347" d="M3 367h338v181h-338v-181z" />
<glyph unicode="." horiz-adv-x="422" d="M80 0h263v257h-263v-257z" />
<glyph unicode="/" horiz-adv-x="724" d="M74 0h145l468 1486h-146z" />
<glyph unicode="0" horiz-adv-x="929" d="M72 428q0 -95 24 -176t71 -144.5t123.5 -99.5t174.5 -36q97 0 173 36.5t123 100t71.5 144.5t24.5 175v600q0 77 -14 144.5t-45 125.5t-76 99.5t-110.5 65t-146.5 23.5t-147 -23.5t-111.5 -65t-76 -99.5t-44.5 -125.5t-14 -144.5v-600zM356 428v600q0 23 1 41.5t4 45 t10.5 46t19 38.5t30.5 29t44 10q109 0 109 -210v-600q0 -26 -2 -50t-8.5 -54.5t-18 -52.5t-32 -37t-48.5 -15q-20 0 -36.5 8t-27.5 21t-19.5 31t-13 36.5t-7.5 40t-4 38t-1 34.5z" />
<glyph unicode="1" horiz-adv-x="547" d="M35 1083h147v-1083h279v1459h-216q-14 -30 -32 -51.5t-39.5 -36t-41 -24t-48 -23.5t-49.5 -26v-215z" />
<glyph unicode="2" horiz-adv-x="869" d="M49 0h776v280h-454q36 48 134 166.5t147 186.5q81 114 127 224t46 228q0 185 -101.5 293t-286.5 108q-83 0 -148.5 -22t-110 -62t-74 -97.5t-42.5 -124.5t-13 -146v-92h280v19q0 20 -0.5 44.5t2 51t5.5 52.5t11.5 50t19.5 42t29 28.5t41 10.5q36 0 61.5 -26.5t35.5 -60.5 t10 -68q0 -35 -8.5 -71.5t-21 -67t-33.5 -67.5t-37 -61.5t-41 -59.5l-354 -508v-250z" />
<glyph unicode="3" horiz-adv-x="890" d="M58 422q2 -81 13.5 -146t39 -123t71 -97t111 -61.5t157.5 -22.5q84 0 150.5 22.5t111.5 62.5t74.5 98t42.5 126t13 148q0 69 -13.5 131t-48 121t-86.5 97q72 46 110 130t38 175q0 187 -103 295.5t-289 108.5q-188 0 -290 -107.5t-102 -296.5v-92h282v14v41t2 43t6 45.5 t12 39.5t19.5 35t29.5 22t41 9q27 0 47 -9.5t31.5 -24t18.5 -36t9 -42t2 -45.5q0 -50 -13.5 -83t-41 -50t-62 -23t-83.5 -4v-284q67 2 112.5 -23.5t66.5 -72.5t21 -114v-36.5t-2 -38t-6 -41t-11.5 -35t-19 -31.5t-29.5 -19t-40.5 -8t-40.5 9t-29.5 22t-19.5 35t-12 40t-6 46 t-2 43v40v16h-282v-49z" />
<glyph unicode="4" horiz-adv-x="904" d="M58 354h409v-354h279v354h136v227h-136v878h-331l-357 -877v-228zM308 581l158 437l1 -437h-159z" />
<glyph unicode="5" horiz-adv-x="925" d="M94 463q0 -85 10 -154t36.5 -133.5t69 -108t110.5 -69.5t158 -26q68 0 124 16.5t95.5 44.5t70 69.5t49 87.5t30 103t16 110.5t4.5 114.5q0 45 -3.5 85.5t-11.5 81t-21.5 76t-32 67.5t-44.5 57t-58.5 43.5t-75 28t-91.5 9.5q-75 0 -152 -47l10 263h432v277h-694v-838h239 q17 45 47.5 79.5t70.5 34.5q22 0 39 -8.5t28.5 -20.5t19.5 -31.5t12 -37t6.5 -40.5t3 -38.5t0.5 -36.5v-21q0 -23 0.5 -49t-2.5 -54t-6.5 -55t-13.5 -51t-22.5 -42t-33.5 -28.5t-48 -10.5q-21 0 -37 8.5t-26 26.5t-16 38.5t-8.5 52t-3 59t-0.5 67.5h-280z" />
<glyph unicode="6" horiz-adv-x="905" d="M70 446q0 -71 14 -137t44.5 -127t75 -106t111.5 -72t148 -27q84 0 151.5 28t112 75.5t74 113t42.5 136t13 148.5q0 62 -6.5 115t-20.5 104.5t-40 91t-62 70t-88.5 46.5t-117.5 16q-93 0 -167 -50l-1 83q-2 285 110 285q22 0 38.5 -9t26.5 -26.5t16.5 -35t9 -44t3 -44 t0.5 -42.5h275v26q0 91 -23.5 167t-68.5 133.5t-116 89.5t-161 32q-65 0 -120 -16.5t-94.5 -44.5t-71 -68.5t-51 -86t-32.5 -98.5t-18.5 -104t-5.5 -106v-516zM355 428v189q19 30 47 49t61 19q26 0 46 -9.5t31.5 -29t18.5 -38t10 -47.5t3.5 -46.5t0.5 -44.5v-6 q1 -24 0.5 -38.5t-2.5 -43t-6 -47.5t-12 -43t-19.5 -38t-29.5 -24t-41 -10q-27 0 -48 15t-32 37t-17.5 52.5t-8.5 54.5t-2 49z" />
<glyph unicode="7" horiz-adv-x="682" d="M36 1212h355l-252 -1212h274l256 1314l-5 143h-628v-245z" />
<glyph unicode="8" horiz-adv-x="906" d="M70 428q0 -453 392 -453q86 0 153 21.5t111.5 60.5t73.5 96t41.5 124.5t12.5 150.5q0 115 -26 199t-101 144q106 107 106 312q0 122 -39.5 211.5t-124 141t-207.5 51.5q-184 0 -279.5 -108.5t-95.5 -295.5q0 -202 107 -312q-39 -31 -64.5 -70.5t-38 -86t-17 -89 t-4.5 -97.5zM344 411q0 240 118 240q116 0 116 -240v-36t-2.5 -38t-6.5 -40.5t-12.5 -35t-20.5 -31t-31 -19.5t-43 -8t-43 8t-31 19.5t-21 30.5t-13 35t-6.5 40t-3 38.5t-0.5 36.5zM369 1070v37q0 20 1.5 38.5t7.5 41t15.5 39t27 27.5t41.5 11q29 0 48.5 -16t28 -43 t11.5 -49.5t3 -48.5v-37t-2 -42t-5 -46t-10 -41.5t-16.5 -37t-24 -23.5t-33.5 -10t-34 9.5t-24.5 24t-16.5 37t-10.5 41.5t-5.5 46t-2 42z" />
<glyph unicode="9" horiz-adv-x="927" d="M74 982q0 -443 342 -443q89 0 162 40v-36v-16q0 -16 0.5 -35.5t-1 -41.5t-3 -44.5t-5.5 -45t-9 -43.5t-14 -38.5t-19.5 -31t-26 -20.5t-33.5 -7q-24 0 -42 9t-28.5 26.5t-17 35.5t-9 44.5t-3.5 43t-1 41.5h-276v-24q3 -91 27 -166.5t69 -132.5t116.5 -88.5t164.5 -31.5 q65 0 120.5 17t95 46.5t70.5 72t51 89.5t32.5 103.5t17.5 110.5t5 112v454q0 75 -13.5 145.5t-44 136.5t-75.5 115t-111.5 78t-147.5 29q-84 0 -151.5 -28.5t-111.5 -77t-74 -114t-43 -136.5t-13 -148zM358 966v29v37.5t2 43t6 48t12 42.5t19 38.5t29 24.5t41 10 q34 0 57.5 -21.5t34 -57.5t14.5 -67t4 -63v-192q-19 -29 -48.5 -47.5t-61.5 -18.5q-18 0 -33 5.5t-25.5 13t-19 22t-13.5 26t-9 31.5t-5.5 32t-2.5 33.5t-1 30.5z" />
<glyph unicode=":" horiz-adv-x="419" d="M80 122h260v255h-260v-255zM80 727h260v256h-260v-256z" />
<glyph unicode=";" horiz-adv-x="413" d="M69 120h89q0 -25 -1.5 -36.5t-8.5 -18t-14.5 -7.5t-28.5 -1h-4.5t-4 0.5t-4.5 0.5l33 -135q44 -6 77 -1t55 21t37 42t22.5 60t11 75t3.5 88v99q-1 46 -1 70h-261v-257zM70 727h260v256h-260v-256z" />
<glyph unicode="&#x3c;" horiz-adv-x="700" d="M60 425l548 -382v236q-300 215 -360 259l360 255v237l-548 -383v-222z" />
<glyph unicode="=" horiz-adv-x="617" d="M57 209h495v180h-495v-180zM57 472h495v181h-495v-181z" />
<glyph unicode="&#x3e;" horiz-adv-x="700" d="M93 43l548 382v222l-548 383v-237l360 -255l-360 -259v-236z" />
<glyph unicode="?" horiz-adv-x="788" d="M37 1140q0 -79 24 -170l254 49q-15 50 -15 100q0 36 9 64t30.5 46.5t51.5 18.5q25 0 44 -7t32 -21t19.5 -35.5t6.5 -48.5q0 -65 -24.5 -130t-66.5 -120t-90 -100.5t-102 -82.5v-314h270v227q135 77 210.5 211.5t75.5 291.5q0 118 -44 200t-128 124.5t-203 42.5 q-90 0 -159 -26t-111 -73.5t-63 -109t-21 -137.5zM210 0h270v262h-270v-262z" />
<glyph unicode="@" horiz-adv-x="1398" d="M67 641q0 -186 38 -322t119.5 -232.5t214.5 -144t320 -47.5q136 0 337 45l-88 183q-147 -47 -249 -47q-89 0 -160 18t-121 54t-85 84t-55 113t-29 136.5t-9 159.5q0 81 14.5 152.5t46 134t78.5 107.5t116 71t153 26q77 0 138.5 -16.5t105 -48t74.5 -74t48.5 -99 t25.5 -118t8 -135.5q0 -27 -2.5 -54.5t-9.5 -65.5t-25.5 -62t-45.5 -24q-12 0 -20 3t-12.5 12t-7.5 14t-4 19.5t-1 17.5v19v477h-232v-44q-34 51 -106 51q-38 0 -71 -11.5t-57.5 -32t-45 -48t-34.5 -60.5t-24.5 -67t-16 -71t-8.5 -69.5t-3 -64.5q0 -64 18 -124t51.5 -109 t88 -78.5t122.5 -29.5q36 0 69.5 21t72.5 74q41 -47 100 -71t125 -24q65 0 118 23t88.5 61.5t59.5 91t35 109t11 117.5q0 153 -40.5 276t-119 211t-198.5 135.5t-275 47.5q-100 0 -188 -22t-158.5 -63.5t-126 -101t-92.5 -134t-56.5 -163t-19.5 -186.5zM614.5 622.5 q0.5 13.5 0.5 27.5t1.5 29t3.5 29.5t6 28t9 25.5t13 22t17.5 17t22 11t27.5 4q13 0 22 -9t11 -22v-327q-22 -23 -50 -23q-26 0 -43.5 14.5t-25.5 38.5t-11 46t-3 46v17q-1 12 -0.5 25.5z" />
<glyph unicode="A" d="M15 0h292l57 312h190l60 -312h291l-315 1458h-260zM384 493l77 541l74 -541h-151z" />
<glyph unicode="B" horiz-adv-x="923" d="M87 0h359q216 0 321.5 105.5t105.5 324.5q0 305 -260 368q114 38 167.5 103.5t53.5 179.5q0 92 -23 160t-61.5 109t-98 66t-121.5 33.5t-143 8.5h-300v-1458zM382 208v483h29q50 0 85 -17.5t54.5 -51t28 -75t8.5 -97.5q0 -45 -2.5 -76.5t-9 -60.5t-19 -47t-32 -32 t-48 -20t-67.5 -6h-27zM382 885v375h16q10 1 19 1q5 -1 9 -1q14 0 27 -0.5t24.5 -3t22 -6.5t19 -10.5t16 -15.5t13.5 -22t9.5 -29t5.5 -37.5t2 -46.5q0 -46 -5.5 -80t-19.5 -64t-41.5 -45t-68.5 -15h-48z" />
<glyph unicode="C" horiz-adv-x="950" d="M68 487q0 -88 12.5 -162t43 -140.5t78 -112.5t121 -73t168.5 -27q92 0 163.5 27.5t116 73.5t74 112.5t41.5 137t13 153.5l1 123h-288v-149q0 -39 -2 -70.5t-9.5 -66.5t-20 -58.5t-35.5 -39.5t-54 -16q-128 0 -128 215v629q0 216 128 216q27 0 47.5 -10.5t33 -31 t20.5 -42.5t12 -53.5t5 -55.5t1 -57v-134h290v125q0 87 -13.5 159t-44 133.5t-77 104t-116 66t-158.5 23.5q-423 0 -423 -516v-483z" />
<glyph unicode="D" horiz-adv-x="942" d="M87 0h301q78 0 141 7.5t112 24t85.5 39t62.5 56t42.5 71t26 88t13.5 102.5t4 120v478q0 86 -9 150t-30 119t-56.5 91.5t-89.5 62.5t-127.5 37.5t-171.5 11.5h-304v-1458zM382 207v1044h11q101 -1 144 -24.5t43 -95.5v-785q0 -29 -3 -49t-8.5 -35.5t-17 -25t-24 -16 t-35.5 -9.5t-45.5 -3.5t-58.5 -0.5h-6z" />
<glyph unicode="E" horiz-adv-x="720" d="M87 0h608v202h-313v449h221v208h-221v397h313v202h-608v-1458z" />
<glyph unicode="F" horiz-adv-x="711" d="M87 0h295v651h221v208h-221v397h313v202h-608v-1458z" />
<glyph unicode="G" horiz-adv-x="1002" d="M68 456q0 -71 12 -137.5t40.5 -130.5t70 -111.5t106 -76t143.5 -28.5q48 0 95.5 16t87.5 46t65 68l37 -102h202v750h-461v-211h167v-117q0 -223 -135 -223t-135 215v629q0 216 135 216q26 0 46.5 -8t34.5 -21t24.5 -33t16 -40t9 -46t4 -47t0.5 -47v-103h282v86 q0 87 -13.5 159t-44.5 133.5t-79 104t-118.5 66t-161.5 23.5q-430 0 -430 -516v-514z" />
<glyph unicode="H" horiz-adv-x="976" d="M87 0h295v650h211v-650h296v1458h-296v-598h-211v598h-295v-1458z" />
<glyph unicode="I" horiz-adv-x="468" d="M87 0h295v1458h-295v-1458z" />
<glyph unicode="J" horiz-adv-x="559" d="M0 -28h145q82 0 139.5 16t94.5 44.5t58 76.5t28.5 104.5t7.5 136.5v1108h-295v-1106q0 -55 -7.5 -88t-29 -52.5t-53.5 -25.5q-29 -6 -74 -6h-14v-208z" />
<glyph unicode="K" horiz-adv-x="961" d="M87 0h295v529l53 138l220 -667h306l-319 861l298 597h-330l-228 -553v553h-295v-1458z" />
<glyph unicode="L" horiz-adv-x="690" d="M87 0h584v202h-289v1256h-295v-1458z" />
<glyph unicode="M" horiz-adv-x="1190" d="M87 0h218l6 1032l179 -1032h220q24 158 85.5 513t84.5 512l7 -1025h217v1458h-341l-168 -972l-155 972h-353v-1458z" />
<glyph unicode="N" horiz-adv-x="950" d="M87 0h253v809l319 -809h204v1459h-244v-763l-320 763h-212v-1459z" />
<glyph unicode="O" horiz-adv-x="989" d="M68 480q0 -88 13 -161.5t44.5 -139t79.5 -110.5t121.5 -71t167.5 -26q95 0 168.5 26.5t121.5 73t79.5 113t44.5 140.5t13 162v483q0 516 -427 516q-426 0 -426 -516v-490zM363 413v630q0 31 2.5 58t11.5 57t22.5 51.5t38 35.5t56.5 14q132 0 132 -216v-630 q0 -215 -132 -215q-131 0 -131 215z" />
<glyph unicode="P" horiz-adv-x="834" d="M87 0h295v624h1q82 0 144.5 12t116 41t87.5 76t53 120t19 172q0 201 -87 307t-277 106h-352v-1458zM382 832v416h16q23 0 41 -3t31 -11.5t22.5 -17t15 -24.5t9 -28t5 -34.5t1.5 -37v-41.5q0 -56 -1 -81.5t-7.5 -58.5t-20 -46t-38 -23t-62.5 -10h-12z" />
<glyph unicode="Q" horiz-adv-x="994" d="M68 480q0 -91 15.5 -167.5t48.5 -140t82.5 -108.5t120 -69.5t157.5 -24.5q46 0 81 4q15 -24 31 -43.5t44.5 -43t61.5 -39.5t81.5 -27t105.5 -11v179q-119 0 -143 53q173 145 173 445v483q0 90 -13.5 165t-45 141.5t-79.5 112t-122.5 71.5t-169.5 26t-169 -26 t-122.5 -71.5t-79.5 -112t-44.5 -141.5t-13.5 -165v-490zM363 414v629q0 40 5.5 74t19 68t41.5 54t68 20q41 0 69 -20t41.5 -54t19 -68t5.5 -74v-629q0 -215 -135 -215q-40 0 -68 19.5t-41.5 53.5t-19 68t-5.5 74z" />
<glyph unicode="R" horiz-adv-x="918" d="M87 0h295v671h48l167 -671h305q-97 288 -228 705q38 16 68 38t50.5 46t35.5 53.5t23.5 56.5t13 59.5t6 58.5t1.5 57q0 104 -32.5 179t-94.5 119.5t-145.5 65t-192.5 20.5h-320v-1458zM382 851v391h98q30 0 52 -21.5t31 -55.5t12.5 -61t3.5 -53t-4.5 -55t-15 -64.5 t-35 -58t-58.5 -22.5h-84z" />
<glyph unicode="S" horiz-adv-x="869" d="M46 417q4 -70 20.5 -134t49 -121.5t79 -100t114 -67t148.5 -24.5q76 0 144.5 25.5t119.5 70t81 110.5t30 142q0 82 -19 152.5t-57 131t-81 109t-106 103.5q-17 16 -107 92q-60 51 -92.5 103.5t-32.5 124.5q0 52 24.5 90t72.5 38q28 0 47.5 -16t29 -42.5t13 -53t3.5 -56.5 q0 -12 -1 -31t-1 -28l304 42q0 14 1 25v10q0 76 -29 145.5t-78.5 120t-118.5 80.5t-146 30q-186 0 -298.5 -103.5t-112.5 -280.5q0 -61 14.5 -115t34 -92.5t54.5 -80t61.5 -65.5t69.5 -61l92 -78q74 -65 123 -143t49 -161q0 -112 -87 -112q-25 0 -44 11.5t-31 33t-20 46.5 t-11.5 59t-5 63t-1.5 66z" />
<glyph unicode="T" horiz-adv-x="746" d="M14 1238h214v-1238h294v1238h210v220h-718v-220z" />
<glyph unicode="U" horiz-adv-x="1010" d="M80 542q0 -70 4 -126.5t15.5 -117.5t31 -107t52 -89t76.5 -70.5t106.5 -43.5t140 -16t140 16t106.5 43.5t76.5 70.5t52 89t31 107t15.5 117.5t4 126.5v916h-295v-907v-5q0 -77 -0.5 -111.5t-4.5 -84.5t-11.5 -70t-22 -43t-37 -30.5t-55 -7.5t-55 7.5t-37 31t-22.5 44 t-11.5 71t-4 85.5t-0.5 113v907h-295v-916z" />
<glyph unicode="V" horiz-adv-x="871" d="M23 1458l268 -1458h270l288 1458h-276l-142 -884l-129 884h-279z" />
<glyph unicode="W" horiz-adv-x="1203" d="M26 1458l202 -1458h252l119 954l123 -954h252l204 1458h-252l-95 -960l-122 960h-217l-124 -966l-91 966h-251z" />
<glyph unicode="X" horiz-adv-x="893" d="M28 1458l237 -704l-236 -754h279l138 482l139 -482h278l-233 759l236 699h-274l-147 -436l-137 436h-280z" />
<glyph unicode="Y" horiz-adv-x="838" d="M2 1458l274 -976v-482h285v482l275 976h-270q-25 -105 -75 -320t-75 -321l-136 641h-278z" />
<glyph unicode="Z" horiz-adv-x="808" d="M65 0h673v202h-386l386 1070v185h-629v-202h341l-385 -1070v-185z" />
<glyph unicode="[" horiz-adv-x="630" d="M126 -52h443v128h-209v1341h209v128h-443v-1597z" />
<glyph unicode="\" horiz-adv-x="509" d="M55 1493l160 -1493h234l-161 1493h-233z" />
<glyph unicode="]" horiz-adv-x="589" d="M62 -52h414v1555h-414v-103h207v-1348h-207v-104z" />
<glyph unicode="^" horiz-adv-x="779" d="M53 735h235l96 338l97 -338h235l-219 547h-225z" />
<glyph unicode="_" horiz-adv-x="671" d="M5 0h653v181h-653v-181z" />
<glyph unicode="`" horiz-adv-x="518" d="M62 1486l224 -358h166l-110 358h-280z" />
<glyph unicode="a" horiz-adv-x="790" d="M47 236q0 -49 12 -93t36.5 -82.5t68.5 -61t102 -22.5q79 0 132.5 29t76.5 103l27 -109h250q-35 151 -35 281v502q0 80 -42.5 149t-113 109t-149.5 40q-174 0 -265.5 -97.5t-91.5 -279.5h265v60q0 19 0.5 31.5t4 29.5t10.5 26.5t19.5 16.5t31.5 7q22 0 35.5 -13.5t19 -37 t5.5 -60.5v-89q-55 -23 -91.5 -39.5t-82.5 -41.5t-75.5 -48t-60.5 -56t-48.5 -69t-29 -83.5t-11.5 -101.5zM313 261q0 130 133 238l1 -260q-15 -19 -22 -27t-23.5 -19t-33.5 -11q-30 0 -42.5 23.5t-12.5 55.5z" />
<glyph unicode="b" horiz-adv-x="809" d="M77 0h273v79q33 -48 81 -75t103 -27q89 0 150 67.5t61 157.5v625q0 65 -28 123t-79 94.5t-112 36.5q-51 0 -97 -26.5t-79 -68.5v472h-273v-1458zM350 248v564l5 6t6 8t6 8t7.5 8.5t7.5 8t8.5 8t8.5 6.5t9 5.5t9 3t10 1.5q19 0 29.5 -12t13 -25t2.5 -33v-547q0 -15 -1 -26 t-5.5 -23.5t-14 -19.5t-24.5 -7q-5 0 -10 1.5t-9 3.5t-9.5 6t-8.5 6.5t-8.5 8t-7.5 8t-7 9t-6.5 8.5t-4.5 5z" />
<glyph unicode="c" horiz-adv-x="751" d="M63 271q0 -88 45.5 -156t119 -103t160.5 -35q65 0 123.5 20.5t103.5 57.5t71.5 93t26.5 123v157h-268v-112q0 -25 -0.5 -40t-2.5 -32.5t-5.5 -27t-10 -18.5t-16 -12.5t-22.5 -3.5q-52 0 -52 89v524q0 32 11.5 56t40.5 24q19 0 30.5 -8.5t17 -26.5t7.5 -37t2 -51v-120h268 v92q0 83 -19 148t-58 112t-101.5 72t-146.5 25q-165 0 -245 -94t-80 -263v-453z" />
<glyph unicode="d" horiz-adv-x="809" d="M64 202q0 -58 27 -109.5t76 -83.5t108 -32q55 0 103.5 27t80.5 75v-79h273v1458h-273v-472q-33 42 -79 68.5t-96 26.5q-62 0 -113 -36.5t-79 -94.5t-28 -123v-625zM337 258v547q0 14 1.5 24.5t5.5 22t14 17.5t24 6q15 0 32 -12.5t25 -22t20 -26.5v-573q-42 -59 -77 -59 q-15 0 -24.5 7t-13.5 19.5t-5.5 23.5t-1.5 26z" />
<glyph unicode="e" horiz-adv-x="761" d="M63 275q0 -88 45.5 -157t119.5 -105t160 -36q87 0 160.5 36t119 105t45.5 157v119h-268v-116q0 -96 -57 -96q-52 0 -52 89v234h377v219q0 83 -19 148t-58 112t-101.5 72t-146.5 25q-165 0 -245 -94t-80 -263v-449zM336 649v146q0 32 11.5 56t40.5 24q54 0 54 -80v-146 h-106z" />
<glyph unicode="f" horiz-adv-x="524" d="M53 875h61v-875h273v875h132v182h-132v49q0 51 15 70t48 19l72 -5v204q-95 11 -172 11q-43 0 -78 -10.5t-59 -28t-42 -44.5t-28.5 -55t-17 -65t-8.5 -69.5t-3 -73.5v-2h-61v-182z" />
<glyph unicode="g" horiz-adv-x="781" d="M26 -86q0 -37 15 -67t38.5 -49.5t59 -34t68 -21.5t74.5 -11.5t71 -5.5t64 -1q51 0 93.5 4.5t85 16t75 32.5t58 51t39 75t13.5 101q0 27 -8 51t-19.5 42t-32.5 33.5t-39 26.5t-48 21t-50.5 16t-55 12t-52.5 9t-52 8q-5 1 -7.5 1t-6.5 1t-7 1q-32 5 -52 8.5t-39 9t-28 13.5 t-9 18q0 3 4.5 14t9.5 20l4 9q55 -12 88 -12q76 0 138.5 29.5t102.5 79.5t62 114.5t22 137.5q0 122 -34 183q35 36 116 36l22 195h-34q-139 0 -198 -67q-63 67 -188 67q-67 0 -122 -22t-91.5 -59t-61.5 -88t-36 -107.5t-11 -117.5q0 -152 83 -303q-108 -137 -108 -183 q0 -15 19 -33t38 -30t38 -21q-50 -36 -80.5 -91.5t-30.5 -111.5zM242 -37q0 44 37 101h19q25 -1 42.5 -2.5t46.5 -5t49.5 -10t41 -16t31 -25t10.5 -35.5t-9.5 -32t-27 -16.5t-28.5 -5.5t-27 -1h-5q-25 0 -49.5 1.5t-57.5 5.5t-53 14.5t-20 26.5zM320 689q0 29 0.5 48 t2.5 45.5t6.5 43.5t11.5 33.5t18.5 25t26.5 8.5q63 0 63 -193q0 -188 -67 -188q-62 0 -62 177z" />
<glyph unicode="h" horiz-adv-x="814" d="M76 0h273v814q15 17 23 26t26.5 22t34.5 13q9 0 15 -3t10 -7.5t7 -12t4 -14t1.5 -15.5t0.5 -15.5v-15v-12.5v-780h273v851q0 55 -22 107t-66 87.5t-100 35.5q-58 0 -112.5 -27.5t-94.5 -71.5v476h-273v-1458z" />
<glyph unicode="i" horiz-adv-x="428" d="M78 0h273v1057h-273v-1057zM78 1149h273v256h-273v-256z" />
<glyph unicode="j" horiz-adv-x="463" d="M-17 -32v-198q85 -22 145 -22q126 0 192.5 73t66.5 200v1036h-271v-1012q0 -90 -62 -90q-26 0 -71 13zM116 1149h271v256h-271v-256z" />
<glyph unicode="k" horiz-adv-x="810" d="M80 0h273v410l37 61l139 -471h283l-260 611l260 446h-292l-167 -367v768h-273v-1458z" />
<glyph unicode="l" horiz-adv-x="428" d="M78 0h273v1458h-273v-1458z" />
<glyph unicode="m" horiz-adv-x="1193" d="M76 0h273l-1 814q13 17 21 26.5t25 22t31 12.5q38 0 38 -76v-799h272v815q46 60 75 60q14 0 23 -7.5t12 -22t4 -24t1 -24.5v-797h273v851q0 55 -22.5 107t-67 87.5t-100.5 35.5q-64 0 -122 -32.5t-98 -86.5q-15 33 -39 59.5t-57 43t-69 16.5q-56 0 -108.5 -27.5 t-90.5 -71.5v75h-273v-1057z" />
<glyph unicode="n" horiz-adv-x="814" d="M76 0h273v820l5 6q6 6 7.5 8t7 8t8.5 8.5t8.5 7t9.5 7t9.5 5.5t10.5 4t10 1q16 0 26 -7t14 -20.5t5 -22t1 -21.5v-804h273v852q0 32 -8 64.5t-24.5 62t-38.5 52t-52 36.5t-65 14q-58 0 -113 -27t-94 -71v74h-273v-1057z" />
<glyph unicode="o" horiz-adv-x="788" d="M63 275q0 -88 46 -157t120.5 -105t162.5 -36q89 0 164.5 36t122 105t46.5 157v449q0 169 -81.5 263t-251.5 94q-169 0 -249 -94t-80 -263v-449zM336 271v524q0 80 56 80q62 0 62 -80v-524q0 -89 -62 -89q-19 0 -31.5 8.5t-17 24t-6 27t-1.5 29.5z" />
<glyph unicode="p" horiz-adv-x="809" d="M77 -301h273v380q33 -48 81 -75t103 -27q89 0 150 67.5t61 157.5v625q0 65 -28 123t-79 94.5t-112 36.5q-51 0 -97 -26.5t-79 -68.5v71h-273v-1358zM350 241v573q9 12 14.5 18.5t17 18.5t23 18t22.5 6q19 0 29.5 -12t13 -25t2.5 -33v-547q0 -15 -1 -26t-5.5 -23.5 t-14 -19.5t-24.5 -7q-35 0 -77 59z" />
<glyph unicode="q" horiz-adv-x="792" d="M66 207q0 -91 60.5 -160.5t149.5 -69.5q49 0 92.5 26t75.5 69v-373h273v1358h-273v-79q-20 32 -46 55t-57.5 35.5t-64.5 12.5q-89 0 -149.5 -67.5t-60.5 -158.5v-648zM338 250v557q0 14 1 24t4.5 21t11.5 17t20 6q10 0 20 -5.5t21.5 -18t14.5 -16.5t13 -18v-573 q-9 -13 -13.5 -19t-15 -18.5t-20.5 -18.5t-20 -6q-23 0 -30 19t-7 49z" />
<glyph unicode="r" horiz-adv-x="578" d="M76 0h271v710q0 64 29 98t85 34q15 0 90 -8l16 230q-50 8 -74 8q-83 0 -146 -101v86h-271v-1057z" />
<glyph unicode="s" horiz-adv-x="707" d="M27 796q0 -47 14.5 -91t43 -83.5t58 -70t69.5 -65.5l45 -38q36 -31 50.5 -44t41.5 -39.5t38.5 -43.5t21.5 -40t10 -44q0 -60 -51 -60q-17 0 -31.5 6.5t-26 21t-20 27.5t-17 34.5t-12.5 32t-11 31.5l-209 -75q35 -125 125 -201.5t214 -76.5q62 0 118.5 21.5t98.5 60 t66.5 94t24.5 118.5q0 45 -15.5 89.5t-45 85t-59.5 72.5t-70 68l-50 45q-69 58 -108 102t-39 79q0 27 15.5 47t43.5 20q21 0 41 -12t33 -27.5t27 -41t21 -41t16 -39.5l196 67q-16 57 -46 109.5t-71 94.5t-95.5 67t-112.5 25q-67 0 -127.5 -18.5t-109 -52.5t-77 -89.5 t-28.5 -124.5z" />
<glyph unicode="t" horiz-adv-x="541" d="M17 875h78v-512q0 -45 2 -79.5t8 -75t17 -71t30 -60t45.5 -48t64.5 -30t86 -11.5q103 0 157 16l16 211q-32 -4 -80 -4q-41 0 -57 21t-16 65v578h131v182h-131v348h-273v-348h-78v-182zM347 0z" />
<glyph unicode="u" horiz-adv-x="814" d="M70 205q0 -55 21.5 -106.5t65.5 -86.5t101 -35t112 32t96 83v-92h273v1057h-273v-815q-49 -60 -85 -60q-11 0 -18.5 7t-11 15.5t-5.5 23t-2.5 22.5t-0.5 21v786h-273v-852z" />
<glyph unicode="v" horiz-adv-x="722" d="M9 1057l219 -1057h277l209 1057h-256l-89 -714l-104 714h-256z" />
<glyph unicode="w" horiz-adv-x="1031" d="M22 1057l155 -1057h234l107 625l100 -625h235l156 1057h-210l-93 -665l-79 665h-206l-87 -652l-85 652h-227z" />
<glyph unicode="x" horiz-adv-x="746" d="M27 1057l195 -500l-194 -557h268l77 332l77 -332h269l-193 557l194 500h-270q-13 -61 -39.5 -173t-37.5 -158l-77 331h-269z" />
<glyph unicode="y" horiz-adv-x="706" d="M15 1057q6 -32 33.5 -152t56 -244.5t58.5 -263.5t44 -215q12 -64 12 -87q0 -83 -34 -119.5t-115 -38.5v-189h35q57 0 101 5t89 19.5t77 38.5t57.5 64.5t37.5 96.5l230 1085h-250l-86 -590l-98 590h-248z" />
<glyph unicode="z" horiz-adv-x="658" d="M46 0h573v198h-293l293 678v181h-527v-197h245l-291 -675v-185z" />
<glyph unicode="{" horiz-adv-x="617" d="M57 630q20 0 36.5 -3t27.5 -10t19 -15t12.5 -21.5t7 -24.5t3 -29t0.5 -30t-0.5 -33t-0.5 -33q0 -68 4.5 -121t16 -104.5t30.5 -90t48.5 -71t70 -53t96 -32t124.5 -11.5v180q-24 0 -44.5 4.5t-35 12t-26.5 21t-19.5 26t-13 33.5t-8.5 37t-5 42t-3 43.5t-2 47t-2 47.5 q-3 52 -9 90t-20.5 81.5t-42.5 77t-70 56.5q43 28 73.5 79t44.5 113t19.5 116.5t5.5 110.5q0 46 1 67t5.5 49.5t14 39.5t27 23.5t44.5 16t66 3.5v180q-77 0 -131.5 -6.5t-100 -23t-74 -43.5t-48.5 -70t-28 -100t-8 -136q0 -9 0.5 -36t1 -46t-1.5 -49t-5.5 -51.5t-11 -46 t-19 -39.5t-29 -25t-40.5 -10v-233z" />
<glyph unicode="|" horiz-adv-x="347" d="M109 -105h179v1702h-179v-1702z" />
<glyph unicode="}" horiz-adv-x="617" d="M57 -52q54 0 99.5 7t82 19.5t65.5 32.5t51 44t38 56t26.5 66t17 76.5t9 86t2.5 95.5q0 12 -0.5 36.5t-0.5 37t1.5 33t5 31.5t11 24.5t19 20.5t29 11.5t39.5 4.5v233q-22 0 -40 10t-29 25t-18.5 39.5t-11 46t-5.5 51.5t-1.5 49.5t1 46t0.5 35.5q0 79 -8 136.5t-28 100.5 t-48.5 69.5t-74.5 43t-100.5 23t-131.5 6.5v-180q39 0 66 -3.5t44.5 -16t27 -23.5t14 -39.5t5.5 -49.5t1 -67q0 -55 6 -110t20 -117.5t44.5 -114t72.5 -77.5q-30 -17 -52.5 -39t-37.5 -48.5t-25 -53t-15.5 -60.5t-8 -61t-4.5 -64q0 -10 -1 -31l-1.5 -46.5t-3 -42.5 t-5.5 -41.5t-9 -36t-13.5 -33t-19.5 -25.5t-26.5 -21t-34.5 -11.5t-44 -4.5v-180z" />
<glyph unicode="~" horiz-adv-x="832" d="M113 682h147q0 55 28 55q18 0 58 -18t88 -35.5t86 -17.5q64 0 108 36t63 90.5t19 121.5h-147q0 -55 -30 -55q-23 0 -62.5 17.5t-85 35t-83.5 17.5q-64 0 -108 -35.5t-63 -89.5t-18 -122z" />
<glyph unicode="&#xa1;" horiz-adv-x="403" d="M62 999h262v257h-262v-257zM106 0h218v956h-218v-956z" />
<glyph unicode="&#xa2;" horiz-adv-x="781" d="M70 323q0 -123 84.5 -204.5t207.5 -92.5v-239h73v239q121 13 203 94t82 203v103h-269q1 -28 1 -47t0.5 -26.5t0.5 -11.5q0 -52 -12.5 -76.5t-45.5 -24.5q-52 0 -52 89v411q0 33 11.5 57t40.5 24q36 0 47 -30.5t10 -92.5l-1 -60h269v46q0 158 -70 250t-215 104v232h-73 v-232q-148 -10 -220 -102.5t-72 -251.5v-361z" />
<glyph unicode="&#xa3;" horiz-adv-x="920" d="M68 0h765v230h-371v357h198v210h-198v178q0 282 57 282q11 0 19.5 -5.5t14 -17t10 -24t7 -31t4 -32t2 -33.5t1 -30t0.5 -27h265q0 51 -2.5 90t-10.5 86t-21.5 81t-37.5 68t-57.5 55.5t-82.5 35t-111 13.5q-65 0 -118 -16.5t-89 -43t-63 -66.5t-42.5 -82.5t-25 -96.5 t-12.5 -101t-3 -103v-180h-98v-210h98v-389l-98 -47v-151z" />
<glyph unicode="&#xa4;" horiz-adv-x="853" d="M97 469l73 -73l70 70q77 -51 187 -51t187 51l70 -70l73 73l-71 70q52 80 52 188q0 106 -52 185l71 71l-73 72l-70 -69q-77 51 -187 51t-187 -51l-70 69l-73 -72l70 -70q-51 -79 -51 -186q0 -109 51 -188zM271 727q0 72 39.5 122t116.5 50t116 -50.5t39 -122.5t-39.5 -123 t-115.5 -51q-71 0 -113.5 52t-42.5 123z" />
<glyph unicode="&#xa5;" horiz-adv-x="886" d="M41 1493q42 -153 122.5 -447t118.5 -434h-118v-158h158v-83h-158v-161h158v-210h232v210h157v161h-157v83h157v158h-121l242 881h-238l-157 -730l-157 730h-239z" />
<glyph unicode="&#xa6;" horiz-adv-x="357" d="M79 -12h190v538h-190v-538zM79 729h190v539h-190v-539z" />
<glyph unicode="&#xa7;" horiz-adv-x="832" d="M82 282q16 -64 43.5 -116.5t67.5 -93.5t95.5 -64t122.5 -23q94 0 166 31t116 97.5t44 161.5q0 120 -121 225q61 38 91 99t30 136q0 56 -22 107.5t-63.5 95t-84 76.5t-98.5 67q-17 10 -52.5 29t-51.5 29q-10 6 -18.5 14.5t-15 18.5t-10 22t-3.5 24q0 44 25 68.5t68 24.5 q90 0 151 -158l178 59q-31 132 -114.5 213.5t-214.5 81.5q-69 0 -128 -18t-103.5 -53t-70 -91t-25.5 -127q0 -63 38.5 -111t102.5 -89q-69 -36 -105 -101t-36 -147q0 -34 8 -65t19 -54t32 -46.5t37 -39t46 -35t47 -29.5t49 -28q3 -1 4.5 -2t3.5 -2l4 -2q67 -38 99 -64 q72 -57 72 -128q0 -29 -11.5 -50t-32.5 -32.5t-50 -11.5q-27 0 -52.5 15.5t-44 41.5t-31 51t-22.5 52zM318 770q0 32 18.5 61t47.5 47l35 -28q86 -74 86 -115q0 -56 -67 -91q-14 10 -35 22q-26 15 -41.5 27t-29.5 33t-14 44z" />
<glyph unicode="&#xa8;" horiz-adv-x="750" d="M94 1209h245v249h-245v-249zM461 1209h246v249h-246v-249z" />
<glyph unicode="&#xa9;" horiz-adv-x="1311" d="M67 586q0 -120 45 -230t122 -191t185 -129t228 -48t228.5 48.5t185.5 129.5t122 191t45 229q0 95 -28.5 185.5t-81.5 164.5t-124 130t-160.5 86.5t-186.5 30.5q-120 0 -228 -48t-185 -129t-122 -191t-45 -229zM230 582.5q0 87.5 31.5 169t85.5 144t132.5 100t167.5 37.5 t167.5 -38t132.5 -100t85.5 -144t31.5 -169t-31.5 -168.5t-85.5 -144t-132.5 -100t-167.5 -37.5t-167.5 37.5t-132.5 100t-85.5 144t-31.5 169zM399 516.5q0 -24.5 2.5 -62.5t7 -62.5t13.5 -56.5t21.5 -52.5t32 -42t43.5 -34t57.5 -21t73.5 -8.5q65 0 113 24.5t76.5 68.5 t42.5 101t14 126h-170v-23t-1 -26t-3 -30.5t-5 -27.5t-8.5 -27t-13.5 -20t-19 -16t-25.5 -5t-24.5 2.5t-20.5 9.5t-17.5 19t-13.5 32t-10 48.5t-6 68t-2.5 89.5q0 100 11.5 157t32.5 79t58 22q16 0 28 -8t19 -24t11 -30.5t5.5 -36.5t2 -32.5t0.5 -28.5h173q0 51 -7 93.5 t-24 82t-44 66.5t-69.5 43.5t-96.5 16.5q-53 0 -94.5 -13.5t-68.5 -32.5t-45.5 -54.5t-28 -64.5t-14.5 -79t-5.5 -81t-0.5 -86v-63.5z" />
<glyph unicode="&#xaa;" horiz-adv-x="733" d="M49 698q0 -69 50 -119t119 -50q87 0 143 78l11 -69h181q-9 40 -11.5 98.5t0.5 115t4 120.5t-0.5 119.5t-15.5 107t-38.5 88.5t-70.5 59t-112 22q-74 0 -127.5 -37.5t-79.5 -96t-27 -131.5h169q0 123 62 123q51 0 51 -101v-70q-6 -2 -17 -5q-29 -10 -44.5 -15t-44.5 -15.5 t-45 -18t-40.5 -21t-39 -25.5t-31 -29.5t-25.5 -36t-15 -42t-6 -49.5zM231 735q0 17 10 34.5t20.5 29t33.5 27.5t31 20.5t31 17.5v-133q-11 -23 -33 -38t-46 -15t-35.5 16t-11.5 41z" />
<glyph unicode="&#xab;" horiz-adv-x="853" d="M64 467l363 -415v259l-207 208l207 207v259l-363 -415v-103zM427 467l363 -415v259l-208 208l208 207v259l-363 -415v-103z" />
<glyph unicode="&#xac;" horiz-adv-x="671" d="M110 367h315v-157h128v338h-443v-181z" />
<glyph unicode="&#xad;" horiz-adv-x="651" d="M115 351h438v206h-438v-206z" />
<glyph unicode="&#xae;" horiz-adv-x="1311" d="M67 586q0 -120 45 -230t122 -191t185 -129t228 -48t228.5 48.5t185.5 129.5t122 191t45 229q0 95 -28.5 185.5t-81.5 164.5t-124 130t-160.5 86.5t-186.5 30.5q-120 0 -228 -48t-185 -129t-122 -191t-45 -229zM230 582.5q0 87.5 31.5 169t85.5 144t132.5 100t167.5 37.5 t167.5 -38t132.5 -100t85.5 -144t31.5 -169t-31.5 -168.5t-85.5 -144t-132.5 -100t-167.5 -37.5t-167.5 37.5t-132.5 100t-85.5 144t-31.5 169zM433 203h150v316h47l105 -316h162q-8 22 -42.5 103.5t-54 138t-29.5 107.5q102 62 102 192q0 236 -232 236h-208v-777zM583 620 v240h46q90 0 90 -113q0 -75 -24.5 -101t-95.5 -26h-16z" />
<glyph unicode="&#xaf;" horiz-adv-x="347" d="M-29 1180h411v156h-411v-156z" />
<glyph unicode="&#xb0;" horiz-adv-x="886" d="M112 1181.5q0 -149.5 88 -238t237 -88.5q100 0 174.5 40t114 114t39.5 173q0 149 -89 237t-239 88q-149 0 -237 -88t-88 -237.5zM292 1182q0 70 38.5 116.5t106.5 46.5q47 0 80.5 -23t49.5 -59t16 -82q0 -70 -38.5 -117t-107.5 -47q-68 0 -106.5 47.5t-38.5 117.5z" />
<glyph unicode="&#xb1;" horiz-adv-x="724" d="M111 0h494v181h-494v-181zM111 472h156v-157h182v157h156v181h-156v157h-182v-157h-156v-181z" />
<glyph unicode="&#xb2;" horiz-adv-x="563" d="M57 472h443v129h-251q11 15 57 71.5t73 92.5q121 160 121 243q0 104 -59 163t-162 59q-107 0 -164.5 -63t-57.5 -170h180v11.5v14.5t0.5 14.5t1.5 16t3 14.5t5 13.5t7.5 10.5t10.5 7.5t14 2.5q7 0 13 -2t10 -6.5t7 -9t5 -12t3 -12.5t1.5 -14.5t0.5 -13v-13v-11.5 q0 -50 -71 -162q-23 -35 -54.5 -78t-55 -73t-49.5 -62.5t-32 -40.5v-120z" />
<glyph unicode="&#xb3;" horiz-adv-x="671" d="M110 757q0 -107 57.5 -169.5t163.5 -62.5q105 0 163.5 58.5t58.5 162.5q0 114 -107 157q107 43 107 158q0 104 -58.5 162.5t-163.5 58.5q-106 0 -163.5 -62.5t-57.5 -169.5h180v11v14.5t0.5 15t1.5 16t3 14.5t5 14t7.5 10t10.5 7.5t13 2.5q15 0 24.5 -8t12.5 -24t4 -26.5 t1 -28.5v-7q0 -55 -23 -74t-83 -19v-128q60 0 83 -19t23 -75v-7q0 -18 -1 -28.5t-4 -26t-12.5 -23.5t-24.5 -8q-7 0 -13 2t-10.5 7.5t-7.5 10.5t-5 13.5t-3 14t-1.5 16t-0.5 15v14.5v11h-180z" />
<glyph unicode="&#xb4;" horiz-adv-x="516" d="M92 1128h165l224 358h-279z" />
<glyph unicode="&#xb5;" horiz-adv-x="877" d="M109 -145h271v140q68 29 123 97v-92h272v1057h-272l1 -815q-15 -19 -23 -28t-27.5 -23t-35.5 -14q-38 0 -38 68q0 5 0.5 14t0.5 12v786h-272v-1202z" />
<glyph unicode="&#xb6;" horiz-adv-x="826" d="M19 999q0 -129 84.5 -203t215.5 -78v-718h184v718h92v-718h169v1282h-400q-59 0 -109 -9t-94.5 -30t-75.5 -53t-48.5 -80.5t-17.5 -110.5z" />
<glyph unicode="&#xb7;" horiz-adv-x="421" d="M80 550h262v255h-262v-255z" />
<glyph unicode="&#xb8;" horiz-adv-x="473" d="M107 -324v-130h56t63.5 3.5t70.5 9t64 17.5t57 28.5t37 43t15 59.5q0 104 -179 189v104h-139v-196q2 -1 12 -4.5t15.5 -5.5t16.5 -6.5t18.5 -8t17.5 -9t17 -10t14.5 -11t12 -12.5t7.5 -13t3 -14q0 -9 -8.5 -15.5t-23 -10t-31 -6t-36.5 -3t-34 -0.5t-29 0.5t-17 0.5z" />
<glyph unicode="&#xb9;" horiz-adv-x="455" d="M56 997h104v-472h181v757h-70q-73 -90 -215 -161v-124z" />
<glyph unicode="&#xba;" horiz-adv-x="781" d="M4 348q0 -65 8.5 -118t29.5 -99t54.5 -77t85.5 -48.5t121 -17.5q80 0 139 28t93 78.5t50.5 113.5t16.5 140v261q0 76 -16.5 139.5t-50.5 113.5t-93.5 78.5t-138.5 28.5q-69 0 -121 -18t-85.5 -48.5t-54.5 -76.5t-29.5 -98.5t-8.5 -118.5v-261zM202 332.5v35.5v4.5v4v5.5 v193v14v35.5t1.5 35.5t5 37t10.5 32t17.5 28t26.5 17t36 7q15 0 28 -4t22.5 -10t16.5 -16.5t11.5 -19.5t8 -24.5t5 -25.5t2 -27.5t0.5 -27v-27v-24.5v-193v-24.5v-27t-0.5 -27t-2 -28t-5 -25.5t-8 -24.5t-11.5 -20t-16.5 -16.5t-22.5 -10t-28 -4q-20 0 -36 7t-26.5 17 t-17.5 28t-10.5 32.5t-5 37.5t-1.5 35.5z" />
<glyph unicode="&#xbb;" horiz-adv-x="853" d="M64 52l363 415v103l-363 415v-259l207 -207l-207 -208v-259zM427 52l363 415v103l-363 415v-259l207 -207l-207 -208v-259z" />
<glyph unicode="&#xbc;" horiz-adv-x="1372" d="M56 997h104v-472h181v757h-70q-73 -90 -215 -161v-124zM343 0h145l469 1486h-146zM758 198h263v-210h179v210h106v128h-106v472h-158l-284 -480v-120zM945 326l76 149v-149h-76z" />
<glyph unicode="&#xbd;" horiz-adv-x="1372" d="M56 997h104v-472h181v757h-70q-73 -90 -215 -161v-124zM343 0h145l469 1486h-146zM865 -12h443v129h-251q11 14 57 71t73 93q121 159 121 243q0 41 -9.5 76t-28.5 61.5t-45.5 45.5t-61.5 28.5t-76 9.5q-107 0 -164.5 -62.5t-57.5 -169.5h181q0 2 -0.5 11t0 14.5t0.5 15 t1.5 15.5t3 14.5t5 13.5t7.5 10t10 7.5t14 2.5q7 0 12.5 -2t9.5 -4.5t7 -7.5t5 -9.5t3.5 -11.5t2 -12t1 -13t0.5 -12v-11.5v-9.5q0 -51 -72 -162q-30 -46 -68.5 -97.5t-79.5 -102.5t-43 -54v-120z" />
<glyph unicode="&#xbe;" horiz-adv-x="1534" d="M110 757q0 -107 57.5 -169.5t163.5 -62.5q105 0 163.5 58.5t58.5 162.5q0 114 -107 157q107 43 107 158q0 104 -58.5 162.5t-163.5 58.5q-106 0 -163.5 -62.5t-57.5 -169.5h180v11v14.5t0.5 15t1.5 16t3 14.5t5 14t7.5 10t10.5 7.5t13 2.5q15 0 24.5 -8t12.5 -24t4 -26.5 t1 -28.5v-7q0 -55 -23 -74t-83 -19v-128q60 0 83 -19t23 -75v-7q0 -18 -1 -28.5t-4 -26t-12.5 -23.5t-24.5 -8q-7 0 -13 2t-10.5 7.5t-7.5 10.5t-5 13.5t-3 14t-1.5 16t-0.5 15v14.5v11h-180zM475 0h145l469 1486h-146zM866 198h262v-210h180v210h105v128h-105v472h-158 l-284 -480v-120zM1053 326l75 149v-149h-75z" />
<glyph unicode="&#xbf;" horiz-adv-x="957" d="M201 339q0 -177 98 -272t277 -95q90 0 159 26t111 73.5t63 109t21 137.5q0 79 -24 170l-254 -49q15 -50 15 -100q0 -36 -9 -64t-30 -46.5t-52 -18.5q-50 0 -76 28.5t-26 83.5q0 44 11.5 88t32 83.5t47 77t59 71t65.5 61.5t68 52v314h-270v-227q-135 -77 -210.5 -211.5 t-75.5 -291.5zM487 1196h270v262h-270v-262z" />
<glyph unicode="&#xc0;" d="M15 0h292l57 312h190l60 -312h291l-315 1458h-260zM154 1888l224 -358h166l-110 358h-280zM384 493l77 541l74 -541h-151z" />
<glyph unicode="&#xc1;" d="M15 0h292l57 312h190l60 -312h291l-315 1458h-260zM365 1530h166l224 358h-280zM384 493l77 541l74 -541h-151z" />
<glyph unicode="&#xc2;" d="M15 0h292l57 312h190l60 -312h291l-315 1458h-260zM179 1530h222l59 164l61 -164h223l-167 329h-235zM384 493l77 541l74 -541h-151z" />
<glyph unicode="&#xc3;" d="M15 0h292l57 312h190l60 -312h291l-315 1458h-260zM166 1560h135v4q0 11 1 17t4 14t12 11.5t23 3.5q38 0 122 -29.5t124 -29.5q127 0 127 242h-126q0 -13 -1 -19.5t-7.5 -12.5t-19.5 -6q-20 0 -59 12t-89.5 23.5t-95.5 11.5q-27 0 -49 -7t-37.5 -19t-27 -30.5 t-18.5 -38.5t-11 -45.5t-5.5 -49t-1.5 -52.5zM384 493l77 541l74 -541h-151z" />
<glyph unicode="&#xc4;" d="M15 0h292l57 312h190l60 -312h291l-315 1458h-260zM151 1610h246v250h-246v-250zM384 493l77 541l74 -541h-151zM518 1610h247v250h-247v-250z" />
<glyph unicode="&#xc5;" d="M15 0h292l57 312h190l60 -312h291l-315 1458h-260zM237 1748.5q0 -88.5 58 -141t147.5 -52.5t147 52.5t57.5 141.5q0 88 -58 140.5t-147 52.5t-147 -52.5t-58 -141zM377 1750q0 21 6 41.5t21.5 36.5t37.5 16q32 0 47.5 -30.5t15.5 -65.5t-15.5 -65t-47.5 -30 q-33 0 -49 30.5t-16 66.5zM384 493l77 541l74 -541h-151z" />
<glyph unicode="&#xc6;" horiz-adv-x="1303" d="M36 0h311l115 312h230v-312h586v202h-313v449h222v208h-222v397h313v202h-616zM521 493l171 465v-465h-171z" />
<glyph unicode="&#xc7;" horiz-adv-x="950" d="M68 487q0 -88 12.5 -162t43 -140.5t78 -112.5t121 -73t168.5 -27q92 0 163.5 27.5t116 73.5t74 112.5t41.5 137t13 153.5l1 123h-288v-149q0 -39 -2 -70.5t-9.5 -66.5t-20 -58.5t-35.5 -39.5t-54 -16q-128 0 -128 215v629q0 216 128 216q27 0 47.5 -10.5t33 -31 t20.5 -42.5t12 -53.5t5 -55.5t1 -57v-134h290v125q0 87 -13.5 159t-44 133.5t-77 104t-116 66t-158.5 23.5q-423 0 -423 -516v-483zM374 -324v-130h56t64 3.5t70.5 9t64 17.5t57 28.5t36.5 43t15 59.5q0 104 -179 189v104h-138v-196q2 -1 11.5 -4.5t15.5 -5.5t17 -6.5t18 -8 t17.5 -9t17 -10t14 -11t12 -12.5t7.5 -13t3 -14q0 -9 -8 -15.5t-23 -10t-31 -6t-36 -3t-34 -0.5t-29.5 0.5t-17.5 0.5z" />
<glyph unicode="&#xc8;" horiz-adv-x="720" d="M75 1902l224 -358h166l-110 358h-280zM87 0h608v202h-313v449h221v208h-221v397h313v202h-608v-1458z" />
<glyph unicode="&#xc9;" horiz-adv-x="720" d="M87 0h608v202h-313v449h221v208h-221v397h313v202h-608v-1458zM286 1544h165l225 358h-280z" />
<glyph unicode="&#xca;" horiz-adv-x="720" d="M87 0h608v202h-313v449h221v208h-221v397h313v202h-608v-1458zM100 1544h222l59 163l60 -163h223l-167 329h-235z" />
<glyph unicode="&#xcb;" horiz-adv-x="720" d="M72 1624h246v250h-246v-250zM87 0h608v202h-313v449h221v208h-221v397h313v202h-608v-1458zM439 1624h246v250h-246v-250z" />
<glyph unicode="&#xcc;" horiz-adv-x="468" d="M-70 1888l225 -358h166l-110 358h-281zM87 0h295v1458h-295v-1458z" />
<glyph unicode="&#xcd;" horiz-adv-x="468" d="M87 0h295v1458h-295v-1458zM142 1530h165l224 358h-279z" />
<glyph unicode="&#xce;" horiz-adv-x="468" d="M-45 1530h222l60 164l60 -164h223l-167 329h-235zM87 0h295v1458h-295v-1458z" />
<glyph unicode="&#xcf;" horiz-adv-x="468" d="M-72 1610h245v250h-245v-250zM87 0h295v1458h-295v-1458zM295 1610h246v250h-246v-250z" />
<glyph unicode="&#xd0;" horiz-adv-x="936" d="M12 655h67v-655h301q70 0 127.5 6.5t103.5 18.5t82 31.5t62.5 43t46 56.5t32 68.5t20 82t10.5 94t3 107.5v478q0 73 -6.5 130.5t-21.5 108t-40 86.5t-61.5 65t-87.5 46.5t-117 26.5t-150 9h-304v-622h-67v-181zM373 207v448h101v181h-101v415h9q52 -1 84 -5t58 -16.5 t37 -36.5t11 -62v-785q0 -28 -3 -48.5t-8 -35.5t-16.5 -24.5t-24 -16t-34.5 -9.5t-44 -4t-56 -1h-13z" />
<glyph unicode="&#xd1;" horiz-adv-x="950" d="M87 0h253v809l319 -809h204v1459h-244v-763l-320 763h-212v-1459zM179 1560h135v4q0 11 1 17t4 14t12 11.5t23 3.5q38 0 122 -29.5t124 -29.5q127 0 127 242h-126q0 -13 -1 -19.5t-7.5 -12.5t-19.5 -6q-20 0 -59.5 12t-89.5 23.5t-95 11.5q-27 0 -49 -7t-37.5 -19 t-27 -30.5t-18.5 -38.5t-11 -45.5t-5.5 -49t-1.5 -52.5z" />
<glyph unicode="&#xd2;" horiz-adv-x="989" d="M68 480q0 -88 13 -161.5t44.5 -139t79.5 -110.5t121.5 -71t167.5 -26q95 0 168.5 26.5t121.5 73t79.5 113t44.5 140.5t13 162v483q0 516 -427 516q-426 0 -426 -516v-490zM189 1888l224 -358h166l-110 358h-280zM363 413v630q0 31 2.5 58t11.5 57t22.5 51.5t38 35.5 t56.5 14q132 0 132 -216v-630q0 -215 -132 -215q-131 0 -131 215z" />
<glyph unicode="&#xd3;" horiz-adv-x="989" d="M68 480q0 -88 13 -161.5t44.5 -139t79.5 -110.5t121.5 -71t167.5 -26q95 0 168.5 26.5t121.5 73t79.5 113t44.5 140.5t13 162v483q0 516 -427 516q-426 0 -426 -516v-490zM363 413v630q0 31 2.5 58t11.5 57t22.5 51.5t38 35.5t56.5 14q132 0 132 -216v-630 q0 -215 -132 -215q-131 0 -131 215zM400 1530h165l225 358h-280z" />
<glyph unicode="&#xd4;" horiz-adv-x="989" d="M68 480q0 -88 13 -161.5t44.5 -139t79.5 -110.5t121.5 -71t167.5 -26q95 0 168.5 26.5t121.5 73t79.5 113t44.5 140.5t13 162v483q0 516 -427 516q-426 0 -426 -516v-490zM214 1530h222l59 164l61 -164h222l-166 329h-235zM363 413v630q0 31 2.5 58t11.5 57t22.5 51.5 t38 35.5t56.5 14q132 0 132 -216v-630q0 -215 -132 -215q-131 0 -131 215z" />
<glyph unicode="&#xd5;" horiz-adv-x="989" d="M68 480q0 -88 13 -161.5t44.5 -139t79.5 -110.5t121.5 -71t167.5 -26q95 0 168.5 26.5t121.5 73t79.5 113t44.5 140.5t13 162v483q0 516 -427 516q-426 0 -426 -516v-490zM220 1560h136v4q0 11 0.5 17t4 14t12 11.5t22.5 3.5q38 0 122 -29.5t125 -29.5q126 0 126 242 h-126q0 -13 -1 -19.5t-7.5 -12.5t-19.5 -6q-19 0 -58.5 12t-89.5 23.5t-96 11.5q-38 0 -65.5 -13.5t-43.5 -35.5t-25.5 -55t-12.5 -65t-3 -73zM363 413v630q0 31 2.5 58t11.5 57t22.5 51.5t38 35.5t56.5 14q132 0 132 -216v-630q0 -215 -132 -215q-131 0 -131 215z" />
<glyph unicode="&#xd6;" horiz-adv-x="989" d="M68 480q0 -88 13 -161.5t44.5 -139t79.5 -110.5t121.5 -71t167.5 -26q95 0 168.5 26.5t121.5 73t79.5 113t44.5 140.5t13 162v483q0 516 -427 516q-426 0 -426 -516v-490zM186 1610h246v250h-246v-250zM363 413v630q0 31 2.5 58t11.5 57t22.5 51.5t38 35.5t56.5 14 q132 0 132 -216v-630q0 -215 -132 -215q-131 0 -131 215zM553 1610h246v250h-246v-250z" />
<glyph unicode="&#xd7;" horiz-adv-x="671" d="M53 379l121 -121l157 158l158 -158l121 121q-53 51 -157 157l157 157l-121 123l-158 -158l-157 158l-121 -123l157 -157z" />
<glyph unicode="&#xd8;" horiz-adv-x="989" d="M68 480q0 -162 48 -280.5t155 -177.5l-62 -224l78 -17l57 211q69 -20 150 -20q95 0 168.5 26.5t121.5 73t79.5 113t44.5 140.5t13 162v483q0 334 -182 453l65 235l-79 16l-59 -215q-75 27 -172 27q-426 0 -426 -516v-490zM363 406v637q0 31 2.5 58t11.5 57t22.5 51.5 t38 35.5t56.5 14t56.5 -14t38.5 -35.5t22.5 -51.5t11 -57t2.5 -58l1 -637q0 -215 -131 -215q-132 0 -132 215z" />
<glyph unicode="&#xd9;" horiz-adv-x="1010" d="M80 542q0 -70 4 -126.5t15.5 -117.5t31 -107t52 -89t76.5 -70.5t106.5 -43.5t140 -16t140 16t106.5 43.5t76.5 70.5t52 89t31 107t15.5 117.5t4 126.5v916h-295v-907v-5q0 -77 -0.5 -111.5t-4.5 -84.5t-11.5 -70t-22 -43t-37 -30.5t-55 -7.5t-55 7.5t-37 31t-22.5 44 t-11.5 71t-4 85.5t-0.5 113v907h-295v-916zM202 1888l224 -358h166l-110 358h-280z" />
<glyph unicode="&#xda;" horiz-adv-x="1010" d="M80 542q0 -70 4 -126.5t15.5 -117.5t31 -107t52 -89t76.5 -70.5t106.5 -43.5t140 -16t140 16t106.5 43.5t76.5 70.5t52 89t31 107t15.5 117.5t4 126.5v916h-295v-907v-5q0 -77 -0.5 -111.5t-4.5 -84.5t-11.5 -70t-22 -43t-37 -30.5t-55 -7.5t-55 7.5t-37 31t-22.5 44 t-11.5 71t-4 85.5t-0.5 113v907h-295v-916zM413 1530h165l225 358h-280z" />
<glyph unicode="&#xdb;" horiz-adv-x="1010" d="M80 542q0 -70 4 -126.5t15.5 -117.5t31 -107t52 -89t76.5 -70.5t106.5 -43.5t140 -16t140 16t106.5 43.5t76.5 70.5t52 89t31 107t15.5 117.5t4 126.5v916h-295v-907v-5q0 -77 -0.5 -111.5t-4.5 -84.5t-11.5 -70t-22 -43t-37 -30.5t-55 -7.5t-55 7.5t-37 31t-22.5 44 t-11.5 71t-4 85.5t-0.5 113v907h-295v-916zM227 1530h222l59 164l61 -164h222l-166 329h-235z" />
<glyph unicode="&#xdc;" horiz-adv-x="1010" d="M80 542q0 -70 4 -126.5t15.5 -117.5t31 -107t52 -89t76.5 -70.5t106.5 -43.5t140 -16t140 16t106.5 43.5t76.5 70.5t52 89t31 107t15.5 117.5t4 126.5v916h-295v-907v-5q0 -77 -0.5 -111.5t-4.5 -84.5t-11.5 -70t-22 -43t-37 -30.5t-55 -7.5t-55 7.5t-37 31t-22.5 44 t-11.5 71t-4 85.5t-0.5 113v907h-295v-916zM199 1610h246v250h-246v-250zM566 1610h246v250h-246v-250z" />
<glyph unicode="&#xdd;" horiz-adv-x="838" d="M2 1458l274 -976v-482h285v482l275 976h-270q-25 -105 -75 -320t-75 -321l-136 641h-278zM322 1530h166l224 358h-279z" />
<glyph unicode="&#xde;" horiz-adv-x="826" d="M79 0h294v433h12q66 1 119 9.5t100.5 27.5t81.5 51t59 78t37.5 109.5t12.5 145.5q0 201 -87 307t-277 106h-58v191h-294v-1458zM373 641v416h17q23 0 41 -3.5t31 -12t22 -16.5t15 -24t9.5 -28t5 -34.5t1.5 -37v-42.5q0 -55 -1 -80.5t-7.5 -58.5t-20 -46.5t-38 -23 t-62.5 -9.5h-13z" />
<glyph unicode="&#xdf;" horiz-adv-x="966" d="M80 0h297v1104q0 26 0.5 42.5t3 40t9 38.5t16 30t26.5 22t39 7q17 0 30.5 -6.5t22.5 -16t15.5 -25.5t10 -31t5.5 -36.5t2.5 -37.5t0.5 -38q0 -40 -6.5 -77t-20 -72.5t-40 -57t-63.5 -21.5v-205q95 0 143.5 -61.5t48.5 -165.5q0 -71 -7 -115.5t-27.5 -79t-59 -49.5 t-98.5 -15v-202q244 0 362.5 105.5t118.5 323.5q0 63 -17 122.5t-50.5 113t-90.5 94t-131 60.5q74 28 121.5 76.5t66.5 103.5t19 122q0 187 -94.5 290t-278.5 103q-95 0 -168 -31t-117 -85t-66.5 -122.5t-22.5 -147.5v-1100z" />
<glyph unicode="&#xe0;" horiz-adv-x="790" d="M47 236q0 -49 12 -93t36.5 -82.5t68.5 -61t102 -22.5q79 0 132.5 29t76.5 103l27 -109h250q-35 151 -35 281v502q0 80 -42.5 149t-113 109t-149.5 40q-174 0 -265.5 -97.5t-91.5 -279.5h265v60q0 19 0.5 31.5t4 29.5t10.5 26.5t19.5 16.5t31.5 7q22 0 35.5 -13.5t19 -37 t5.5 -60.5v-89q-55 -23 -91.5 -39.5t-82.5 -41.5t-75.5 -48t-60.5 -56t-48.5 -69t-29 -83.5t-11.5 -101.5zM106 1487l224 -358h167l-111 358h-280zM313 261q0 130 133 238l1 -260q-15 -19 -22 -27t-23.5 -19t-33.5 -11q-30 0 -42.5 23.5t-12.5 55.5z" />
<glyph unicode="&#xe1;" horiz-adv-x="790" d="M47 236q0 -49 12 -93t36.5 -82.5t68.5 -61t102 -22.5q79 0 132.5 29t76.5 103l27 -109h250q-35 151 -35 281v502q0 80 -42.5 149t-113 109t-149.5 40q-174 0 -265.5 -97.5t-91.5 -279.5h265v60q0 19 0.5 31.5t4 29.5t10.5 26.5t19.5 16.5t31.5 7q22 0 35.5 -13.5t19 -37 t5.5 -60.5v-89q-55 -23 -91.5 -39.5t-82.5 -41.5t-75.5 -48t-60.5 -56t-48.5 -69t-29 -83.5t-11.5 -101.5zM313 261q0 130 133 238l1 -260q-15 -19 -22 -27t-23.5 -19t-33.5 -11q-30 0 -42.5 23.5t-12.5 55.5zM318 1129h165l224 358h-279z" />
<glyph unicode="&#xe2;" horiz-adv-x="790" d="M47 236q0 -49 12 -93t36.5 -82.5t68.5 -61t102 -22.5q79 0 132.5 29t76.5 103l27 -109h250q-35 151 -35 281v502q0 80 -42.5 149t-113 109t-149.5 40q-174 0 -265.5 -97.5t-91.5 -279.5h265v60q0 19 0.5 31.5t4 29.5t10.5 26.5t19.5 16.5t31.5 7q22 0 35.5 -13.5t19 -37 t5.5 -60.5v-89q-55 -23 -91.5 -39.5t-82.5 -41.5t-75.5 -48t-60.5 -56t-48.5 -69t-29 -83.5t-11.5 -101.5zM131 1129h222l59 164l61 -164h223l-167 329h-235zM313 261q0 130 133 238l1 -260q-15 -19 -22 -27t-23.5 -19t-33.5 -11q-30 0 -42.5 23.5t-12.5 55.5z" />
<glyph unicode="&#xe3;" horiz-adv-x="790" d="M47 236q0 -49 12 -93t36.5 -82.5t68.5 -61t102 -22.5q79 0 132.5 29t76.5 103l27 -109h250q-35 151 -35 281v502q0 80 -42.5 149t-113 109t-149.5 40q-174 0 -265.5 -97.5t-91.5 -279.5h265v60q0 19 0.5 31.5t4 29.5t10.5 26.5t19.5 16.5t31.5 7q22 0 35.5 -13.5t19 -37 t5.5 -60.5v-89q-55 -23 -91.5 -39.5t-82.5 -41.5t-75.5 -48t-60.5 -56t-48.5 -69t-29 -83.5t-11.5 -101.5zM118 1159h136v4q-1 11 0 17t4.5 14t12 11.5t22.5 3.5q38 0 122 -29.5t124 -29.5q127 0 127 242h-126q0 -13 -1 -19.5t-7.5 -12.5t-19.5 -6q-19 0 -58.5 12 t-89.5 23.5t-96 11.5q-38 0 -65.5 -13.5t-43.5 -35.5t-25.5 -55t-12.5 -65t-3 -73zM313 261q0 130 133 238l1 -260q-15 -19 -22 -27t-23.5 -19t-33.5 -11q-30 0 -42.5 23.5t-12.5 55.5z" />
<glyph unicode="&#xe4;" horiz-adv-x="790" d="M47 236q0 -49 12 -93t36.5 -82.5t68.5 -61t102 -22.5q79 0 132.5 29t76.5 103l27 -109h250q-35 151 -35 281v502q0 80 -42.5 149t-113 109t-149.5 40q-174 0 -265.5 -97.5t-91.5 -279.5h265v60q0 19 0.5 31.5t4 29.5t10.5 26.5t19.5 16.5t31.5 7q22 0 35.5 -13.5t19 -37 t5.5 -60.5v-89q-55 -23 -91.5 -39.5t-82.5 -41.5t-75.5 -48t-60.5 -56t-48.5 -69t-29 -83.5t-11.5 -101.5zM104 1209h245v250h-245v-250zM313 261q0 130 133 238l1 -260q-15 -19 -22 -27t-23.5 -19t-33.5 -11q-30 0 -42.5 23.5t-12.5 55.5zM471 1209h246v250h-246v-250z" />
<glyph unicode="&#xe5;" horiz-adv-x="790" d="M47 236q0 -49 12 -93t36.5 -82.5t68.5 -61t102 -22.5q79 0 132.5 29t76.5 103l27 -109h250q-35 151 -35 281v502q0 80 -42.5 149t-113 109t-149.5 40q-174 0 -265.5 -97.5t-91.5 -279.5h265v60q0 19 0.5 31.5t4 29.5t10.5 26.5t19.5 16.5t31.5 7q22 0 35.5 -13.5t19 -37 t5.5 -60.5v-89q-55 -23 -91.5 -39.5t-82.5 -41.5t-75.5 -48t-60.5 -56t-48.5 -69t-29 -83.5t-11.5 -101.5zM190 1348q0 -59 26.5 -103.5t73 -67.5t104.5 -23q90 0 147.5 52.5t57.5 141.5q0 88 -58 140.5t-147 52.5t-146.5 -52t-57.5 -141zM313 261q0 130 133 238l1 -260 q-15 -19 -22 -27t-23.5 -19t-33.5 -11q-30 0 -42.5 23.5t-12.5 55.5zM329 1349q0 35 16.5 64.5t48.5 29.5t48 -30.5t16 -65.5t-16 -65t-48 -30q-17 0 -30 9.5t-20.5 24.5t-11 31t-3.5 32z" />
<glyph unicode="&#xe6;" horiz-adv-x="1155" d="M51 236q0 -51 14.5 -94t39.5 -73t58.5 -51t72.5 -31t81 -10q71 0 143.5 37.5t108.5 102.5q19 -61 82.5 -100.5t135.5 -39.5h13q134 7 217.5 86t83.5 212v119h-271q0 -7 1.5 -35.5t1.5 -47.5q0 -120 -57 -120q-52 0 -52 89v251l18 3q37 6 59 10t65 15t71 23.5t63.5 34 t56.5 47t36 63t15 81.5q0 46 -23.5 94.5t-64 88t-101 65t-127.5 25.5q-60 0 -117 -22.5t-93 -59.5q-29 35 -75 58t-91 24q-3 0 -11 0.5t-11 0.5q-158 0 -246.5 -101t-88.5 -277h265q0 8 -1 30.5t-1 35.5q0 97 58 97q23 0 38 -14.5t21.5 -40t8.5 -47.5t2 -51v-110 q-44 -10 -74 -18t-68 -20.5t-63 -24t-54.5 -28t-48.5 -35t-38 -43.5t-29.5 -54t-17 -66t-6.5 -79zM296 287q0 15 1.5 28t6 28t11.5 28t20 27.5t30.5 27t43 25.5t57.5 24q5 -119 5 -134q0 -67 -25 -113t-74 -46q-37 0 -56.5 32t-19.5 73zM724 651v130q0 18 8 39t24 37t36 16 q32 0 53.5 -13t30.5 -32.5t9 -43.5q0 -28 -16.5 -52.5t-40 -38.5t-47.5 -24t-40 -14z" />
<glyph unicode="&#xe7;" horiz-adv-x="751" d="M63 271q0 -88 45.5 -156t119 -103t160.5 -35q65 0 123.5 20.5t103.5 57.5t71.5 93t26.5 123v157h-268v-112q0 -25 -0.5 -40t-2.5 -32.5t-5.5 -27t-10 -18.5t-16 -12.5t-22.5 -3.5q-52 0 -52 89v524q0 32 11.5 56t40.5 24q19 0 30.5 -8.5t17 -26.5t7.5 -37t2 -51v-120h268 v92q0 83 -19 148t-58 112t-101.5 72t-146.5 25q-165 0 -245 -94t-80 -263v-453zM270 -324v-130h56t63.5 3.5t70.5 9t64 17.5t56.5 28.5t37 43t15.5 59.5q0 104 -179 189v104h-139v-196q2 -1 12 -4.5t15.5 -5.5t16.5 -6.5t18 -8t17.5 -9t17.5 -10t14.5 -11t12 -12.5t7.5 -13 t3 -14q0 -9 -8.5 -15.5t-23.5 -10t-31 -6t-36 -3t-34 -0.5t-29 0.5t-17 0.5z" />
<glyph unicode="&#xe8;" horiz-adv-x="761" d="M63 275q0 -88 45.5 -157t119.5 -105t160 -36q87 0 160.5 36t119 105t45.5 157v119h-268v-116q0 -96 -57 -96q-52 0 -52 89v234h377v219q0 83 -19 148t-58 112t-101.5 72t-146.5 25q-165 0 -245 -94t-80 -263v-449zM85 1487l224 -358h166l-110 358h-280zM336 649v146 q0 32 11.5 56t40.5 24q54 0 54 -80v-146h-106z" />
<glyph unicode="&#xe9;" horiz-adv-x="761" d="M63 275q0 -88 45.5 -157t119.5 -105t160 -36q87 0 160.5 36t119 105t45.5 157v119h-268v-116q0 -96 -57 -96q-52 0 -52 89v234h377v219q0 83 -19 148t-58 112t-101.5 72t-146.5 25q-165 0 -245 -94t-80 -263v-449zM296 1129h166l224 358h-279zM336 649v146q0 32 11.5 56 t40.5 24q54 0 54 -80v-146h-106z" />
<glyph unicode="&#xea;" horiz-adv-x="761" d="M63 275q0 -88 45.5 -157t119.5 -105t160 -36q87 0 160.5 36t119 105t45.5 157v119h-268v-116q0 -96 -57 -96q-52 0 -52 89v234h377v219q0 83 -19 148t-58 112t-101.5 72t-146.5 25q-165 0 -245 -94t-80 -263v-449zM110 1129h222l59 164l61 -164h223l-167 329h-235z M336 649v146q0 32 11.5 56t40.5 24q54 0 54 -80v-146h-106z" />
<glyph unicode="&#xeb;" horiz-adv-x="761" d="M63 275q0 -88 45.5 -157t119.5 -105t160 -36q87 0 160.5 36t119 105t45.5 157v119h-268v-116q0 -96 -57 -96q-52 0 -52 89v234h377v219q0 83 -19 148t-58 112t-101.5 72t-146.5 25q-165 0 -245 -94t-80 -263v-449zM83 1209h245v250h-245v-250zM336 649v146q0 32 11.5 56 t40.5 24q54 0 54 -80v-146h-106zM450 1209h246v250h-246v-250z" />
<glyph unicode="&#xec;" horiz-adv-x="430" d="M35 1486l224 -358h166l-110 358h-280zM100 0h273v1057h-273v-1057z" />
<glyph unicode="&#xed;" horiz-adv-x="430" d="M100 0h273v1057h-273v-1057zM165 1128h165l225 358h-280z" />
<glyph unicode="&#xee;" horiz-adv-x="430" d="M-41 1128h222l59 163l61 -163h222l-167 328h-234zM100 0h273v1057h-273v-1057z" />
<glyph unicode="&#xef;" horiz-adv-x="430" d="M-67 1208h245v249h-245v-249zM100 0h273v1057h-273v-1057zM300 1208h246v249h-246v-249z" />
<glyph unicode="&#xf0;" horiz-adv-x="800" d="M70 276q0 -88 44.5 -157t117.5 -105.5t159 -36.5q87 0 162 36t121.5 105.5t46.5 157.5l-1 686q0 156 -40 264l109 55l-54 113l-115 -59q-122 151 -406 151l-39 -214q154 0 211 -56l-126 -64l53 -114l125 64q10 -56 10 -172q-60 47 -140 47q-61 0 -114 -29t-88.5 -88.5 t-35.5 -136.5v-447zM342 275v428q0 29 15.5 44.5t36.5 15.5q22 0 38 -14.5t16 -40.5l-1 -433q0 -84 -56 -84q-16 0 -26.5 7.5t-15 22t-6 26.5t-1.5 28z" />
<glyph unicode="&#xf1;" horiz-adv-x="818" d="M78 0h273v820q1 1 5 5.5t5.5 6.5t6 7t7.5 7.5t7.5 7t8 7t8.5 5.5t9.5 4.5l9 3t9.5 1.5q16 0 26 -7t13.5 -20.5t4.5 -22t1 -21.5v-804h273v852q0 32 -8 64.5t-24 62t-38 52t-52.5 36.5t-64.5 14q-59 0 -113.5 -27t-93.5 -71v74h-273v-1057zM109 1169h136v3q0 11 0.5 17 t4 14.5t12 12t22.5 3.5q38 0 122 -29.5t125 -29.5q126 0 126 241h-126q0 -12 -1 -18.5t-7.5 -12.5t-19.5 -6q-19 0 -58.5 12t-89.5 23.5t-96 11.5q-38 0 -65.5 -14t-43.5 -35.5t-25.5 -54.5t-12.5 -65t-3 -73z" />
<glyph unicode="&#xf2;" horiz-adv-x="788" d="M63 275q0 -88 46 -157t120.5 -105t162.5 -36q89 0 164.5 36t122 105t46.5 157v449q0 169 -81.5 263t-251.5 94q-169 0 -249 -94t-80 -263v-449zM97 1498l225 -358h166l-111 358h-280zM336 271v524q0 80 56 80q62 0 62 -80v-524q0 -89 -62 -89q-19 0 -31.5 8.5t-17 24 t-6 27t-1.5 29.5z" />
<glyph unicode="&#xf3;" horiz-adv-x="788" d="M63 275q0 -88 46 -157t120.5 -105t162.5 -36q89 0 164.5 36t122 105t46.5 157v449q0 169 -81.5 263t-251.5 94q-169 0 -249 -94t-80 -263v-449zM309 1140h165l224 358h-279zM336 271v524q0 80 56 80q62 0 62 -80v-524q0 -89 -62 -89q-19 0 -31.5 8.5t-17 24t-6 27 t-1.5 29.5z" />
<glyph unicode="&#xf4;" horiz-adv-x="788" d="M63 275q0 -88 46 -157t120.5 -105t162.5 -36q89 0 164.5 36t122 105t46.5 157v449q0 169 -81.5 263t-251.5 94q-169 0 -249 -94t-80 -263v-449zM122 1140h222l59 163l61 -163h223l-167 329h-235zM336 271v524q0 80 56 80q62 0 62 -80v-524q0 -89 -62 -89q-19 0 -31.5 8.5 t-17 24t-6 27t-1.5 29.5z" />
<glyph unicode="&#xf5;" horiz-adv-x="788" d="M63 275q0 -88 46 -157t120.5 -105t162.5 -36q89 0 164.5 36t122 105t46.5 157v449q0 169 -81.5 263t-251.5 94q-169 0 -249 -94t-80 -263v-449zM109 1170h136v3q0 11 0.5 17t4 14t12 12t22.5 4q38 0 122 -29.5t125 -29.5q126 0 126 241h-126q0 -13 -1 -19t-7.5 -12 t-19.5 -6q-19 0 -58.5 11.5t-89.5 23.5t-96 12q-38 0 -65.5 -14t-43.5 -35.5t-25.5 -55t-12.5 -65t-3 -72.5zM336 271v524q0 80 56 80q62 0 62 -80v-524q0 -89 -62 -89q-19 0 -31.5 8.5t-17 24t-6 27t-1.5 29.5z" />
<glyph unicode="&#xf6;" horiz-adv-x="788" d="M63 275q0 -88 46 -157t120.5 -105t162.5 -36q89 0 164.5 36t122 105t46.5 157v449q0 169 -81.5 263t-251.5 94q-169 0 -249 -94t-80 -263v-449zM95 1220h245v249h-245v-249zM336 271v524q0 80 56 80q62 0 62 -80v-524q0 -89 -62 -89q-19 0 -31.5 8.5t-17 24t-6 27 t-1.5 29.5zM462 1220h246v249h-246v-249z" />
<glyph unicode="&#xf7;" horiz-adv-x="563" d="M5 472h547v181h-547v-181zM162 191h232v233h-232v-233zM162 721h232v232h-232v-232z" />
<glyph unicode="&#xf8;" horiz-adv-x="796" d="M67 275q0 -87 43.5 -153.5t117.5 -104.5l-60 -206l62 -16l57 199q53 -17 109 -17q89 0 164.5 36t122 105t46.5 157v449q0 228 -142 311l63 216l-63 16l-59 -205q-58 19 -132 19q-169 0 -249 -94t-80 -263v-449zM340 280v501q0 80 56 80q62 0 62 -80v-501q0 -89 -62 -89 q-19 0 -31.5 8t-17 24t-6 27.5t-1.5 29.5z" />
<glyph unicode="&#xf9;" horiz-adv-x="814" d="M70 205q0 -55 21.5 -106.5t65.5 -86.5t101 -35t112 32t96 83v-92h273v1057h-273v-815q-49 -60 -85 -60q-11 0 -18.5 7t-11 15.5t-5.5 23t-2.5 22.5t-0.5 21v786h-273v-852zM94 1486l224 -358h166l-110 358h-280z" />
<glyph unicode="&#xfa;" horiz-adv-x="814" d="M70 205q0 -55 21.5 -106.5t65.5 -86.5t101 -35t112 32t96 83v-92h273v1057h-273v-815q-49 -60 -85 -60q-11 0 -18.5 7t-11 15.5t-5.5 23t-2.5 22.5t-0.5 21v786h-273v-852zM305 1128h166l224 358h-279z" />
<glyph unicode="&#xfb;" horiz-adv-x="814" d="M70 205q0 -55 21.5 -106.5t65.5 -86.5t101 -35t112 32t96 83v-92h273v1057h-273v-815q-49 -60 -85 -60q-11 0 -18.5 7t-11 15.5t-5.5 23t-2.5 22.5t-0.5 21v786h-273v-852zM119 1128h222l59 164l61 -164h223l-167 329h-235z" />
<glyph unicode="&#xfc;" horiz-adv-x="814" d="M70 205q0 -55 21.5 -106.5t65.5 -86.5t101 -35t112 32t96 83v-92h273v1057h-273v-815q-49 -60 -85 -60q-11 0 -18.5 7t-11 15.5t-5.5 23t-2.5 22.5t-0.5 21v786h-273v-852zM92 1209h245v249h-245v-249zM458 1209h247v249h-247v-249z" />
<glyph unicode="&#xfd;" horiz-adv-x="706" d="M15 1057q6 -32 33.5 -152t56 -244.5t58.5 -263.5t44 -215q12 -64 12 -87q0 -83 -34 -119.5t-115 -38.5v-189h35q57 0 101 5t89 19.5t77 38.5t57.5 64.5t37.5 96.5l230 1085h-250l-86 -590l-98 590h-248zM256 1128h165l225 358h-280z" />
<glyph unicode="&#xfe;" horiz-adv-x="800" d="M80 -301h273v380q30 -48 74 -75t94 -27q59 0 108 32t75.5 83.5t26.5 109.5v649q0 91 -60.5 160.5t-149.5 69.5q-33 0 -65 -13t-57 -34t-46 -48v472h-273v-1759zM353 241v573q1 1 5 7l5 7.5t5.5 8t7 9t7 7.5t7.5 8t7.5 6.5t8 5.5t8 3t8.5 1q23 0 30 -19t7 -50v-557 q0 -16 -1 -27t-4.5 -23.5t-11.5 -19t-20 -6.5q-27 0 -66 62q-2 2 -3 4z" />
<glyph unicode="&#xff;" horiz-adv-x="706" d="M15 1057q6 -32 33.5 -152t56 -244.5t58.5 -263.5t44 -215q12 -64 12 -87q0 -83 -34 -119.5t-115 -38.5v-189h35q57 0 101 5t89 19.5t77 38.5t57.5 64.5t37.5 96.5l230 1085h-250l-86 -590l-98 590h-248zM42 1209h246v249h-246v-249zM409 1209h246v249h-246v-249z" />
<glyph unicode="&#x100;" d="M15 0h292l57 312h190l60 -312h291l-315 1458h-260zM254 1581h411v156h-411v-156zM384 493l77 541l74 -541h-151z" />
<glyph unicode="&#x101;" horiz-adv-x="790" d="M47 236q0 -49 12 -93t36.5 -82.5t68.5 -61t102 -22.5q79 0 132.5 29t76.5 103l27 -109h250q-35 151 -35 281v502q0 80 -42.5 149t-113 109t-149.5 40q-174 0 -265.5 -97.5t-91.5 -279.5h265v60q0 19 0.5 31.5t4 29.5t10.5 26.5t19.5 16.5t31.5 7q22 0 35.5 -13.5t19 -37 t5.5 -60.5v-89q-55 -23 -91.5 -39.5t-82.5 -41.5t-75.5 -48t-60.5 -56t-48.5 -69t-29 -83.5t-11.5 -101.5zM190 1180h410v156h-410v-156zM313 261q0 130 133 238l1 -260q-15 -19 -22 -27t-23.5 -19t-33.5 -11q-30 0 -42.5 23.5t-12.5 55.5z" />
<glyph unicode="&#x102;" d="M15 0h292l57 312h190l60 -312h291l-315 1458h-260zM256 1766q0 -90 57.5 -145.5t147.5 -55.5t147.5 55.5t57.5 145.5h-140q0 -23 -5 -45t-21 -40t-39 -18t-39 18t-21.5 40t-5.5 45h-139zM384 493l77 541l74 -541h-151z" />
<glyph unicode="&#x103;" horiz-adv-x="790" d="M47 236q0 -49 12 -93t36.5 -82.5t68.5 -61t102 -22.5q79 0 132.5 29t76.5 103l27 -109h250q-35 151 -35 281v502q0 80 -42.5 149t-113 109t-149.5 40q-174 0 -265.5 -97.5t-91.5 -279.5h265v60q0 19 0.5 31.5t4 29.5t10.5 26.5t19.5 16.5t31.5 7q22 0 35.5 -13.5t19 -37 t5.5 -60.5v-89q-55 -23 -91.5 -39.5t-82.5 -41.5t-75.5 -48t-60.5 -56t-48.5 -69t-29 -83.5t-11.5 -101.5zM208 1365q0 -90 57.5 -145.5t147.5 -55.5t147.5 55.5t57.5 145.5h-139q0 -23 -5.5 -45t-21.5 -40t-39 -18t-39 18t-21.5 40t-5.5 45h-139zM313 261q0 130 133 238 l1 -260q-15 -19 -22 -27t-23.5 -19t-33.5 -11q-30 0 -42.5 23.5t-12.5 55.5z" />
<glyph unicode="&#x104;" d="M15 0h292l57 312h190l60 -312h291l-315 1458h-260zM384 493l77 541l74 -541h-151zM565 -239q0 -42 14.5 -74.5t39.5 -51.5t57.5 -32t68.5 -16.5t73 -6t70 -0.5l17 130h-29t-29 2t-30 5t-26 10t-23 17t-14 25.5t-6 35.5q0 26 6.5 55.5t13.5 49t20 53t19 50.5h-120 q-51 -49 -86.5 -118.5t-35.5 -133.5z" />
<glyph unicode="&#x105;" horiz-adv-x="790" d="M47 236q0 -49 12 -93t36.5 -82.5t68.5 -61t102 -22.5q79 0 132.5 29t76.5 103l27 -109h250q-35 151 -35 281v502q0 80 -42.5 149t-113 109t-149.5 40q-174 0 -265.5 -97.5t-91.5 -279.5h265v60q0 19 0.5 31.5t4 29.5t10.5 26.5t19.5 16.5t31.5 7q22 0 35.5 -13.5t19 -37 t5.5 -60.5v-89q-55 -23 -91.5 -39.5t-82.5 -41.5t-75.5 -48t-60.5 -56t-48.5 -69t-29 -83.5t-11.5 -101.5zM313 261q0 130 133 238l1 -260q-15 -19 -22 -27t-23.5 -19t-33.5 -11q-30 0 -42.5 23.5t-12.5 55.5zM411 -239q0 -42 15 -74.5t40 -51.5t57.5 -32t68.5 -16.5t73 -6 t70 -0.5l17 130h-25.5t-25.5 1t-26.5 3.5t-24 7t-22.5 11.5t-16.5 16.5t-12.5 23.5t-4 32q0 21 3.5 42.5t10.5 43.5t13.5 39.5t16 42t15.5 40.5h-120q-51 -49 -87 -118.5t-36 -133.5z" />
<glyph unicode="&#x106;" horiz-adv-x="950" d="M68 487q0 -88 12.5 -162t43 -140.5t78 -112.5t121 -73t168.5 -27q92 0 163.5 27.5t116 73.5t74 112.5t41.5 137t13 153.5l1 123h-288v-149q0 -39 -2 -70.5t-9.5 -66.5t-20 -58.5t-35.5 -39.5t-54 -16q-128 0 -128 215v629q0 216 128 216q27 0 47.5 -10.5t33 -31 t20.5 -42.5t12 -53.5t5 -55.5t1 -57v-134h290v125q0 87 -13.5 159t-44 133.5t-77 104t-116 66t-158.5 23.5q-423 0 -423 -516v-483zM395 1530h166l224 358h-280z" />
<glyph unicode="&#x107;" horiz-adv-x="751" d="M63 271q0 -88 45.5 -156t119 -103t160.5 -35q65 0 123.5 20.5t103.5 57.5t71.5 93t26.5 123v157h-268v-112q0 -25 -0.5 -40t-2.5 -32.5t-5.5 -27t-10 -18.5t-16 -12.5t-22.5 -3.5q-52 0 -52 89v524q0 32 11.5 56t40.5 24q19 0 30.5 -8.5t17 -26.5t7.5 -37t2 -51v-120h268 v92q0 83 -19 148t-58 112t-101.5 72t-146.5 25q-165 0 -245 -94t-80 -263v-453zM293 1129h165l225 358h-280z" />
<glyph unicode="&#x108;" horiz-adv-x="950" d="M68 487q0 -88 12.5 -162t43 -140.5t78 -112.5t121 -73t168.5 -27q92 0 163.5 27.5t116 73.5t74 112.5t41.5 137t13 153.5l1 123h-288v-149q0 -39 -2 -70.5t-9.5 -66.5t-20 -58.5t-35.5 -39.5t-54 -16q-128 0 -128 215v629q0 216 128 216q27 0 47.5 -10.5t33 -31 t20.5 -42.5t12 -53.5t5 -55.5t1 -57v-134h290v125q0 87 -13.5 159t-44 133.5t-77 104t-116 66t-158.5 23.5q-423 0 -423 -516v-483zM209 1530h222l59 164l61 -164h223l-167 329h-235z" />
<glyph unicode="&#x109;" horiz-adv-x="751" d="M63 271q0 -88 45.5 -156t119 -103t160.5 -35q65 0 123.5 20.5t103.5 57.5t71.5 93t26.5 123v157h-268v-112q0 -25 -0.5 -40t-2.5 -32.5t-5.5 -27t-10 -18.5t-16 -12.5t-22.5 -3.5q-52 0 -52 89v524q0 32 11.5 56t40.5 24q19 0 30.5 -8.5t17 -26.5t7.5 -37t2 -51v-120h268 v92q0 83 -19 148t-58 112t-101.5 72t-146.5 25q-165 0 -245 -94t-80 -263v-453zM107 1129h222l59 164l61 -164h222l-166 329h-235z" />
<glyph unicode="&#x10c;" horiz-adv-x="950" d="M68 487q0 -88 12.5 -162t43 -140.5t78 -112.5t121 -73t168.5 -27q92 0 163.5 27.5t116 73.5t74 112.5t41.5 137t13 153.5l1 123h-288v-149q0 -39 -2 -70.5t-9.5 -66.5t-20 -58.5t-35.5 -39.5t-54 -16q-128 0 -128 215v629q0 216 128 216q27 0 47.5 -10.5t33 -31 t20.5 -42.5t12 -53.5t5 -55.5t1 -57v-134h290v125q0 87 -13.5 159t-44 133.5t-77 104t-116 66t-158.5 23.5q-423 0 -423 -516v-483zM204 1841l163 -329h235l167 329h-223l-61 -163l-59 163h-222z" />
<glyph unicode="&#x10d;" horiz-adv-x="751" d="M63 271q0 -88 45.5 -156t119 -103t160.5 -35q65 0 123.5 20.5t103.5 57.5t71.5 93t26.5 123v157h-268v-112q0 -25 -0.5 -40t-2.5 -32.5t-5.5 -27t-10 -18.5t-16 -12.5t-22.5 -3.5q-52 0 -52 89v524q0 32 11.5 56t40.5 24q19 0 30.5 -8.5t17 -26.5t7.5 -37t2 -51v-120h268 v92q0 83 -19 148t-58 112t-101.5 72t-146.5 25q-165 0 -245 -94t-80 -263v-453zM102 1440l163 -329h235l167 329h-223l-61 -163l-59 163h-222z" />
<glyph unicode="&#x112;" horiz-adv-x="720" d="M87 0h608v202h-313v449h221v208h-221v397h313v202h-608v-1458zM155 1581h410v156h-410v-156z" />
<glyph unicode="&#x113;" horiz-adv-x="761" d="M63 275q0 -88 45.5 -157t119.5 -105t160 -36q87 0 160.5 36t119 105t45.5 157v119h-268v-116q0 -96 -57 -96q-52 0 -52 89v234h377v219q0 83 -19 148t-58 112t-101.5 72t-146.5 25q-165 0 -245 -94t-80 -263v-449zM175 1180h411v156h-411v-156zM336 649v146q0 32 11.5 56 t40.5 24q54 0 54 -80v-146h-106z" />
<glyph unicode="&#x118;" horiz-adv-x="720" d="M87 0h608v202h-313v449h221v208h-221v397h313v202h-608v-1458zM355 -239q0 -42 14.5 -74.5t39.5 -51.5t58 -32t68.5 -16.5t72.5 -6t70 -0.5l17 130h-25t-25.5 1t-27 3.5t-23.5 7t-22.5 11.5t-17 16.5t-12 23.5t-3.5 32q0 26 6 55.5t13 49t20 53t19 50.5h-120 q-51 -49 -86.5 -118.5t-35.5 -133.5z" />
<glyph unicode="&#x119;" horiz-adv-x="761" d="M63 275q0 -88 45.5 -157t119.5 -105t160 -36q87 0 160.5 36t119 105t45.5 157v119h-268v-116q0 -96 -57 -96q-52 0 -52 89v234h377v219q0 83 -19 148t-58 112t-101.5 72t-146.5 25q-165 0 -245 -94t-80 -263v-449zM194 -245q0 -43 14.5 -75.5t39.5 -51t57.5 -31.5 t68.5 -17t73 -6.5t70 0.5l17 130h-29t-29 1.5t-30 5t-26 10.5t-23 17t-14 25t-6 35q0 26 6.5 55.5t13.5 49.5t20 53.5t19 49.5h-120q-51 -48 -86.5 -118t-35.5 -133zM336 649v146q0 32 11.5 56t40.5 24q54 0 54 -80v-146h-106z" />
<glyph unicode="&#x122;" horiz-adv-x="1002" d="M68 456q0 -71 12 -137.5t40.5 -130.5t70 -111.5t106 -76t143.5 -28.5q48 0 95.5 16t87.5 46t65 68l37 -102h202v750h-461v-211h167v-117q0 -223 -135 -223t-135 215v629q0 216 135 216q26 0 46.5 -8t34.5 -21t24.5 -33t16 -40t9 -46t4 -47t0.5 -47v-103h282v86 q0 87 -13.5 159t-44.5 133.5t-79 104t-118.5 66t-161.5 23.5q-430 0 -430 -516v-514zM349 -63v-258h89q0 -25 -1 -36.5t-8.5 -18t-15 -7t-28.5 -0.5h-4.5h-3.5h-4l32 -135q80 0 125.5 31.5t61.5 90.5t19.5 143t-0.5 190h-262z" />
<glyph unicode="&#x123;" horiz-adv-x="781" d="M26 -86q0 -37 15 -67t38.5 -49.5t59 -34t68 -21.5t74.5 -11.5t71 -5.5t64 -1q51 0 93.5 4.5t85 16t75 32.5t58 51t39 75t13.5 101q0 27 -8 51t-19.5 42t-32.5 33.5t-39 26.5t-48 21t-50.5 16t-55 12t-52.5 9t-52 8q-5 1 -7.5 1t-6.5 1t-7 1q-32 5 -52 8.5t-39 9t-28 13.5 t-9 18q0 3 4.5 14t9.5 20l4 9q55 -12 88 -12q76 0 138.5 29.5t102.5 79.5t62 114.5t22 137.5q0 122 -34 183q35 36 116 36l22 195h-34q-139 0 -198 -67q-63 67 -188 67q-67 0 -122 -22t-91.5 -59t-61.5 -88t-36 -107.5t-11 -117.5q0 -152 83 -303q-108 -137 -108 -183 q0 -15 19 -33t38 -30t38 -21q-50 -36 -80.5 -91.5t-30.5 -111.5zM242 -37q0 44 37 101h19q25 -1 42.5 -2.5t46.5 -5t49.5 -10t41 -16t31 -25t10.5 -35.5t-9.5 -32t-27 -16.5t-28.5 -5.5t-27 -1h-5q-25 0 -49.5 1.5t-57.5 5.5t-53 14.5t-20 26.5zM267 1149h262v258h-89 q0 25 1.5 36.5t8.5 18t14.5 7.5t28.5 0h3h3h3.5h2.5l-32 135q-80 0 -125.5 -31.5t-61 -90.5t-19.5 -143t0 -190zM320 689q0 29 0.5 48t2.5 45.5t6.5 43.5t11.5 33.5t18.5 25t26.5 8.5q63 0 63 -193q0 -188 -67 -188q-62 0 -62 177z" />
<glyph unicode="&#x124;" horiz-adv-x="1018" d="M134 0h262v649h227v-649h263v1456h-263v-601h-227v601h-262v-1456zM228 1506h222l59 138l60 -138h225l-167 357h-234z" />
<glyph unicode="&#x126;" horiz-adv-x="959" d="M-3 1081h82v-1081h294v650h212v-650h296v1081h81v93h-81v284h-296v-284h-212v284h-294v-284h-82v-93zM373 860v221h212v-221h-212z" />
<glyph unicode="&#x127;" horiz-adv-x="796" d="M0 1183h80v-1183h273v814q11 13 16.5 19t18.5 18t25 18t24 6q10 0 17 -3.5t11 -10.5t6.5 -14t3 -17.5t0.5 -17v-18v-14.5v-780h273v851q0 55 -22 107t-66 87.5t-99 35.5q-59 0 -113.5 -27.5t-94.5 -71.5v201h229v148h-229v127h-273v-127h-80v-148z" />
<glyph unicode="&#x128;" horiz-adv-x="468" d="M-58 1560h136v4v11t1 10.5t3.5 10t7 7.5t11.5 5.5t16 1.5q39 0 122.5 -29.5t124.5 -29.5q126 0 126 242h-126q0 -10 -0.5 -15t-2.5 -11t-8.5 -9t-16.5 -3q-19 0 -58.5 12t-89.5 23.5t-96 11.5q-37 0 -65 -13.5t-44 -35.5t-25.5 -55t-12.5 -65t-3 -73zM87 0h295v1458h-295 v-1458z" />
<glyph unicode="&#x129;" horiz-adv-x="430" d="M-61 1158h136v4q-1 11 0 17t4.5 14t12 12t22.5 4q38 0 122 -30t124 -30q127 0 127 242h-126q0 -13 -1 -19t-7.5 -12t-19.5 -6q-19 0 -58.5 11.5t-89.5 23t-96 11.5q-38 0 -65.5 -13.5t-43.5 -35t-25.5 -55t-12.5 -65.5t-3 -73zM100 0h273v1057h-273v-1057z" />
<glyph unicode="&#x12a;" horiz-adv-x="468" d="M28 1581h411v156h-411v-156zM87 0h295v1458h-295v-1458z" />
<glyph unicode="&#x12b;" horiz-adv-x="430" d="M10 1180h410v156h-410v-156zM100 0h273v1057h-273v-1057z" />
<glyph unicode="&#x12e;" horiz-adv-x="468" d="M87 0h295v1458h-295v-1458zM89 -245q0 -43 15 -75.5t39.5 -51t57.5 -31.5t69 -17t72.5 -6.5t69.5 0.5l17 130h-28.5t-29 1.5t-30.5 5t-25.5 10.5t-22.5 17t-14 25t-6 35q0 26 6 55.5t13 49.5t20.5 53.5t18.5 49.5h-120q-32 -31 -59.5 -71.5t-45 -89t-17.5 -90.5z" />
<glyph unicode="&#x12f;" horiz-adv-x="502" d="M80 0h273v1057h-273v-1057zM80 1149h273v256h-273v-256zM81 -239q0 -42 15 -74.5t39.5 -51.5t57.5 -32t69 -16.5t72.5 -6t69.5 -0.5l17 130h-25t-25 1t-27 3.5t-24 7t-22.5 11.5t-17 16.5t-12 23.5t-3.5 32q0 26 6 55.5t13 49t20 53t19 50.5h-120q-50 -49 -86 -118.5 t-36 -133.5z" />
<glyph unicode="&#x131;" horiz-adv-x="430" d="M100 0h273v1057h-273v-1057z" />
<glyph unicode="&#x132;" horiz-adv-x="1022" d="M87 0h295v1458h-295v-1458zM475 -28h145q58 0 104 8t80.5 23t59.5 39t41 53.5t25.5 70t13.5 84t4 100.5v1108h-295v-1106q0 -55 -7.5 -88t-29 -52.5t-54 -26t-87.5 -5.5v-208z" />
<glyph unicode="&#x133;" horiz-adv-x="927" d="M80 0h273v1057h-273v-1057zM80 1149h273v256h-273v-256zM447 -32v-198q85 -22 145 -22q126 0 192.5 73t66.5 200v1036h-271v-1012q0 -90 -62 -90q-26 0 -71 13zM580 1149h271v256h-271v-256z" />
<glyph unicode="&#x134;" horiz-adv-x="587" d="M40 -28h145q81 0 139 16t94.5 44.5t57.5 76.5t29 104.5t8 136.5v1108h-295v-1106q0 -55 -7.5 -88t-29 -52.5t-54 -26t-87.5 -5.5v-208zM82 1529h222l59 164l61 -164h222l-166 329h-235z" />
<glyph unicode="&#x135;" horiz-adv-x="519" d="M25 1118h222l59 163l61 -163h223l-167 329h-235zM39 -32v-198q84 -22 145 -22q84 0 142.5 34t87.5 94.5t29 144.5v1036h-271v-1012q0 -90 -62 -90q-26 0 -71 13z" />
<glyph unicode="&#x137;" horiz-adv-x="810" d="M80 0h273v410l37 61l139 -471h283l-260 611l260 446h-292l-167 -367v768h-273v-1458z" />
<glyph unicode="&#x138;" horiz-adv-x="818" d="M80 0h273v359l29 48l131 -407h274l-218 603l219 454h-268l-167 -343v343h-273v-1057z" />
<glyph unicode="&#x13f;" horiz-adv-x="692" d="M79 0h584v202h-290v1256h-294v-1458zM548 632h262v257h-262v-257z" />
<glyph unicode="&#x140;" horiz-adv-x="810" d="M78 0h273v1458h-273v-1458zM486 550h262v255h-262v-255z" />
<glyph unicode="&#x141;" horiz-adv-x="692" d="M12 693l67 25v-718h584v202h-290v627l209 80v148l-209 -79v480h-294v-591l-67 -25v-149z" />
<glyph unicode="&#x142;" horiz-adv-x="509" d="M-15 693l147 55v-748h273v852l151 57v148l-151 -57v458h-273v-561l-147 -55v-149z" />
<glyph unicode="&#x143;" horiz-adv-x="950" d="M87 0h253v809l319 -809h204v1459h-244v-763l-320 763h-212v-1459zM378 1530h166l224 358h-280z" />
<glyph unicode="&#x144;" horiz-adv-x="818" d="M78 0h273v820q1 1 5 5.5t5.5 6.5t6 7t7.5 7.5t7.5 7t8 7t8.5 5.5t9.5 4.5l9 3t9.5 1.5q16 0 26 -7t13.5 -20.5t4.5 -22t1 -21.5v-804h273v852q0 32 -8 64.5t-24 62t-38 52t-52.5 36.5t-64.5 14q-59 0 -113.5 -27t-93.5 -71v74h-273v-1057zM341 1128h165l225 358h-280z " />
<glyph unicode="&#x152;" horiz-adv-x="1259" d="M68 493q0 -88 13.5 -161t44.5 -135.5t79 -105t121.5 -66.5t167.5 -24l740 -1v202h-313v449h222v208h-222v397h313v202l-740 -1q-68 0 -125.5 -13.5t-101 -38t-77.5 -59.5t-56.5 -77t-37.5 -93.5t-21.5 -105t-6.5 -114.5v-463zM363 420v610q0 30 2.5 57.5t11.5 57.5 t22.5 51t38 35t56.5 14h132v-1040h-132q-131 0 -131 215z" />
<glyph unicode="&#x153;" horiz-adv-x="1163" d="M67 275q0 -88 43.5 -157t114.5 -105.5t155 -36.5q116 0 212 70q91 -70 199 -70q85 0 157 36t116 105.5t44 157.5v119h-270q0 -7 1 -35.5t1 -47.5q0 -120 -57 -120q-52 0 -52 89v225h377v219q0 83 -18 147.5t-55 112t-96.5 72.5t-139.5 25q-122 0 -207 -64q-79 64 -196 64 q-169 0 -249 -94t-80 -263v-449zM340 280v501q0 80 56 80q62 0 62 -80v-506q-1 -84 -62 -84q-19 0 -31.5 8t-17 24t-6 27.5t-1.5 29.5zM731 649v132q0 32 11.5 56t40.5 24q55 0 55 -80v-132h-107z" />
<glyph unicode="&#x154;" horiz-adv-x="918" d="M87 0h295v671h48l167 -671h305q-97 288 -228 705q38 16 68 38t50.5 46t35.5 53.5t23.5 56.5t13 59.5t6 58.5t1.5 57q0 104 -32.5 179t-94.5 119.5t-145.5 65t-192.5 20.5h-320v-1458zM313 1530h165l224 358h-279zM382 851v391h98q30 0 52 -21.5t31 -55.5t12.5 -61 t3.5 -53t-4.5 -55t-15 -64.5t-35 -58t-58.5 -22.5h-84z" />
<glyph unicode="&#x156;" horiz-adv-x="918" d="M87 0h295v671h48l167 -671h305q-97 288 -228 705q38 16 68 38t50.5 46t35.5 53.5t23.5 56.5t13 59.5t6 58.5t1.5 57q0 104 -32.5 179t-94.5 119.5t-145.5 65t-192.5 20.5h-320v-1458zM323 -63v-258h89q0 -25 -1 -36.5t-8.5 -18t-15 -7t-28.5 -0.5h-3.5h-4h-4.5l32 -135 q80 0 126 31.5t61.5 90.5t19 143t-0.5 190h-262zM382 851v391h98q30 0 52 -21.5t31 -55.5t12.5 -61t3.5 -53t-4.5 -55t-15 -64.5t-35 -58t-58.5 -22.5h-84z" />
<glyph unicode="&#x157;" horiz-adv-x="578" d="M76 0h271v710q0 64 29 98t85 34q15 0 90 -8l16 230q-50 8 -74 8q-83 0 -146 -101v86h-271v-1057zM86 -63v-258h89q0 -25 -1.5 -36.5t-8.5 -18t-14.5 -7t-28.5 -0.5h-13l33 -135q80 0 125.5 31.5t61 90.5t19 143t-0.5 190h-261z" />
<glyph unicode="&#x158;" horiz-adv-x="918" d="M87 0h295v671h48l167 -671h305q-97 288 -228 705q38 16 68 38t50.5 46t35.5 53.5t23.5 56.5t13 59.5t6 58.5t1.5 57q0 104 -32.5 179t-94.5 119.5t-145.5 65t-192.5 20.5h-320v-1458zM122 1841l162 -329h235l167 329h-223l-60 -163l-60 163h-221zM382 851v391h98 q30 0 52 -21.5t31 -55.5t12.5 -61t3.5 -53t-4.5 -55t-15 -64.5t-35 -58t-58.5 -22.5h-84z" />
<glyph unicode="&#x159;" horiz-adv-x="578" d="M62 1440l162 -329h235l167 329h-223l-60 -163l-59 163h-222zM76 0h271v710q0 64 29 98t85 34q15 0 90 -8l16 230q-50 8 -74 8q-83 0 -146 -101v86h-271v-1057z" />
<glyph unicode="&#x15a;" horiz-adv-x="869" d="M46 417q4 -70 20.5 -134t49 -121.5t79 -100t114 -67t148.5 -24.5q76 0 144.5 25.5t119.5 70t81 110.5t30 142q0 82 -19 152.5t-57 131t-81 109t-106 103.5q-17 16 -107 92q-60 51 -92.5 103.5t-32.5 124.5q0 52 24.5 90t72.5 38q28 0 47.5 -16t29 -42.5t13 -53t3.5 -56.5 q0 -12 -1 -31t-1 -28l304 42q0 14 0.5 24.5l0.5 10.5q0 76 -29 145.5t-78.5 120t-118.5 80.5t-146 30q-186 0 -298.5 -103.5t-112.5 -280.5q0 -61 14.5 -115t34 -92.5t54.5 -80t61.5 -65.5t69.5 -61l92 -78q74 -65 123 -143t49 -161q0 -112 -87 -112q-25 0 -44 11.5t-31 33 t-20 46.5t-11.5 59t-5 63t-1.5 66zM350 1528h165l225 358h-280z" />
<glyph unicode="&#x15b;" horiz-adv-x="707" d="M27 796q0 -47 14.5 -91t43 -83.5t58 -70t69.5 -65.5l45 -38q36 -31 50.5 -44t41.5 -39.5t38.5 -43.5t21.5 -40t10 -44q0 -60 -51 -60q-17 0 -31.5 6.5t-26 21t-20 27.5t-17 34.5t-12.5 32t-11 31.5l-209 -75q35 -125 125 -201.5t214 -76.5q62 0 118.5 21.5t98.5 60 t66.5 94t24.5 118.5q0 45 -15.5 89.5t-45 85t-59.5 72.5t-70 68l-50 45q-69 58 -108 102t-39 79q0 27 15.5 47t43.5 20q21 0 41 -12t33 -27.5t27 -41t21 -41t16 -39.5l196 67q-16 57 -46 109.5t-71 94.5t-95.5 67t-112.5 25q-67 0 -127.5 -18.5t-109 -52.5t-77 -89.5 t-28.5 -124.5zM255 1128h165l225 358h-280z" />
<glyph unicode="&#x160;" horiz-adv-x="869" d="M46 417q4 -70 20.5 -134t49 -121.5t79 -100t114 -67t148.5 -24.5q76 0 144.5 25.5t119.5 70t81 110.5t30 142q0 82 -19 152.5t-57 131t-81 109t-106 103.5q-17 16 -107 92q-60 51 -92.5 103.5t-32.5 124.5q0 52 24.5 90t72.5 38q28 0 47.5 -16t29 -42.5t13 -53t3.5 -56.5 q0 -12 -1 -31t-1 -28l304 42q0 14 0.5 24.5l0.5 10.5q0 76 -29 145.5t-78.5 120t-118.5 80.5t-146 30q-186 0 -298.5 -103.5t-112.5 -280.5q0 -61 14.5 -115t34 -92.5t54.5 -80t61.5 -65.5t69.5 -61l92 -78q74 -65 123 -143t49 -161q0 -112 -87 -112q-25 0 -44 11.5t-31 33 t-20 46.5t-11.5 59t-5 63t-1.5 66zM159 1840l163 -329h234l167 329h-222l-61 -163l-59 163h-222z" />
<glyph unicode="&#x161;" horiz-adv-x="707" d="M27 796q0 -47 14.5 -91t43 -83.5t58 -70t69.5 -65.5l45 -38q36 -31 50.5 -44t41.5 -39.5t38.5 -43.5t21.5 -40t10 -44q0 -60 -51 -60q-17 0 -31.5 6.5t-26 21t-20 27.5t-17 34.5t-12.5 32t-11 31.5l-209 -75q35 -125 125 -201.5t214 -76.5q62 0 118.5 21.5t98.5 60 t66.5 94t24.5 118.5q0 45 -15.5 89.5t-45 85t-59.5 72.5t-70 68l-50 45q-69 58 -108 102t-39 79q0 27 15.5 47t43.5 20q21 0 41 -12t33 -27.5t27 -41t21 -41t16 -39.5l196 67q-16 57 -46 109.5t-71 94.5t-95.5 67t-112.5 25q-67 0 -127.5 -18.5t-109 -52.5t-77 -89.5 t-28.5 -124.5zM64 1439l163 -329h235l167 329h-223l-61 -163l-59 163h-222z" />
<glyph unicode="&#x162;" horiz-adv-x="746" d="M14 1238h214v-1238h294v1238h210v220h-718v-220zM234 -63v-258h89q0 -25 -1 -36.5t-8.5 -18t-15 -7t-28.5 -0.5h-4.5h-3.5h-4l32 -135q80 0 125.5 31.5t61.5 90.5t19.5 143t-0.5 190h-262z" />
<glyph unicode="&#x163;" horiz-adv-x="531" d="M17 875h78v-512q0 -45 2 -79.5t8 -75t17 -71t30 -60t45.5 -48t64.5 -30t86 -11.5q103 0 157 16l16 211q-32 -4 -80 -4q-41 0 -57 21t-16 65v578h131v182h-131v348h-273v-348h-78v-182zM223 -63v-258h89q0 -25 -1.5 -36.5t-8.5 -18t-14.5 -7t-28.5 -0.5h-13l33 -135 q80 0 125.5 31.5t61 90.5t19 143t-0.5 190h-261zM347 0z" />
<glyph unicode="&#x16a;" horiz-adv-x="1010" d="M80 542q0 -70 4 -126.5t15.5 -117.5t31 -107t52 -89t76.5 -70.5t106.5 -43.5t140 -16t140 16t106.5 43.5t76.5 70.5t52 89t31 107t15.5 117.5t4 126.5v916h-295v-907v-5q0 -77 -0.5 -111.5t-4.5 -84.5t-11.5 -70t-22 -43t-37 -30.5t-55 -7.5t-55 7.5t-37 31t-22.5 44 t-11.5 71t-4 85.5t-0.5 113v907h-295v-916zM300 1581h410v156h-410v-156z" />
<glyph unicode="&#x16b;" horiz-adv-x="814" d="M70 205q0 -55 21.5 -106.5t65.5 -86.5t101 -35t112 32t96 83v-92h273v1057h-273v-815q-49 -60 -85 -60q-11 0 -18.5 7t-11 15.5t-5.5 23t-2.5 22.5t-0.5 21v786h-273v-852zM200 1180h411v156h-411v-156z" />
<glyph unicode="&#x172;" horiz-adv-x="1010" d="M80 542q0 -70 4 -126.5t15.5 -117.5t31 -107t52 -89t76.5 -70.5t106.5 -43.5t140 -16t140 16t106.5 43.5t76.5 70.5t52 89t31 107t15.5 117.5t4 126.5v916h-295v-907v-5q0 -77 -0.5 -111.5t-4.5 -84.5t-11.5 -70t-22 -43t-37 -30.5t-55 -7.5t-55 7.5t-37 31t-22.5 44 t-11.5 71t-4 85.5t-0.5 113v907h-295v-916zM590 -239q0 -42 15 -74.5t40 -51.5t57.5 -32t68.5 -16.5t73 -6t70 -0.5l17 130h-25.5t-25.5 1t-26.5 3.5t-24 7t-22.5 11.5t-16.5 16.5t-12.5 23.5t-4 32q0 26 6.5 55.5t13.5 49t20 53t19 50.5h-120q-51 -49 -87 -118.5 t-36 -133.5z" />
<glyph unicode="&#x173;" horiz-adv-x="814" d="M70 205q0 -55 21.5 -106.5t65.5 -86.5t101 -35t112 32t96 83v-92h273v1057h-273v-815q-49 -60 -85 -60q-11 0 -18.5 7t-11 15.5t-5.5 23t-2.5 22.5t-0.5 21v786h-273v-852zM391 -245q0 -43 15 -75.5t40 -51t57.5 -31.5t68.5 -17t72.5 -6.5t69.5 0.5l17 130h-28.5t-29 1.5 t-30.5 5t-25.5 10.5t-22.5 17t-14 25t-6 35q0 26 6.5 55.5t13.5 49.5t20 53.5t18 49.5h-119q-51 -48 -87 -118t-36 -133z" />
<glyph unicode="&#x179;" horiz-adv-x="808" d="M65 0h673v202h-386l386 1070v185h-629v-202h341l-385 -1070v-185zM209 1529h165l225 358h-280z" />
<glyph unicode="&#x17a;" horiz-adv-x="658" d="M46 0h573v198h-293l293 678v181h-527v-197h245l-291 -675v-185zM134 1128h166l224 358h-279z" />
<glyph unicode="&#x17b;" horiz-adv-x="808" d="M65 0h673v202h-386l386 1070v185h-629v-202h341l-385 -1070v-185zM273 1615h262v258h-262v-258z" />
<glyph unicode="&#x17c;" horiz-adv-x="658" d="M46 0h573v198h-293l293 678v181h-527v-197h245l-291 -675v-185zM198 1214h262v258h-262v-258z" />
<glyph unicode="&#x17d;" horiz-adv-x="808" d="M65 0h673v202h-386l386 1070v185h-629v-202h341l-385 -1070v-185zM122 1852l162 -329h235l167 329h-223l-60 -163l-60 163h-221z" />
<glyph unicode="&#x17e;" horiz-adv-x="658" d="M46 0h573v198h-293l293 678v181h-527v-197h245l-291 -675v-185zM47 1451l163 -329h235l167 329h-223l-61 -163l-59 163h-222z" />
<glyph unicode="&#x1c4;" horiz-adv-x="1382" />
<glyph unicode="&#x1c5;" horiz-adv-x="1601" d="M87 0h301q78 0 141 7.5t112 24t85.5 39t62.5 56t42.5 71t26 88t13.5 102.5t4 120v478q0 86 -9 150t-30 119t-56.5 91.5t-89.5 62.5t-127.5 37.5t-171.5 11.5h-304v-1458zM189 1852l163 -329h234l167 329h-222l-61 -163l-59 163h-222zM382 207v1044h11q101 -1 144 -24.5 t43 -95.5v-785q0 -29 -3 -49t-8.5 -35.5t-17 -25t-24 -16t-35.5 -9.5t-45.5 -3.5t-58.5 -0.5h-6zM989 0h573v198h-294l294 678v181h-528v-197h246l-291 -675v-185z" />
<glyph unicode="&#x1c6;" horiz-adv-x="1382" />
<glyph unicode="&#x1c7;" horiz-adv-x="1249" d="M87 0h584v202h-289v1256h-295v-1458zM690 -28h145q82 0 140 16t94.5 44.5t57.5 76.5t28.5 104.5t7.5 136.5v1108h-295v-1106q0 -44 -5 -73.5t-16.5 -50t-33 -30.5t-50.5 -14.5t-73 -3.5v-208z" />
<glyph unicode="&#x1c8;" horiz-adv-x="1153" d="M87 0h584v202h-289v1256h-295v-1458zM673 -32v-198q85 -22 145 -22q126 0 192.5 73t66.5 200v1036h-271v-1012q0 -90 -62 -90q-26 0 -71 13zM806 1149h271v256h-271v-256z" />
<glyph unicode="&#x1c9;" horiz-adv-x="891" d="M78 0h273v1458h-273v-1458zM411 -32v-198q85 -22 145 -22q126 0 193 73t67 200v1036h-272v-1012q0 -90 -61 -90q-26 0 -72 13zM544 1149h272v256h-272v-256z" />
<glyph unicode="&#x1ca;" horiz-adv-x="1509" d="M87 0h253v809l319 -809h204v1459h-244v-763l-320 763h-212v-1459zM950 -28h145q82 0 140 16t94.5 44.5t57.5 76.5t28.5 104.5t7.5 136.5v1108h-295v-1106q0 -55 -7.5 -88t-29 -52.5t-53.5 -26t-88 -5.5v-208z" />
<glyph unicode="&#x1cb;" horiz-adv-x="1413" d="M87 0h253v809l319 -809h204v1459h-244v-763l-320 763h-212v-1459zM933 -32v-198q85 -22 145 -22q126 0 192.5 73t66.5 200v1036h-271v-1012q0 -90 -62 -90q-26 0 -71 13zM1066 1149h271v256h-271v-256z" />
<glyph unicode="&#x1cc;" horiz-adv-x="1277" d="M76 0h273v820l5.5 6t7 8t7 8t8.5 8.5t8.5 7t9.5 7t9.5 5.5t10.5 4t10 1q16 0 26 -7t14 -20.5t5 -22t1 -21.5v-804h273v852q0 32 -8 64.5t-24.5 62t-38.5 52t-52 36.5t-65 14q-58 0 -113 -27t-94 -71v74h-273v-1057zM797 -32v-198q85 -22 145 -22q126 0 192.5 73t66.5 200 v1036h-271v-1012q0 -90 -62 -90q-26 0 -71 13zM930 1149h271v256h-271v-256z" />
<glyph unicode="&#x1f1;" horiz-adv-x="1674" d="M87 0h301q78 0 141 7.5t112 24t85.5 39t62.5 56t42.5 71t26 88t13.5 102.5t4 120v478q0 86 -9 150t-30 119t-56.5 91.5t-89.5 62.5t-127.5 37.5t-171.5 11.5h-304v-1458zM382 207v1044h11q101 -1 144 -24.5t43 -95.5v-785q0 -29 -3 -49t-8.5 -35.5t-17 -25t-24 -16 t-35.5 -9.5t-45.5 -3.5t-58.5 -0.5h-6zM931 0h673v202h-387l387 1070v185h-629v-202h340l-384 -1070v-185z" />
<glyph unicode="&#x1f2;" horiz-adv-x="1567" d="M87 0h301q78 0 141 7.5t112 24t85.5 39t62.5 56t42.5 71t26 88t13.5 102.5t4 120v478q0 86 -9 150t-30 119t-56.5 91.5t-89.5 62.5t-127.5 37.5t-171.5 11.5h-304v-1458zM382 207v1044h11q101 -1 144 -24.5t43 -95.5v-785q0 -29 -3 -49t-8.5 -35.5t-17 -25t-24 -16 t-35.5 -9.5t-45.5 -3.5t-58.5 -0.5h-6zM931 0h572v198h-293l293 678v181h-527v-197h245l-290 -675v-185z" />
<glyph unicode="&#x200;" d="M15 0h292l57 312h190l60 -312h291l-315 1458h-260zM109 1898l175 -358h167l-111 358h-231zM367 1898l174 -358h166l-111 358h-229zM384 493l77 541l74 -541h-151z" />
<glyph unicode="&#x201;" horiz-adv-x="790" d="M47 236q0 -49 12 -93t36.5 -82.5t68.5 -61t102 -22.5q79 0 132.5 29t76.5 103l27 -109h250q-35 151 -35 281v502q0 80 -42.5 149t-113 109t-149.5 40q-174 0 -265.5 -97.5t-91.5 -279.5h265v60q0 19 0.5 31.5t4 29.5t10.5 26.5t19.5 16.5t31.5 7q22 0 35.5 -13.5t19 -37 t5.5 -60.5v-89q-55 -23 -91.5 -39.5t-82.5 -41.5t-75.5 -48t-60.5 -56t-48.5 -69t-29 -83.5t-11.5 -101.5zM62 1497l174 -358h167l-111 358h-230zM313 261q0 130 133 238l1 -260q-15 -19 -22 -27t-23.5 -19t-33.5 -11q-30 0 -42.5 23.5t-12.5 55.5zM319 1497l174 -358h166 l-111 358h-229z" />
<glyph unicode="&#x202;" d="M15 0h292l57 312h190l60 -312h291l-315 1458h-260zM256 1565h139q0 23 5.5 44.5t21.5 40t39 18.5t39 -18.5t21 -40t5 -44.5h140q0 89 -57.5 145t-147.5 56t-147.5 -56t-57.5 -145zM384 493l77 541l74 -541h-151z" />
<glyph unicode="&#x203;" horiz-adv-x="790" d="M47 236q0 -49 12 -93t36.5 -82.5t68.5 -61t102 -22.5q79 0 132.5 29t76.5 103l27 -109h250q-35 151 -35 281v502q0 80 -42.5 149t-113 109t-149.5 40q-174 0 -265.5 -97.5t-91.5 -279.5h265v60q0 19 0.5 31.5t4 29.5t10.5 26.5t19.5 16.5t31.5 7q22 0 35.5 -13.5t19 -37 t5.5 -60.5v-89q-55 -23 -91.5 -39.5t-82.5 -41.5t-75.5 -48t-60.5 -56t-48.5 -69t-29 -83.5t-11.5 -101.5zM208 1164h139q0 23 5.5 44.5t21.5 40t39 18.5q18 0 31.5 -10.5t20.5 -26.5t10.5 -33t3.5 -33h139q0 89 -57.5 145t-147.5 56t-147.5 -56t-57.5 -145zM313 261 q0 130 133 238l1 -260q-15 -19 -22 -27t-23.5 -19t-33.5 -11q-30 0 -42.5 23.5t-12.5 55.5z" />
<glyph unicode="&#x204;" horiz-adv-x="720" d="M30 1912l174 -358h168l-111 358h-231zM87 0h608v202h-313v449h221v208h-221v397h313v202h-608v-1458zM288 1912l174 -358h166l-111 358h-229z" />
<glyph unicode="&#x205;" horiz-adv-x="761" d="M40 1497l175 -358h167l-111 358h-231zM63 275q0 -88 45.5 -157t119.5 -105t160 -36q87 0 160.5 36t119 105t45.5 157v119h-268v-116q0 -96 -57 -96q-52 0 -52 89v234h377v219q0 83 -19 148t-58 112t-101.5 72t-146.5 25q-165 0 -245 -94t-80 -263v-449zM298 1497 l174 -358h166l-111 358h-229zM336 649v146q0 32 11.5 56t40.5 24q54 0 54 -80v-146h-106z" />
<glyph unicode="&#x206;" horiz-adv-x="720" d="M87 0h608v202h-313v449h221v208h-221v397h313v202h-608v-1458zM177 1579h139q0 22 5.5 44t21 40.5t39 18.5t39 -18.5t21 -40.5t5.5 -44h139q0 89 -57.5 145t-147 56t-147 -56t-57.5 -145z" />
<glyph unicode="&#x207;" horiz-adv-x="761" d="M63 275q0 -88 45.5 -157t119.5 -105t160 -36q87 0 160.5 36t119 105t45.5 157v119h-268v-116q0 -96 -57 -96q-52 0 -52 89v234h377v219q0 83 -19 148t-58 112t-101.5 72t-146.5 25q-165 0 -245 -94t-80 -263v-449zM187 1164h139q0 16 3.5 33t10.5 33t20.5 26.5t31.5 10.5 q23 0 39 -18.5t21.5 -40t5.5 -44.5h139q0 89 -57.5 145t-147.5 56t-147.5 -56t-57.5 -145zM336 649v146q0 32 11.5 56t40.5 24q54 0 54 -80v-146h-106z" />
<glyph unicode="&#x208;" horiz-adv-x="468" d="M-114 1898l174 -358h168l-111 358h-231zM87 0h295v1458h-295v-1458zM143 1898l175 -358h166l-111 358h-230z" />
<glyph unicode="&#x209;" horiz-adv-x="430" d="M-113 1507l174 -358h167l-111 358h-230zM100 0h273v1057h-273v-1057zM144 1507l174 -358h166l-111 358h-229z" />
<glyph unicode="&#x20a;" horiz-adv-x="468" d="M32 1565h140q0 16 3 33t10.5 33t21 26.5t30.5 10.5q24 0 39.5 -18.5t21 -40t5.5 -44.5h139q0 89 -57.5 145t-147.5 56t-147.5 -56t-57.5 -145zM87 0h295v1458h-295v-1458z" />
<glyph unicode="&#x20b;" horiz-adv-x="432" d="M80 0h273v1057h-273v-1057zM80 1149h273v256h-273v-256z" />
<glyph unicode="&#x20c;" horiz-adv-x="989" d="M68 480q0 -88 13 -161.5t44.5 -139t79.5 -110.5t121.5 -71t167.5 -26q95 0 168.5 26.5t121.5 73t79.5 113t44.5 140.5t13 162v483q0 516 -427 516q-426 0 -426 -516v-490zM144 1898l174 -358h168l-111 358h-231zM363 413v630q0 31 2.5 58t11.5 57t22.5 51.5t38 35.5 t56.5 14q132 0 132 -216v-630q0 -215 -132 -215q-131 0 -131 215zM402 1898l174 -358h166l-111 358h-229z" />
<glyph unicode="&#x20d;" horiz-adv-x="788" d="M53 1507l174 -358h167l-110 358h-231zM63 275q0 -88 46 -157t120.5 -105t162.5 -36q89 0 164.5 36t122 105t46.5 157v449q0 169 -81.5 263t-251.5 94q-169 0 -249 -94t-80 -263v-449zM310 1507l174 -358h166l-111 358h-229zM336 271v524q0 80 56 80q62 0 62 -80v-524 q0 -89 -62 -89q-19 0 -31.5 8.5t-17 24t-6 27t-1.5 29.5z" />
<glyph unicode="&#x20e;" horiz-adv-x="989" d="M68 480q0 -88 13 -161.5t44.5 -139t79.5 -110.5t121.5 -71t167.5 -26q95 0 168.5 26.5t121.5 73t79.5 113t44.5 140.5t13 162v483q0 516 -427 516q-426 0 -426 -516v-490zM291 1565h139q0 23 5.5 44.5t21 40t39 18.5t39 -18.5t21 -40t5.5 -44.5h140q0 89 -57.5 145 t-147.5 56t-147.5 -56t-57.5 -145zM363 413v630q0 31 2.5 58t11.5 57t22.5 51.5t38 35.5t56.5 14q132 0 132 -216v-630q0 -215 -132 -215q-131 0 -131 215z" />
<glyph unicode="&#x20f;" horiz-adv-x="788" d="M63 275q0 -88 46 -157t120.5 -105t162.5 -36q89 0 164.5 36t122 105t46.5 157v449q0 169 -81.5 263t-251.5 94q-169 0 -249 -94t-80 -263v-449zM199 1174h140q0 23 5.5 45t21 40t38.5 18t39 -18t21.5 -40t5.5 -45h139q0 90 -57.5 145.5t-147.5 55.5t-147.5 -55.5 t-57.5 -145.5zM336 271v524q0 80 56 80q62 0 62 -80v-524q0 -89 -62 -89q-19 0 -31.5 8.5t-17 24t-6 27t-1.5 29.5z" />
<glyph unicode="&#x210;" horiz-adv-x="918" d="M57 1898l174 -358h168l-111 358h-231zM87 0h295v671h48l167 -671h305q-97 288 -228 705q38 16 68 38t50.5 46t35.5 53.5t23.5 56.5t13 59.5t6 58.5t1.5 57q0 104 -32.5 179t-94.5 119.5t-145.5 65t-192.5 20.5h-320v-1458zM314 1898l174 -358h166l-110 358h-230zM382 851 v391h98q30 0 52 -21.5t31 -55.5t12.5 -61t3.5 -53t-4.5 -55t-15 -64.5t-35 -58t-58.5 -22.5h-84z" />
<glyph unicode="&#x211;" horiz-adv-x="578" d="M-3 1497l174 -358h168l-111 358h-231zM76 0h271v710q0 64 29 98t85 34q15 0 90 -8l16 230q-50 8 -74 8q-83 0 -146 -101v86h-271v-1057zM254 1497l174 -358h167l-111 358h-230z" />
<glyph unicode="&#x212;" horiz-adv-x="918" d="M87 0h295v671h48l167 -671h305q-97 288 -228 705q38 16 68 38t50.5 46t35.5 53.5t23.5 56.5t13 59.5t6 58.5t1.5 57q0 104 -32.5 179t-94.5 119.5t-145.5 65t-192.5 20.5h-320v-1458zM203 1565h140q0 23 5.5 44.5t21 40t39 18.5t39 -18.5t21 -40t5.5 -44.5h139 q0 89 -57.5 145t-147.5 56t-147.5 -56t-57.5 -145zM382 851v391h98q30 0 52 -21.5t31 -55.5t12.5 -61t3.5 -53t-4.5 -55t-15 -64.5t-35 -58t-58.5 -22.5h-84z" />
<glyph unicode="&#x213;" horiz-adv-x="578" d="M76 0h271v710q0 64 29 98t85 34q15 0 90 -8l16 230q-50 8 -74 8q-83 0 -146 -101v86h-271v-1057zM143 1164h140q0 23 5.5 44.5t21 40t39 18.5t39 -18.5t21 -40t5.5 -44.5h139q0 89 -57.5 145t-147.5 56q-59 0 -105.5 -25t-73 -71t-26.5 -105z" />
<glyph unicode="&#x214;" horiz-adv-x="1010" d="M80 542q0 -70 4 -126.5t15.5 -117.5t31 -107t52 -89t76.5 -70.5t106.5 -43.5t140 -16t140 16t106.5 43.5t76.5 70.5t52 89t31 107t15.5 117.5t4 126.5v916h-295v-907v-5q0 -77 -0.5 -111.5t-4.5 -84.5t-11.5 -70t-22 -43t-37 -30.5t-55 -7.5t-55 7.5t-37 31t-22.5 44 t-11.5 71t-4 85.5t-0.5 113v907h-295v-916zM157 1898l174 -358h168l-111 358h-231zM415 1898l174 -358h166l-111 358h-229z" />
<glyph unicode="&#x215;" horiz-adv-x="814" d="M49 1496l175 -358h167l-111 358h-231zM70 205q0 -55 21.5 -106.5t65.5 -86.5t101 -35t112 32t96 83v-92h273v1057h-273v-815q-49 -60 -85 -60q-11 0 -18.5 7t-11 15.5t-5.5 23t-2.5 22.5t-0.5 21v786h-273v-852zM307 1496l174 -358h166l-111 358h-229z" />
<glyph unicode="&#x216;" horiz-adv-x="1010" d="M80 542q0 -70 4 -126.5t15.5 -117.5t31 -107t52 -89t76.5 -70.5t106.5 -43.5t140 -16t140 16t106.5 43.5t76.5 70.5t52 89t31 107t15.5 117.5t4 126.5v916h-295v-907v-5q0 -77 -0.5 -111.5t-4.5 -84.5t-11.5 -70t-22 -43t-37 -30.5t-55 -7.5t-55 7.5t-37 31t-22.5 44 t-11.5 71t-4 85.5t-0.5 113v907h-295v-916zM304 1565h139q0 23 5.5 44.5t21 40t39 18.5t39 -18.5t21 -40t5.5 -44.5h140q0 89 -57.5 145t-147.5 56t-147.5 -56t-57.5 -145z" />
<glyph unicode="&#x217;" horiz-adv-x="814" d="M70 205q0 -55 21.5 -106.5t65.5 -86.5t101 -35t112 32t96 83v-92h273v1057h-273v-815q-49 -60 -85 -60q-11 0 -18.5 7t-11 15.5t-5.5 23t-2.5 22.5t-0.5 21v786h-273v-852zM196 1163h139q0 23 5.5 45t21.5 40t39 18t39 -18t21.5 -40t5.5 -45h139q0 90 -57.5 145.5 t-147.5 55.5t-147.5 -55.5t-57.5 -145.5z" />
<glyph unicode="&#x218;" horiz-adv-x="869" d="M46 417q4 -70 20.5 -134t49 -121.5t79 -100t114 -67t148.5 -24.5q76 0 144.5 25.5t119.5 70t81 110.5t30 142q0 82 -19 152.5t-57 131t-81 109t-106 103.5q-17 16 -107 92q-60 51 -92.5 103.5t-32.5 124.5q0 52 24.5 90t72.5 38q28 0 47.5 -16t29 -42.5t13 -53t3.5 -56.5 q0 -12 -1 -31t-1 -28l304 42q0 14 0.5 24.5l0.5 10.5q0 76 -29 145.5t-78.5 120t-118.5 80.5t-146 30q-186 0 -298.5 -103.5t-112.5 -280.5q0 -61 14.5 -115t34 -92.5t54.5 -80t61.5 -65.5t69.5 -61l92 -78q74 -65 123 -143t49 -161q0 -112 -87 -112q-25 0 -44 11.5t-31 33 t-20 46.5t-11.5 59t-5 63t-1.5 66zM288 -63v-258h89q0 -25 -1 -36.5t-8.5 -18t-15 -7t-28.5 -0.5h-3h-2.5h-3.5h-3l32 -135q23 -3 36 -3q51 0 85.5 17.5t51.5 49t25.5 77t8.5 101.5v121q-1 60 -1 92h-262z" />
<glyph unicode="&#x219;" horiz-adv-x="707" d="M27 796q0 -47 14.5 -91t43 -83.5t58 -70t69.5 -65.5l45 -38q36 -31 50.5 -44t41.5 -39.5t38.5 -43.5t21.5 -40t10 -44q0 -60 -51 -60q-17 0 -31.5 6.5t-26 21t-20 27.5t-17 34.5t-12.5 32t-11 31.5l-209 -75q35 -125 125 -201.5t214 -76.5q62 0 118.5 21.5t98.5 60 t66.5 94t24.5 118.5q0 45 -15.5 89.5t-45 85t-59.5 72.5t-70 68l-50 45q-69 58 -108 102t-39 79q0 27 15.5 47t43.5 20q21 0 41 -12t33 -27.5t27 -41t21 -41t16 -39.5l196 67q-16 57 -46 109.5t-71 94.5t-95.5 67t-112.5 25q-67 0 -127.5 -18.5t-109 -52.5t-77 -89.5 t-28.5 -124.5zM249 -66v-257h90q-1 -25 -2 -36.5t-8 -18t-15 -7.5t-29 -1h-12l32 -134q23 -3 36 -3q51 0 85.5 17t51.5 49t25.5 77t8.5 101v121q-1 61 -1 92h-262z" />
<glyph unicode="&#x21a;" horiz-adv-x="746" d="M14 1238h214v-1238h294v1238h210v220h-718v-220zM227 -63v-258h89q0 -25 -1.5 -36.5t-8.5 -18t-14.5 -7t-28.5 -0.5h-4.5h-4h-4.5l33 -135q22 -3 35 -3q52 0 86 17.5t51.5 49t26 77t8.5 101.5t-1 121q-1 60 -1 92h-261z" />
<glyph unicode="&#x21b;" horiz-adv-x="531" d="M17 875h78v-512q0 -45 2 -79.5t8 -75t17 -71t30 -60t45.5 -48t64.5 -30t86 -11.5q103 0 157 16l16 211q-32 -4 -80 -4q-41 0 -57 21t-16 65v578h131v182h-131v348h-273v-348h-78v-182zM223 -63v-258h89q0 -25 -1.5 -36.5t-8.5 -18t-14.5 -7t-28.5 -0.5h-13l33 -135 q22 -3 35 -3q52 0 86 17.5t51.5 49t26 77t8 101.5t-0.5 121q-1 60 -1 92h-261zM347 0z" />
<glyph unicode="&#x237;" horiz-adv-x="519" d="M39 -32v-198q84 -22 145 -22q84 0 142.5 34t87.5 94.5t29 144.5v1036h-271v-1012q0 -90 -62 -90q-26 0 -71 13z" />
<glyph unicode="&#x2c6;" horiz-adv-x="724" d="M87 1128h222l59 164l60 -164h223l-167 329h-235z" />
<glyph unicode="&#x2c7;" horiz-adv-x="695" d="M65 1451l163 -329h235l166 329h-222l-61 -163l-59 163h-222z" />
<glyph unicode="&#x2d8;" horiz-adv-x="589" d="M77 1366q0 -90 57.5 -145.5t147.5 -55.5t147.5 55.5t57.5 145.5h-140q0 -17 -3 -33.5t-10 -33t-20.5 -26.5t-31.5 -10q-23 0 -39 18t-21.5 40t-5.5 45h-139z" />
<glyph unicode="&#x2d9;" horiz-adv-x="468" d="M118 1214h262v258h-262v-258z" />
<glyph unicode="&#x2da;" horiz-adv-x="613" d="M96 1358.5q0 -88.5 58 -141t147 -52.5q59 0 105 23t73 67t27 103q0 88 -58 141t-147 53t-147 -52.5t-58 -141zM236 1359q0 35 16.5 65t48.5 30t47.5 -31t15.5 -65q0 -35 -15.5 -65t-47.5 -30q-33 0 -49 30t-16 66z" />
<glyph unicode="&#x2db;" horiz-adv-x="465" d="M39 -239q0 -42 14.5 -74.5t39.5 -51.5t58 -32t69 -16.5t72.5 -6t69.5 -0.5l17 130h-28.5t-29 2t-30.5 5t-26 10t-23 17t-13.5 25.5t-5.5 35.5q0 18 2.5 36.5t6.5 34.5t10.5 35t12.5 33.5t13.5 34.5t12.5 34h-120q-51 -49 -86.5 -118.5t-35.5 -133.5z" />
<glyph unicode="&#x2dc;" horiz-adv-x="729" d="M98 1158h135v4q0 11 1 17t4 14t12 12t23 4q38 0 122 -30t124 -30q127 0 127 242h-126q0 -13 -1 -19t-7.5 -12t-19.5 -6q-20 0 -59.5 11.5t-89.5 23t-95 11.5q-38 0 -65.5 -13.5t-43.5 -35t-25.5 -55t-12.5 -65.5t-3 -73z" />
<glyph unicode="&#x2dd;" horiz-adv-x="797" d="M92 1138h166l174 358h-230zM347 1138h168l174 358h-231z" />
<glyph unicode="&#x30f;" horiz-adv-x="797" d="M92 1496l174 -358h167l-111 358h-230zM349 1496l174 -358h166l-111 358h-229z" />
<glyph unicode="&#x311;" horiz-adv-x="589" d="M77 1165h139q0 23 5.5 44.5t21.5 40t39 18.5t39 -18.5t21 -40t5 -44.5h140q0 89 -57.5 145t-147.5 56t-147.5 -56t-57.5 -145z" />
<glyph unicode="&#x326;" horiz-adv-x="409" d="M68 -63v-258h89q0 -25 -1.5 -36.5t-8.5 -18t-14.5 -7t-28.5 -0.5h-12l32 -135q23 -3 36 -3q51 0 85 17.5t51.5 49t26 77t8.5 101.5v121q-1 60 -1 92h-262z" />
<glyph unicode="&#x2000;" horiz-adv-x="971" />
<glyph unicode="&#x2001;" horiz-adv-x="1942" />
<glyph unicode="&#x2002;" horiz-adv-x="971" />
<glyph unicode="&#x2003;" horiz-adv-x="1942" />
<glyph unicode="&#x2004;" horiz-adv-x="647" />
<glyph unicode="&#x2005;" horiz-adv-x="485" />
<glyph unicode="&#x2006;" horiz-adv-x="323" />
<glyph unicode="&#x2007;" horiz-adv-x="323" />
<glyph unicode="&#x2008;" horiz-adv-x="242" />
<glyph unicode="&#x2009;" horiz-adv-x="388" />
<glyph unicode="&#x200a;" horiz-adv-x="107" />
<glyph unicode="&#x2010;" horiz-adv-x="347" d="M3 367h338v181h-338v-181z" />
<glyph unicode="&#x2011;" horiz-adv-x="347" d="M3 367h338v181h-338v-181z" />
<glyph unicode="&#x2012;" horiz-adv-x="347" d="M3 367h338v181h-338v-181z" />
<glyph unicode="&#x2013;" horiz-adv-x="427" d="M3 367h419v181h-419v-181z" />
<glyph unicode="&#x2014;" horiz-adv-x="669" d="M3 367h662v181h-662v-181z" />
<glyph unicode="&#x2018;" horiz-adv-x="455" d="M100 1175.5q1 -30.5 2.5 -73.5t1.5 -64h240v240h-103q0 27 19.5 44t43 22t49.5 5l-67 137q-42 0 -74 -13.5t-52 -33.5t-33 -53t-18.5 -63.5t-7.5 -73.5t-1 -73.5z" />
<glyph unicode="&#x2019;" horiz-adv-x="455" d="M93 1174l68 -136q70 -1 113 35t55.5 91.5t17.5 121.5t-2 127q-2 50 -2 73h-239v-241h103q-1 -28 -20.5 -44.5t-42.5 -21.5t-51 -5z" />
<glyph unicode="&#x201a;" horiz-adv-x="347" d="M46 83l57 -343h132l57 343h-246z" />
<glyph unicode="&#x201c;" horiz-adv-x="779" d="M102 1176q1 -31 2.5 -74t1.5 -64h241v240h-104q2 27 21 44t42 22t50 5l-67 137q-42 0 -74 -13.5t-52 -33.5t-33 -53t-19 -63.5t-8 -73t-1 -73.5zM414 1176q1 -31 2.5 -74t1.5 -64h241v240h-104q1 27 20 44t42 22t50 5l-66 137q-42 0 -74 -13.5t-52 -33.5t-33.5 -53 t-19 -63.5t-7.5 -73t-1 -73.5z" />
<glyph unicode="&#x201d;" horiz-adv-x="779" d="M96 1174l68 -136q71 -1 114 35t55 91.5t17 121.5t-1 127q-2 50 -2 73h-241v-241h104q-1 -28 -20.5 -44.5t-43 -21.5t-50.5 -5zM407 1174l68 -136q42 -1 74.5 12.5t52 33.5t33 53t19 63.5t7.5 73t1.5 73.5t-2 74t-1.5 65h-241v-241h104q-2 -28 -21.5 -44.5t-42.5 -21.5 t-51 -5z" />
<glyph unicode="&#x201e;" horiz-adv-x="617" d="M49 84l56 -343h132l58 343h-246zM310 84l58 -343h131l58 343h-247z" />
<glyph unicode="&#x2021;" horiz-adv-x="646" d="M64 363h156v-363h207v363h155v207h-155v259h155v208h-155v207h-207v-207h-156v-208h156v-259h-156v-207z" />
<glyph unicode="&#x2022;" horiz-adv-x="801" d="M98 582q0 -75 25.5 -135.5t68.5 -98t96.5 -57.5t111.5 -20t111.5 20t97 57.5t69.5 98t26 135.5t-26 136t-69 99t-97 58t-112 20q-46 0 -89.5 -12.5t-82 -38t-67.5 -62t-46 -88.5t-17 -112z" />
<glyph unicode="&#x202f;" horiz-adv-x="388" />
<glyph unicode="&#x2039;" horiz-adv-x="500" d="M64 467l363 -415v259l-207 208l207 207v259l-363 -415v-103z" />
<glyph unicode="&#x203a;" horiz-adv-x="486" d="M64 52l363 415v103l-363 415v-259l207 -207l-207 -208v-259z" />
<glyph unicode="&#x2044;" horiz-adv-x="500" d="M23 0h159l211 1459h-161z" />
<glyph unicode="&#x205f;" horiz-adv-x="485" />
<glyph unicode="&#x2074;" horiz-adv-x="671" d="M58 682h262v-210h180v210h105v128h-105v472h-158l-284 -480v-120zM245 810l75 149v-149h-75z" />
<glyph unicode="&#x20ac;" horiz-adv-x="842" d="M6 416h56v-6q3 -77 14.5 -138t37 -117.5t65 -94t101 -60t142.5 -22.5q61 0 111 14.5t86 39t63.5 61t44.5 77t27.5 90.5t14.5 97.5t5 102.5v7h-226v-5q0 -271 -122 -271q-25 0 -45 8t-33 19t-22.5 31.5t-14.5 36t-9 42.5t-5 42t-2 42v4h159v159h-162v103h162v160h-162v4 v11q1 29 1 44t3 42t7.5 42.5t14 35.5t22.5 30.5t33.5 18t46.5 7.5q31 0 54 -17t35.5 -41.5t20 -59t9.5 -60t2 -54.5v-6h229v5q-2 76 -12 138t-35 120t-64 97.5t-100.5 63t-142.5 23.5q-80 0 -140.5 -23.5t-98.5 -62.5t-63 -97.5t-35.5 -119t-14.5 -136.5v-5h-58v-160h56 v-103h-56v-159z" />
<glyph unicode="&#x2122;" horiz-adv-x="1809" d="M135 1105h132v-549h138v549h133v125h-403v-125zM612 556h128v449l111 -449h84l111 449v-449h129v674h-196l-86 -367l-85 367h-196v-674z" />
<glyph unicode="&#x2206;" horiz-adv-x="853" d="M64 0h727l-259 1037h-209zM305 156l122 570l123 -570h-245z" />
<glyph unicode="&#x220f;" horiz-adv-x="1009" d="M116 0h207v1296h363v-1296h207v1452h-777v-1452z" />
<glyph unicode="&#x222b;" horiz-adv-x="594" d="M12 -44v-154q78 -9 128 -9q49 0 87 10t62.5 23.5t41.5 40.5t25.5 48t13 60t5 61.5t0.5 67.5v1011q0 23 1.5 39.5t6.5 35t14 29.5t25 18t39 7q7 0 18.5 -1.5t26 -3.5t25.5 -3v154q-78 10 -128 10q-39 0 -70.5 -6t-54.5 -15t-41 -26t-29.5 -31t-19.5 -40t-12 -43t-6 -49 t-2 -49.5v-51.5v-1011q0 -24 -1.5 -40.5t-6.5 -34.5t-14 -29t-25 -18.5t-39 -7.5q-20 0 -70 8z" />
<glyph unicode="&#x25fc;" horiz-adv-x="1057" d="M0 0v1057h1057v-1057h-1057z" />
<glyph unicode="&#xf6c3;" horiz-adv-x="409" d="M68 -63v-258h89q0 -25 -1.5 -36.5t-8.5 -18t-14.5 -7t-28.5 -0.5h-12l32 -135q80 0 125.5 31.5t61 90.5t19.5 143t0 190h-262z" />
<glyph unicode="&#xfb00;" horiz-adv-x="1035" d="M53 875h61v-875h273v875h229v-875h273v875h132v182h-132v49q0 51 14.5 70t48.5 19l71 -5v204q-95 11 -172 11q-57 0 -99.5 -18.5t-67.5 -47.5t-40 -74t-20.5 -87t-7.5 -97v-12.5v-11.5h-229v49q0 51 15 70t48 19l72 -5v204q-95 11 -172 11q-58 0 -100.5 -18.5t-67 -47.5 t-39.5 -74t-20.5 -87t-7.5 -97q0 -5 -0.5 -12.5t-0.5 -11.5h-61v-182z" />
<glyph unicode="&#xfb01;" horiz-adv-x="969" d="M53 875h61v-875h273v875h233v-875h273v1057h-506v49q0 51 15 70t48 19l72 -5v204q-95 11 -172 11q-58 0 -100.5 -18.5t-67 -47.5t-39.5 -74t-20.5 -87t-7.5 -97q0 -5 -0.5 -12.5t-0.5 -11.5h-61v-182zM620 1149h273v256h-273v-256z" />
<glyph unicode="&#xfb02;" horiz-adv-x="963" d="M53 875h61v-875h273v875h132v182h-132v49q0 51 15 70t48 19q45 0 162 -4v-1191h273v1384q-69 3 -155 7.5t-138.5 7t-110 4.5t-99.5 2q-65 0 -113 -18.5t-76.5 -47.5t-46 -73.5t-23.5 -87t-8 -97.5q0 -5 -0.5 -12.5t-0.5 -11.5h-61v-182z" />
<glyph unicode="&#xfb03;" horiz-adv-x="1489" d="M53 875h61v-875h273v875h229v-875h273v875h251v-875h273v1057h-524v49q0 51 14.5 70t48.5 19l71 -5v204q-95 11 -172 11q-57 0 -99.5 -18.5t-67.5 -47.5t-40 -74t-20.5 -87t-7.5 -97v-12.5v-11.5h-229v49q0 51 15 70t48 19l72 -5v204q-95 11 -172 11q-58 0 -100.5 -18.5 t-67 -47.5t-39.5 -74t-20.5 -87t-7.5 -97q0 -5 -0.5 -12.5t-0.5 -11.5h-61v-182zM1140 1149h273v256h-273v-256z" />
<glyph unicode="&#xfb04;" horiz-adv-x="1497" d="M53 875h61v-875h273v875h262v-875h273v875h132v182h-132v49q0 35 12 54.5t35.5 27t64.5 7.5q5 0 15 -0.5t22 -1t24.5 -0.5t26.5 -0.5t25 -0.5v-1192h273v1375q-364 30 -487 30q-50 0 -90 -9.5t-69 -25.5t-50.5 -41t-35 -51.5t-22 -61t-12 -66t-4.5 -69.5q0 -5 -0.5 -12.5 t-0.5 -11.5h-262v49q0 51 15 70t48 19l72 -5v204q-95 11 -172 11q-58 0 -100.5 -18.5t-67 -47.5t-39.5 -74t-20.5 -87t-7.5 -97q0 -5 -0.5 -12.5t-0.5 -11.5h-61v-182z" />
<glyph horiz-adv-x="272" />
<glyph horiz-adv-x="1312" d="M45 937l371 -274l-136 -439l372 265l380 -265l-138 439l374 283h-464l-152 439l-144 -439z" />
<glyph horiz-adv-x="1023" d="M17 875h78v-512q0 -45 2 -79.5t8 -75t17 -71t30 -60t45.5 -48t64.5 -30t86 -11.5q103 0 157 16l16 211q-32 -4 -80 -4q-41 0 -57.5 21.5t-16.5 64.5v578h215v-512q0 -45 2 -79.5t8.5 -75t17.5 -71t30 -60t45 -48t64.5 -30t86.5 -11.5q103 0 156 16l16 211q-32 -4 -79 -4 q-41 0 -57.5 21.5t-16.5 64.5v578h132v182h-132v348h-273v-348h-215v348h-272v-348h-78v-182z" />
</font>
</defs>
</svg>
